<?xml version="1.0" encoding="UTF-8" standalone="no"?>
<!-- Created with Inkscape (http://www.inkscape.org/) -->

<svg
   xmlns:dc="http://purl.org/dc/elements/1.1/"
   xmlns:cc="http://creativecommons.org/ns#"
   xmlns:rdf="http://www.w3.org/1999/02/22-rdf-syntax-ns#"
   xmlns:svg="http://www.w3.org/2000/svg"
   xmlns="http://www.w3.org/2000/svg"
   xmlns:sodipodi="http://sodipodi.sourceforge.net/DTD/sodipodi-0.dtd"
   xmlns:inkscape="http://www.inkscape.org/namespaces/inkscape"
   width="210mm"
   height="297mm"
   viewBox="0 0 744.09448819 1052.3622047"
   id="svg2"
   version="1.1"
   inkscape:version="0.91 r13725"
   sodipodi:docname="Fig1.svg">
  <defs
     id="defs4" />
  <sodipodi:namedview
     id="base"
     pagecolor="#ffffff"
     bordercolor="#666666"
     borderopacity="1.0"
     inkscape:pageopacity="0.0"
     inkscape:pageshadow="2"
     inkscape:zoom="0.32"
     inkscape:cx="-617.99882"
     inkscape:cy="1293.669"
     inkscape:document-units="px"
     inkscape:current-layer="surface35"
     showgrid="false"
     inkscape:window-width="1280"
     inkscape:window-height="705"
     inkscape:window-x="3192"
     inkscape:window-y="297"
     inkscape:window-maximized="1" />
  <metadata
     id="metadata7">
    <rdf:RDF>
      <cc:Work
         rdf:about="">
        <dc:format>image/svg+xml</dc:format>
        <dc:type
           rdf:resource="http://purl.org/dc/dcmitype/StillImage" />
        <dc:title></dc:title>
      </cc:Work>
    </rdf:RDF>
  </metadata>
  <g
     inkscape:label="Layer 1"
     inkscape:groupmode="layer"
     id="layer1">
    <g
       id="surface28"
       transform="matrix(1.25,0,0,1.25,-621.83513,-389.38549)">
      <path
         id="path4139"
         d="M 467.49042,275.6877 169.04901,-22.753713 375.77948,183.97676"
         style="fill:none;stroke:#0000fd;stroke-width:5.35820913;stroke-linecap:butt;stroke-linejoin:miter;stroke-miterlimit:3.25;stroke-opacity:1"
         inkscape:connector-curvature="0" />
      <path
         id="path4141"
         d="m 197.83381,32.711561 0.76953,-2.25 2.00781,-5.25 1.32032,-3.04297 1.45312,-2.94531 1.53125,-2.56641 1.54688,-1.90234 1.74218,-1.38282 2.53516,-1.5039 3.01953,-1.52735 3.1836,-1.4609301 5.58203,-2.34375 2.42578,-0.94532 -64.34375,-36.6913999 z m 0,0"
         style="fill:#0000fd;fill-opacity:1;fill-rule:nonzero;stroke:#0000fd;stroke-width:0.03;stroke-linecap:square;stroke-linejoin:miter;stroke-miterlimit:3.25;stroke-opacity:1"
         inkscape:connector-curvature="0" />
      <path
         id="path4143"
         d="m 437.36332,218.87131 -0.76953,2.2539 -2.00781,5.25 -1.32031,3.03907 -1.45704,2.94531 -1.52734,2.56641 -1.55078,1.90234 -1.73828,1.38672 -2.53906,1.5039 -3.01954,1.52735 -3.17968,1.46094 -5.58203,2.33984 -2.42969,0.94531 64.34375,36.69141 z m 0,0"
         style="fill:#0000fd;fill-opacity:1;fill-rule:nonzero;stroke:#0000fd;stroke-width:0.03;stroke-linecap:square;stroke-linejoin:miter;stroke-miterlimit:3.25;stroke-opacity:1"
         inkscape:connector-curvature="0" />
      <path
         id="path4145"
         d="m 139.66424,126.46699 357.21094,0"
         style="fill:none;stroke:#000000;stroke-width:1.78606999;stroke-linecap:butt;stroke-linejoin:miter;stroke-miterlimit:3.25;stroke-opacity:1"
         inkscape:connector-curvature="0" />
      <path
         id="path4147"
         d="m 318.26971,305.07246 0,-357.210938"
         style="fill:none;stroke:#000000;stroke-width:1.78606999;stroke-linecap:butt;stroke-linejoin:miter;stroke-miterlimit:3.25;stroke-opacity:1"
         inkscape:connector-curvature="0" />
      <g
         id="surface42"
         transform="translate(137.1786,326.93333)">
        <path
           id="path4176"
           transform="translate(-74,-13)"
           d="m 342.80469,269.83984 0,-0.51953 -0.004,-0.25781 0,-0.51953 -0.004,-0.25781 0,-0.26172 -0.004,-0.25782 -0.008,-0.52343 0,-0.26172 -0.004,-0.25781 -0.004,-0.26172 -0.008,-0.26172 -0.008,-0.52735 -0.008,-0.26171 -0.004,-0.26172 -0.0117,-0.52735 -0.008,-0.26562 -0.008,-0.26172 -0.0234,-0.79688 -0.008,-0.26171 -0.0195,-0.53125 -0.0391,-1.06641 -0.0117,-0.26563 -0.008,-0.26953 -0.0234,-0.53515 -0.0508,-1.07422 -0.0156,-0.26953 -0.0117,-0.26563 -0.0274,-0.53906 -0.0625,-1.08203 -0.0156,-0.27344 -0.0156,-0.26953 -0.0351,-0.54297 -0.0703,-1.08984 -0.16016,-2.1875 -0.0234,-0.29688 -0.0234,-0.30078 -0.0469,-0.59375 -0.10156,-1.19922 -0.22266,-2.40625 -0.0273,-0.30078 -0.0312,-0.30078 -0.0586,-0.60547 -0.125,-1.21094 -0.27343,-2.4375 -0.0703,-0.60937 -0.0703,-0.61328 -0.15234,-1.22657 -0.31641,-2.46093 -0.71094,-4.96485 -0.0469,-0.29297 -0.043,-0.28906 -0.0898,-0.58594 -0.1875,-1.16796 -0.38282,-2.33985 -0.83593,-4.71094 -0.10938,-0.59375 -0.11328,-0.58984 -0.22656,-1.1875 -0.46875,-2.37109 -0.9961,-4.76953 -0.0625,-0.29297 -0.0664,-0.29297 -0.12891,-0.58594 -0.26172,-1.17187 -0.53906,-2.35157 -1.13281,-4.71093 -2.49219,-9.45313 -0.35938,-1.28125 -0.36718,-1.28516 -0.75,-2.5664 -1.5586,-5.13281 -3.36328,-10.23047 -0.10547,-0.30078 -0.10156,-0.29688 -0.20703,-0.59375 -0.41797,-1.1875 -0.84766,-2.375 -1.75,-4.73047 -3.6875,-9.3789 -8.82812,-19.79688 -9.64453,-18.46094 -9.72266,-16.05468 -11.16015,-15.855472 -10.83204,-13.097657 -0.16796,-0.1875 -0.16797,-0.183593 -0.33594,-0.375 -0.67188,-0.734375 -1.35156,-1.453125 -2.70312,-2.824219 -5.4375,-5.289063 -0.1836,-0.167968 -0.18359,-0.171875 -0.37109,-0.339844 -0.73829,-0.671875 -1.47656,-1.3125 -2.95703,-2.523438 -0.36719,-0.304687 -0.37109,-0.300781 -0.73828,-0.597657 -1.47656,-1.167968 -2.94922,-2.222657 -0.16797,-0.125 -0.17188,-0.121093 -0.34375,-0.25 -0.6875,-0.484375 -1.37109,-0.953125 -2.73047,-1.796875 -0.17187,-0.105469 -0.16797,-0.109375 -0.33985,-0.210938 -0.68359,-0.421875 -1.35547,-0.8125 -2.70312,-1.519531 -0.36719,-0.195312 -0.36328,-0.191407 -0.72657,-0.378906 -1.45312,-0.722656 -0.18359,-0.08984 -0.53907,-0.257812 -0.72265,-0.335938 -1.44141,-0.640625 -0.17969,-0.07813 -0.17968,-0.07422 -0.35547,-0.152343 -0.71485,-0.292969 -1.42578,-0.554688 -2.82812,-0.988281 -0.34375,-0.109375 -0.34375,-0.105469 -0.6875,-0.203125 -1.36719,-0.382812 -0.16797,-0.04297 -0.17187,-0.04297 -0.33985,-0.08594 -0.67578,-0.164063 -1.34766,-0.296875 -0.33593,-0.07031 -0.33594,-0.0625 -0.66797,-0.125 -0.16406,-0.02734 -0.16797,-0.02734 -0.33203,-0.05469 -0.66406,-0.101563 -0.32813,-0.04687 -0.33203,-0.04687 -0.98438,-0.117187 -0.32812,-0.03125 -0.16406,-0.01953 -0.16016,-0.01172 -0.32812,-0.03125 -0.15235,-0.01172 -0.14844,-0.01172 -0.30468,-0.02344 -0.14844,-0.0078 -0.15234,-0.01172 -0.30079,-0.01563 -0.15234,-0.0078 -0.14844,-0.0078 -0.15234,-0.0078 -0.14844,-0.0078 -0.14844,-0.0039 -0.15234,-0.0039 -0.14844,-0.0078 -0.14843,-0.0039 -0.14844,0 -0.14844,-0.0039 -0.15234,-0.0039 -0.29688,0 -0.14844,-0.0039 -0.14843,0 -0.14453,0.0039 -0.29688,0 -0.29687,0.0078 -0.14454,0 -0.14843,0.0039 -0.14453,0.0078 -0.29688,0.0078 -0.28906,0.01563 -0.14844,0.0078 -0.28906,0.01563 -0.29297,0.01953 -0.14453,0.0078 -0.72266,0.05859 -0.28906,0.03125 -0.14453,0.01172 -0.14063,0.01563 -0.28906,0.03516 -0.14062,0.01563 -0.14454,0.01563 -0.28515,0.03906 -0.14063,0.01953 -0.14453,0.01953 -0.28125,0.04297 -0.5664,0.08594 -0.60938,0.109375 -0.60547,0.117187 -0.15234,0.03125 -0.14844,0.03125 -0.30078,0.06641 -0.60156,0.140625 -0.14844,0.03516 -0.14844,0.03906 -0.29687,0.07422 -0.58985,0.160156 -1.17187,0.355469 -0.14844,0.04687 -0.14453,0.04687 -0.28906,0.09766 -0.57422,0.203125 -1.14063,0.4375 -0.14453,0.05859 -0.14062,0.05469 -0.28125,0.121093 -0.5586,0.242188 -1.10937,0.523437 -0.12891,0.0625 -0.1289,0.06641 -0.25391,0.128906 -0.50781,0.265625 -1.00391,0.5625 -0.125,0.07031 -0.375,0.222657 -0.49219,0.300781 -0.97265,0.632812 -0.24219,0.164063 -0.24219,0.167969 -0.47656,0.339843 -0.94531,0.703125 -1.83985,1.515625 -0.12109,0.105469 -0.36328,0.328125 -0.48438,0.445313 -0.94922,0.921875 -0.23437,0.234375 -0.23438,0.238281 -0.46484,0.488281 -0.91016,1 -0.10937,0.128906 -0.11328,0.128907 -0.22266,0.257812 -0.44531,0.527344 -0.86719,1.082031 -1.67969,2.28125 -0.10156,0.144531 -0.0977,0.148438 -0.19922,0.292969 -0.39453,0.59375 -0.77344,1.214843 -1.48047,2.539063 -0.17969,0.328125 -0.17578,0.328125 -0.35156,0.667969 -0.6875,1.359375 -1.3125,2.828125 -0.0742,0.167968 -0.0703,0.167969 -0.14844,0.34375 -0.28906,0.6875 -0.5586,1.394531 -1.0664,2.878907 -0.0664,0.183593 -0.0625,0.1875 -0.125,0.367188 -0.25,0.746094 -0.48437,1.511718 -0.90625,3.109375 -0.11719,0.429688 -0.11719,0.433594 -0.22266,0.867187 -0.4375,1.765625 -0.0508,0.222656 -0.0547,0.222657 -0.10157,0.445312 -0.20312,0.902344 -0.38672,1.824219 -0.0937,0.460937 -0.26953,1.394531 -0.33594,1.886719 -0.043,0.234375 -0.0391,0.238281 -0.23438,1.441407 -0.28906,1.941406 -0.0312,0.230469 -0.0312,0.226562 -0.1875,1.382813 -0.22656,1.863281 -0.0273,0.234375 -0.0234,0.234375 -0.0547,0.472656 -0.0977,0.945313 -0.1875,1.910156 -0.0195,0.242187 -0.0234,0.238282 -0.13672,1.695313 -0.0195,0.24609 -0.0352,0.48829 -0.0664,0.97656 -0.0156,0.24609 -0.0195,0.2461 -0.0273,0.49609 -0.0586,0.99219 -0.0117,0.24609 -0.0156,0.25 -0.0703,1.5 -0.0117,0.24609 -0.008,0.2461 -0.0195,0.49609 -0.0117,0.2461 -0.008,0.25 -0.0156,0.49609 -0.008,0.24609 -0.0234,0.75 -0.004,0.25 -0.008,0.25 -0.0117,0.5 -0.004,0.25391 -0.008,0.25 -0.004,0.25391 -0.004,0.25 -0.004,0.2539 -0.004,0.25 -0.008,0.50781 0,0.25391 -0.004,0.25391 0,0.2539 -0.004,0.25391 0,0.51172 -0.004,0.2539 0,0.76563 0.004,0.25781 0,0.76953 0.008,0.51563 0,0.25781 0.004,0.25781 0.004,0.26172 0.008,0.51563 0.004,0.26172 0.008,0.51953 0.004,0.25781 0.008,0.26172 0.0117,0.52344 0.004,0.25781 0.008,0.26172 0.0156,0.52734 0.0156,0.52344 0.0156,0.52734 0.0391,1.05469 0.0117,0.28516 0.0117,0.28906 0.0234,0.57422 0.0547,1.15234 0.0117,0.28906 0.0156,0.28907 0.0312,0.58203 0.0664,1.16015 0.0156,0.29297 0.0195,0.29297 0.0352,0.58203 0.0781,1.17188 0.17578,2.35546 0.0469,0.59375 0.0469,0.58985 0.10156,1.1914 0.22266,2.38672 0.0625,0.60157 0.0586,0.59765 0.12891,1.20313 0.26953,2.41797 0.0312,0.28515 0.0352,0.28125 0.0664,0.56641 0.14063,1.13672 0.29687,2.28125 0.65235,4.59375 0.0859,0.57812 0.0898,0.57422 0.18359,1.16016 0.37891,2.32031 0.8164,4.66797 0.11719,0.63281 0.11719,0.63672 0.24219,1.26953 0.5039,2.55078 1.07031,5.125 0.14063,0.64063 0.14453,0.64453 0.28906,1.28515 0.59375,2.57813 1.25782,5.16406 0.0781,0.32031 0.082,0.31641 0.16016,0.63281 0.32812,1.27344 0.67188,2.54297 1.41015,5.08984 3.07032,10.17969 0.1875,0.59375 0.1914,0.59375 0.38282,1.18359 0.77734,2.36719 1.61328,4.72266 3.42188,9.39062 8.28906,19.96094 8.6914,17.875 9.28907,16.53906 10.77734,16.5625 10.54688,13.89844 0.17968,0.21875 0.1836,0.22266 0.36328,0.4375 0.73047,0.875 1.46093,1.72265 2.9375,3.35157 5.92188,6.29296 0.17578,0.17579 0.17188,0.17578 0.34765,0.34765 0.69531,0.69141 1.39063,1.35937 2.78516,2.6211 5.57812,4.85937 0.17188,0.14063 0.16796,0.14062 0.34375,0.27735 0.6836,0.55078 1.36328,1.07812 2.72656,2.0586 0.17188,0.125 0.16797,0.125 0.33984,0.24609 0.68359,0.48438 1.35547,0.94921 2.71094,1.79297 0.36719,0.23438 0.36718,0.23047 0.73047,0.45312 1.46094,0.875 2.90625,1.63281 0.17969,0.0977 0.18359,0.0977 0.35938,0.1875 0.72265,0.375 1.44141,0.71484 2.85937,1.30469 0.16797,0.0703 0.16407,0.0703 0.33203,0.14063 0.66015,0.26953 1.32032,0.51953 0.16406,0.0586 0.16406,0.0625 0.33203,0.1211 0.65235,0.23437 1.30859,0.44532 0.16016,0.0547 0.16406,0.0508 0.32422,0.10157 0.64843,0.19922 1.29297,0.37109 0.64063,0.17187 0.64062,0.16407 1.27735,0.29687 0.17187,0.0352 0.17188,0.0391 0.34375,0.0703 0.68359,0.13282 0.34375,0.0625 0.33984,0.0625 0.67969,0.11328 0.16797,0.0273 0.16797,0.0234 0.33984,0.0508 0.33594,0.0469 0.33984,0.043 0.16797,0.0234 0.50391,0.0586 0.66797,0.0703 0.16406,0.0156 0.16797,0.0117 0.33203,0.0312 0.16797,0.0117 0.16406,0.0117 0.33203,0.0234 0.16407,0.008 0.16406,0.0117 0.16797,0.008 0.49218,0.0234 0.16407,0.004 0.16406,0.008 0.32812,0.008 0.16016,0.004 0.16406,0.004 0.32813,0 0.16015,0.004 0.16407,0 0.16015,-0.004 0.32422,0 0.16016,-0.004 0.16406,-0.004 0.32031,-0.008 0.16016,-0.008 0.16016,-0.004 0.3125,-0.0156 0.16015,-0.008 0.15625,-0.008 0.15625,-0.0117 0.3125,-0.0195 0.3125,-0.0234 0.3086,-0.0234 0.3125,-0.0312 0.30859,-0.0312 0.15234,-0.0156 0.15625,-0.0156 0.3086,-0.0391 0.30468,-0.0391 0.3086,-0.0391 0.60937,-0.0937 0.60547,-0.10156 0.15235,-0.0273 0.14843,-0.0274 0.30078,-0.0547 0.60157,-0.125 0.29687,-0.0625 0.29688,-0.0703 0.59375,-0.14453 0.14843,-0.0351 0.14454,-0.0391 0.29687,-0.0781 0.58203,-0.16406 1.16016,-0.35938 0.13281,-0.0469 0.13281,-0.043 0.26953,-0.0937 0.53125,-0.19141 1.05469,-0.41015 0.12891,-0.0508 0.13281,-0.0547 0.25781,-0.11328 0.51953,-0.22657 1.02735,-0.48047 0.125,-0.0625 0.1289,-0.0625 0.25391,-0.1289 0.50391,-0.26172 0.99609,-0.55469 1.95313,-1.21094 0.1289,-0.0859 0.12891,-0.0899 0.25781,-0.17578 0.51563,-0.36328 1.01562,-0.75781 0.25,-0.19531 0.25,-0.19922 0.49609,-0.40625 0.97657,-0.83594 0.24218,-0.21875 0.23829,-0.21875 0.47656,-0.44531 0.9414,-0.91797 1.82032,-1.96094 0.10156,-0.12109 0.10547,-0.11719 0.20703,-0.24219 0.40625,-0.48828 0.80859,-1.00391 1.55469,-2.10937 0.0937,-0.13672 0.0977,-0.13672 0.1875,-0.27344 0.37109,-0.55859 0.73438,-1.13672 1.41015,-2.375 0.0859,-0.14844 0.082,-0.14843 0.16797,-0.30469 0.32812,-0.60938 0.64454,-1.23828 1.23828,-2.57812 0.14843,-0.32813 0.14844,-0.33203 0.29297,-0.67187 0.57031,-1.35938 1.08594,-2.8125 0.14063,-0.39062 0.14062,-0.39453 0.27344,-0.78907 0.53515,-1.60547 0.0664,-0.20312 0.0625,-0.20313 0.12891,-0.41015 0.2539,-0.82422 0.48828,-1.67188 0.11719,-0.42187 0.11719,-0.42578 0.23047,-0.85547 0.4414,-1.73438 0.8125,-3.5625 0.043,-0.21484 0.043,-0.21094 0.0899,-0.42578 0.16796,-0.85547 0.32813,-1.72656 0.15625,-0.875 0.14844,-0.87891 0.28515,-1.78125 0.0312,-0.22265 0.0352,-0.22656 0.0664,-0.44922 0.1289,-0.90625 0.24219,-1.82813 0.0312,-0.23047 0.082,-0.6914 0.10938,-0.92969 0.19921,-1.875 0.0274,-0.26172 0.0273,-0.26562 0.0508,-0.52735 0.0937,-1.0625 0.0234,-0.26953 0.0234,-0.26562 0.043,-0.53516 0.082,-1.07813 0.0391,-0.53906 0.0391,-0.54297 0.0703,-1.08984 0.0156,-0.27344 0.0156,-0.27734 0.0312,-0.54688 0.0547,-1.10547 0.0156,-0.27734 0.0469,-1.10937 0.0117,-0.28125 0.0195,-0.5586 0.0117,-0.27734 0.0234,-0.84375 0.0117,-0.28125 0.004,-0.28125 0.0156,-0.56641 0.008,-0.28125 0.004,-0.28515 0.008,-0.28516 0.004,-0.28516 0.004,-0.28125 0.008,-0.57031 0.004,-0.28906 0.008,-0.57031 0,-0.28907 0.004,-0.28515 0,-0.57422 0.004,-0.28906 0,-0.28907"
           style="fill:none;stroke:#fd0000;stroke-width:5.35820913;stroke-linecap:butt;stroke-linejoin:miter;stroke-miterlimit:3.25;stroke-opacity:1"
           inkscape:connector-curvature="0" />
        <path
           id="path4178"
           transform="translate(-74,-13)"
           d="m 342.80469,269.58203 z m 0,0"
           style="fill:none;stroke:#fd0000;stroke-width:0.03;stroke-linecap:square;stroke-linejoin:miter;stroke-miterlimit:3.25;stroke-opacity:1"
           inkscape:connector-curvature="0" />
        <path
           id="path4180"
           transform="translate(-74,-13)"
           d="m 309.34375,136.33203 z m 0,0"
           style="fill:none;stroke:#fd0000;stroke-width:0.03;stroke-linecap:square;stroke-linejoin:miter;stroke-miterlimit:3.25;stroke-opacity:1"
           inkscape:connector-curvature="0" />
        <path
           id="path4182"
           transform="translate(-74,-13)"
           d="m 274.49219,109.37891 0.73828,-2.26563 1.92578,-5.27734 1.26953,-3.062502 1.41016,-2.96875 1.48828,-2.589844 1.51953,-1.925781 1.71875,-1.410157 2.51172,-1.542968 2.99609,-1.574219 3.15625,-1.511719 5.54688,-2.429687 2.41406,-0.984375 -64.91016,-35.679688 z m 0,0"
           style="fill:#fd0000;fill-opacity:1;fill-rule:nonzero;stroke:#fd0000;stroke-width:0.03;stroke-linecap:square;stroke-linejoin:miter;stroke-miterlimit:3.25;stroke-opacity:1"
           inkscape:connector-curvature="0" />
        <path
           id="path4184"
           transform="translate(-74,-13)"
           d="m 164.19531,115.16016 z m 0,0"
           style="fill:none;stroke:#fd0000;stroke-width:0.03;stroke-linecap:square;stroke-linejoin:miter;stroke-miterlimit:3.25;stroke-opacity:1"
           inkscape:connector-curvature="0" />
        <path
           id="path4186"
           transform="translate(-74,-13)"
           d="m 193.76172,240.33203 z m 0,0"
           style="fill:none;stroke:#fd0000;stroke-width:0.03;stroke-linecap:square;stroke-linejoin:miter;stroke-miterlimit:3.25;stroke-opacity:1"
           inkscape:connector-curvature="0" />
        <path
           id="path4188"
           transform="translate(-74,-13)"
           d="m 232.46875,275.64453 -0.73828,2.26172 -1.91797,5.28125 -1.27344,3.0625 -1.40625,2.96875 -1.48828,2.58984 -1.51562,1.92969 -1.71485,1.41016 -2.51562,1.54687 -2.99219,1.57813 -3.16016,1.50781 -5.54297,2.43359 -2.41015,0.98438 64.92969,35.64062 z m 0,0"
           style="fill:#fd0000;fill-opacity:1;fill-rule:nonzero;stroke:#fd0000;stroke-width:0.03;stroke-linecap:square;stroke-linejoin:miter;stroke-miterlimit:3.25;stroke-opacity:1"
           inkscape:connector-curvature="0" />
        <path
           id="path4190"
           transform="translate(-74,-13)"
           d="m 342.80469,269.83984 z m 0,0"
           style="fill:none;stroke:#fd0000;stroke-width:0.03;stroke-linecap:square;stroke-linejoin:miter;stroke-miterlimit:3.25;stroke-opacity:1"
           inkscape:connector-curvature="0" />
        <path
           id="path4192"
           transform="translate(-74,-13)"
           d="m 74.894531,192.5 357.210939,0"
           style="fill:none;stroke:#000000;stroke-width:1.78606999;stroke-linecap:butt;stroke-linejoin:miter;stroke-miterlimit:3.25;stroke-opacity:1"
           inkscape:connector-curvature="0" />
        <path
           id="path4194"
           transform="translate(-74,-13)"
           d="m 253.5,371.10547 0,-357.210939"
           style="fill:none;stroke:#000000;stroke-width:1.78606999;stroke-linecap:butt;stroke-linejoin:miter;stroke-miterlimit:3.25;stroke-opacity:1"
           inkscape:connector-curvature="0" />
      </g>
      <g
         id="surface35"
         transform="translate(-287.0319,-282.22535)">
        <path
           id="path4216"
           d="m 285.19565,-20.714756 -32.42187,56.160157 0,0.0039 -0.004,0.0039 -0.008,0.01172 -0.0312,0.05469 -0.12891,0.222657 -0.50781,0.878906 -2.25391,3.90625 -3.5,6.0625 -4.68359,8.109375 -6.39844,11.085937 -7.11719,12.324219 -8.82812,15.289063 -9.64453,16.707032 -9.72266,16.83984 -11.16015,19.33203 -10.83204,18.75782 -10.83593,18.76562 -11.8125,20.46094 -10.89453,18.875 -11.48047,19.88281 -10.73828,18.59766 -9.375,16.24218 -9.30469,16.11329 -7.734383,13.39453 -7.19922,12.47265 -5.7539,9.96485 -4.10156,7.10547 -2.9961,5.1875 -1.38672,2.40234 -0.0117,0.0195 -0.008,0.0156 -0.0195,0.0351 -0.0352,0.0586 -0.0547,0.0937 -0.004,0.0117 -0.008,0.008 -0.008,0.0156 -0.0156,0.0234 0,0.004 -0.004,0.004 -0.004,0.008 0,0.004 -0.004,0 0,0.004 0,-0.004 0.004,0 0.008,-0.0117 0.0273,-0.0508 0.1211,-0.21094 0.0234,-0.0391 0.0234,-0.043 0.0547,-0.0937 0.125,-0.21484 0.32422,-0.5586 0.9375,-1.6289 2.77734,-4.8086 4.47657,-7.7539 5.80078,-10.04297 6.57422,-11.39453 8.289063,-14.35156 8.6914,-15.0586 9.28907,-16.08984 10.77734,-18.66406 10.54688,-18.26954 11.77734,-20.39843 11.14453,-19.30078 10.88672,-18.85938 11.57812,-20.05078 10.41407,-18.03906 10.66406,-18.47266 9.66797,-16.742186 1.17969,-2.046875"
           style="fill:none;stroke:#00d341;stroke-width:5.35820913;stroke-linecap:butt;stroke-linejoin:miter;stroke-miterlimit:3.25;stroke-opacity:1"
           inkscape:connector-curvature="0" />
        <path
           id="path4218"
           d="m 119.4812,304.7384 -2.3789,-0.16407 -5.58594,-0.57812 -3.28125,-0.48828 -3.22266,-0.64453 -2.87109,-0.8125 -2.242193,-1.00391 -1.78515,-1.32031 -2.10938,-2.0625 -2.25781,-2.51953 -2.23438,-2.69532 -3.70703,-4.78906 -1.53906,-2.09766 -18.78906,71.64454 z m 0,0"
           style="fill:#00d341;fill-opacity:0.96470588;fill-rule:nonzero;stroke:#00d341;stroke-width:0.03;stroke-linecap:square;stroke-linejoin:miter;stroke-miterlimit:3.25;stroke-opacity:1"
           inkscape:connector-curvature="0" />
        <path
           id="path4220"
           d="m 238.57845,22.606344 2.375,0.160156 5.58984,0.582031 3.27735,0.488282 3.22265,0.644531 2.875,0.8125 2.23829,1 1.78906,1.324219 2.10547,2.0625 2.25781,2.519531 2.23437,2.695311 3.70704,4.78906 1.54296,2.09766 18.78907,-71.648437 z m 0,0"
           style="fill:#00d341;fill-opacity:0.96470588;fill-rule:nonzero;stroke:#00d341;stroke-width:0.03;stroke-linecap:square;stroke-linejoin:miter;stroke-miterlimit:3.25;stroke-opacity:1"
           inkscape:connector-curvature="0" />
        <path
           id="path4222"
           d="m 0.894531,162.71307 357.210939,0"
           style="fill:none;stroke:#000000;stroke-width:1.78606999;stroke-linecap:butt;stroke-linejoin:miter;stroke-miterlimit:3.25;stroke-opacity:1"
           inkscape:connector-curvature="0" />
        <path
           id="path4224"
           d="m 179.5,341.31854 0,-357.210938"
           style="fill:none;stroke:#000000;stroke-width:1.78606999;stroke-linecap:butt;stroke-linejoin:miter;stroke-miterlimit:3.25;stroke-opacity:1"
           inkscape:connector-curvature="0" />
      </g>
    </g>
  </g>
</svg>
