<?xml version="1.0" encoding="utf-8" standalone="no"?>
<!DOCTYPE svg PUBLIC "-//W3C//DTD SVG 1.1//EN"
  "http://www.w3.org/Graphics/SVG/1.1/DTD/svg11.dtd">
<!-- Created with matplotlib (http://matplotlib.org/) -->
<svg height="288pt" version="1.1" viewBox="0 0 432 288" width="432pt" xmlns="http://www.w3.org/2000/svg" xmlns:xlink="http://www.w3.org/1999/xlink">
 <defs>
  <style type="text/css">
*{stroke-linecap:butt;stroke-linejoin:round;stroke-miterlimit:100000;}
  </style>
 </defs>
 <g id="figure_1">
  <g id="patch_1">
   <path d="M 0 288 
L 432 288 
L 432 0 
L 0 0 
z
" style="fill:#ffffff;"/>
  </g>
  <g id="axes_1">
   <g id="patch_2">
    <path d="M 54 252 
L 388.8 252 
L 388.8 28.8 
L 54 28.8 
z
" style="fill:#ffffff;"/>
   </g>
   <g id="LineCollection_1">
    <path clip-path="url(#pab20a363e8)" d="M 63.401651 54.919658 
L 63.401651 50.812765 
" style="fill:none;stroke:#ff0000;"/>
    <path clip-path="url(#pab20a363e8)" d="M 88.511651 84.853675 
L 88.511651 80.762841 
" style="fill:none;stroke:#ff0000;"/>
    <path clip-path="url(#pab20a363e8)" d="M 113.621651 115.05251 
L 113.621651 110.968871 
" style="fill:none;stroke:#ff0000;"/>
    <path clip-path="url(#pab20a363e8)" d="M 138.731651 148.149854 
L 138.731651 144.067635 
" style="fill:none;stroke:#ff0000;"/>
    <path clip-path="url(#pab20a363e8)" d="M 163.841651 176.886123 
L 163.841651 172.820752 
" style="fill:none;stroke:#ff0000;"/>
    <path clip-path="url(#pab20a363e8)" d="M 188.951651 208.759377 
L 188.951651 204.710314 
" style="fill:none;stroke:#ff0000;"/>
    <path clip-path="url(#pab20a363e8)" d="M 214.061651 234.838363 
L 214.061651 231.018042 
" style="fill:none;stroke:#ff0000;"/>
    <path clip-path="url(#pab20a363e8)" d="M 239.171651 227.356043 
L 239.171651 223.555015 
" style="fill:none;stroke:#ff0000;"/>
    <path clip-path="url(#pab20a363e8)" d="M 264.281651 198.245387 
L 264.281651 194.272599 
" style="fill:none;stroke:#ff0000;"/>
    <path clip-path="url(#pab20a363e8)" d="M 289.391651 166.964709 
L 289.391651 162.952327 
" style="fill:none;stroke:#ff0000;"/>
    <path clip-path="url(#pab20a363e8)" d="M 314.501651 135.543395 
L 314.501651 131.508588 
" style="fill:none;stroke:#ff0000;"/>
    <path clip-path="url(#pab20a363e8)" d="M 339.611651 105.277559 
L 339.611651 101.225782 
" style="fill:none;stroke:#ff0000;"/>
    <path clip-path="url(#pab20a363e8)" d="M 364.721651 72.528658 
L 364.721651 68.463739 
" style="fill:none;stroke:#ff0000;"/>
   </g>
   <g id="line2d_1">
    <path clip-path="url(#pab20a363e8)" d="M 54 39.438765 
L 94.886486 91.056865 
L 143.481081 152.779362 
L 212.183784 240.440213 
L 221.232432 252 
L 221.567568 252 
L 313.394595 134.867847 
L 362.324324 72.825348 
L 388.8 39.438765 
L 388.8 39.438765 
" style="fill:none;stroke:#0000ff;stroke-linecap:square;"/>
   </g>
   <g id="line2d_2">
    <defs>
     <path d="M 3 0 
L -3 -0 
" id="m6b7aface9d" style="stroke:#ff0000;stroke-width:0.5;"/>
    </defs>
    <g clip-path="url(#pab20a363e8)">
     <use style="fill:#ff0000;stroke:#ff0000;stroke-width:0.5;" x="63.4016512793" xlink:href="#m6b7aface9d" y="54.9196577213"/>
     <use style="fill:#ff0000;stroke:#ff0000;stroke-width:0.5;" x="88.5116512793" xlink:href="#m6b7aface9d" y="84.8536752187"/>
     <use style="fill:#ff0000;stroke:#ff0000;stroke-width:0.5;" x="113.621651279" xlink:href="#m6b7aface9d" y="115.052509533"/>
     <use style="fill:#ff0000;stroke:#ff0000;stroke-width:0.5;" x="138.731651279" xlink:href="#m6b7aface9d" y="148.149854392"/>
     <use style="fill:#ff0000;stroke:#ff0000;stroke-width:0.5;" x="163.841651279" xlink:href="#m6b7aface9d" y="176.886122828"/>
     <use style="fill:#ff0000;stroke:#ff0000;stroke-width:0.5;" x="188.951651279" xlink:href="#m6b7aface9d" y="208.759376721"/>
     <use style="fill:#ff0000;stroke:#ff0000;stroke-width:0.5;" x="214.061651279" xlink:href="#m6b7aface9d" y="234.838362836"/>
     <use style="fill:#ff0000;stroke:#ff0000;stroke-width:0.5;" x="239.171651279" xlink:href="#m6b7aface9d" y="227.356042623"/>
     <use style="fill:#ff0000;stroke:#ff0000;stroke-width:0.5;" x="264.281651279" xlink:href="#m6b7aface9d" y="198.245387304"/>
     <use style="fill:#ff0000;stroke:#ff0000;stroke-width:0.5;" x="289.391651279" xlink:href="#m6b7aface9d" y="166.964709475"/>
     <use style="fill:#ff0000;stroke:#ff0000;stroke-width:0.5;" x="314.501651279" xlink:href="#m6b7aface9d" y="135.543394921"/>
     <use style="fill:#ff0000;stroke:#ff0000;stroke-width:0.5;" x="339.611651279" xlink:href="#m6b7aface9d" y="105.277559008"/>
     <use style="fill:#ff0000;stroke:#ff0000;stroke-width:0.5;" x="364.721651279" xlink:href="#m6b7aface9d" y="72.5286577197"/>
    </g>
   </g>
   <g id="line2d_3">
    <g clip-path="url(#pab20a363e8)">
     <use style="fill:#ff0000;stroke:#ff0000;stroke-width:0.5;" x="63.4016512793" xlink:href="#m6b7aface9d" y="50.8127649422"/>
     <use style="fill:#ff0000;stroke:#ff0000;stroke-width:0.5;" x="88.5116512793" xlink:href="#m6b7aface9d" y="80.7628406207"/>
     <use style="fill:#ff0000;stroke:#ff0000;stroke-width:0.5;" x="113.621651279" xlink:href="#m6b7aface9d" y="110.968870665"/>
     <use style="fill:#ff0000;stroke:#ff0000;stroke-width:0.5;" x="138.731651279" xlink:href="#m6b7aface9d" y="144.067635174"/>
     <use style="fill:#ff0000;stroke:#ff0000;stroke-width:0.5;" x="163.841651279" xlink:href="#m6b7aface9d" y="172.820751707"/>
     <use style="fill:#ff0000;stroke:#ff0000;stroke-width:0.5;" x="188.951651279" xlink:href="#m6b7aface9d" y="204.710314146"/>
     <use style="fill:#ff0000;stroke:#ff0000;stroke-width:0.5;" x="214.061651279" xlink:href="#m6b7aface9d" y="231.018042331"/>
     <use style="fill:#ff0000;stroke:#ff0000;stroke-width:0.5;" x="239.171651279" xlink:href="#m6b7aface9d" y="223.555015272"/>
     <use style="fill:#ff0000;stroke:#ff0000;stroke-width:0.5;" x="264.281651279" xlink:href="#m6b7aface9d" y="194.272598544"/>
     <use style="fill:#ff0000;stroke:#ff0000;stroke-width:0.5;" x="289.391651279" xlink:href="#m6b7aface9d" y="162.952327305"/>
     <use style="fill:#ff0000;stroke:#ff0000;stroke-width:0.5;" x="314.501651279" xlink:href="#m6b7aface9d" y="131.508587529"/>
     <use style="fill:#ff0000;stroke:#ff0000;stroke-width:0.5;" x="339.611651279" xlink:href="#m6b7aface9d" y="101.22578236"/>
     <use style="fill:#ff0000;stroke:#ff0000;stroke-width:0.5;" x="364.721651279" xlink:href="#m6b7aface9d" y="68.4637390132"/>
    </g>
   </g>
   <g id="line2d_4">
    <defs>
     <path d="M 0 1.5 
C 0.397805 1.5 0.77937 1.341951 1.06066 1.06066 
C 1.341951 0.77937 1.5 0.397805 1.5 0 
C 1.5 -0.397805 1.341951 -0.77937 1.06066 -1.06066 
C 0.77937 -1.341951 0.397805 -1.5 0 -1.5 
C -0.397805 -1.5 -0.77937 -1.341951 -1.06066 -1.06066 
C -1.341951 -0.77937 -1.5 -0.397805 -1.5 0 
C -1.5 0.397805 -1.341951 0.77937 -1.06066 1.06066 
C -0.77937 1.341951 -0.397805 1.5 0 1.5 
z
" id="mc2d91b8bab" style="stroke:#ff0000;stroke-width:0.5;"/>
    </defs>
    <g clip-path="url(#pab20a363e8)">
     <use style="fill:#ff0000;stroke:#ff0000;stroke-width:0.5;" x="63.4016512793" xlink:href="#mc2d91b8bab" y="52.8662113318"/>
     <use style="fill:#ff0000;stroke:#ff0000;stroke-width:0.5;" x="88.5116512793" xlink:href="#mc2d91b8bab" y="82.8082579197"/>
     <use style="fill:#ff0000;stroke:#ff0000;stroke-width:0.5;" x="113.621651279" xlink:href="#mc2d91b8bab" y="113.010690099"/>
     <use style="fill:#ff0000;stroke:#ff0000;stroke-width:0.5;" x="138.731651279" xlink:href="#mc2d91b8bab" y="146.108744783"/>
     <use style="fill:#ff0000;stroke:#ff0000;stroke-width:0.5;" x="163.841651279" xlink:href="#mc2d91b8bab" y="174.853437268"/>
     <use style="fill:#ff0000;stroke:#ff0000;stroke-width:0.5;" x="188.951651279" xlink:href="#mc2d91b8bab" y="206.734845434"/>
     <use style="fill:#ff0000;stroke:#ff0000;stroke-width:0.5;" x="214.061651279" xlink:href="#mc2d91b8bab" y="232.928202584"/>
     <use style="fill:#ff0000;stroke:#ff0000;stroke-width:0.5;" x="239.171651279" xlink:href="#mc2d91b8bab" y="225.455528948"/>
     <use style="fill:#ff0000;stroke:#ff0000;stroke-width:0.5;" x="264.281651279" xlink:href="#mc2d91b8bab" y="196.258992924"/>
     <use style="fill:#ff0000;stroke:#ff0000;stroke-width:0.5;" x="289.391651279" xlink:href="#mc2d91b8bab" y="164.95851839"/>
     <use style="fill:#ff0000;stroke:#ff0000;stroke-width:0.5;" x="314.501651279" xlink:href="#mc2d91b8bab" y="133.525991225"/>
     <use style="fill:#ff0000;stroke:#ff0000;stroke-width:0.5;" x="339.611651279" xlink:href="#mc2d91b8bab" y="103.251670684"/>
     <use style="fill:#ff0000;stroke:#ff0000;stroke-width:0.5;" x="364.721651279" xlink:href="#mc2d91b8bab" y="70.4961983664"/>
    </g>
   </g>
   <g id="line2d_5">
    <path clip-path="url(#pab20a363e8)" d="M -1285.2 -973.11009 
" style="fill:none;opacity:0.25;stroke:#000000;stroke-linecap:square;"/>
   </g>
   <g id="patch_3">
    <path d="M 54 28.8 
L 388.8 28.8 
" style="fill:none;stroke:#000000;stroke-linecap:square;stroke-linejoin:miter;"/>
   </g>
   <g id="patch_4">
    <path d="M 388.8 252 
L 388.8 28.8 
" style="fill:none;stroke:#000000;stroke-linecap:square;stroke-linejoin:miter;"/>
   </g>
   <g id="patch_5">
    <path d="M 54 252 
L 54 28.8 
" style="fill:none;stroke:#000000;stroke-linecap:square;stroke-linejoin:miter;"/>
   </g>
   <g id="patch_6">
    <path d="M 54 252 
L 388.8 252 
" style="fill:none;stroke:#000000;stroke-linecap:square;stroke-linejoin:miter;"/>
   </g>
   <g id="matplotlib.axis_1">
    <g id="xtick_1">
     <g id="line2d_6">
      <defs>
       <path d="M 0 0 
L 0 -7 
" id="mcd32c4b59c" style="stroke:#000000;stroke-width:1.5;"/>
      </defs>
      <g>
       <use style="stroke:#000000;stroke-width:1.5;" x="54.0" xlink:href="#mcd32c4b59c" y="252.0"/>
      </g>
     </g>
     <g id="text_1">
      <!-- 40 -->
      <defs>
       <path d="M 37.796875 64.3125 
L 12.890625 25.390625 
L 37.796875 25.390625 
z
M 35.203125 72.90625 
L 47.609375 72.90625 
L 47.609375 25.390625 
L 58.015625 25.390625 
L 58.015625 17.1875 
L 47.609375 17.1875 
L 47.609375 0 
L 37.796875 0 
L 37.796875 17.1875 
L 4.890625 17.1875 
L 4.890625 26.703125 
z
" id="BitstreamVeraSans-Roman-34"/>
       <path d="M 31.78125 66.40625 
Q 24.171875 66.40625 20.328125 58.90625 
Q 16.5 51.421875 16.5 36.375 
Q 16.5 21.390625 20.328125 13.890625 
Q 24.171875 6.390625 31.78125 6.390625 
Q 39.453125 6.390625 43.28125 13.890625 
Q 47.125 21.390625 47.125 36.375 
Q 47.125 51.421875 43.28125 58.90625 
Q 39.453125 66.40625 31.78125 66.40625 
M 31.78125 74.21875 
Q 44.046875 74.21875 50.515625 64.515625 
Q 56.984375 54.828125 56.984375 36.375 
Q 56.984375 17.96875 50.515625 8.265625 
Q 44.046875 -1.421875 31.78125 -1.421875 
Q 19.53125 -1.421875 13.0625 8.265625 
Q 6.59375 17.96875 6.59375 36.375 
Q 6.59375 54.828125 13.0625 64.515625 
Q 19.53125 74.21875 31.78125 74.21875 
" id="BitstreamVeraSans-Roman-30"/>
      </defs>
      <g transform="translate(45.0925 266.6378125)scale(0.14 -0.14)">
       <use xlink:href="#BitstreamVeraSans-Roman-34"/>
       <use x="63.623046875" xlink:href="#BitstreamVeraSans-Roman-30"/>
      </g>
     </g>
    </g>
    <g id="xtick_2">
     <g id="line2d_7">
      <g>
       <use style="stroke:#000000;stroke-width:1.5;" x="120.96" xlink:href="#mcd32c4b59c" y="252.0"/>
      </g>
     </g>
     <g id="text_2">
      <!-- 42 -->
      <defs>
       <path d="M 19.1875 8.296875 
L 53.609375 8.296875 
L 53.609375 0 
L 7.328125 0 
L 7.328125 8.296875 
Q 12.9375 14.109375 22.625 23.890625 
Q 32.328125 33.6875 34.8125 36.53125 
Q 39.546875 41.84375 41.421875 45.53125 
Q 43.3125 49.21875 43.3125 52.78125 
Q 43.3125 58.59375 39.234375 62.25 
Q 35.15625 65.921875 28.609375 65.921875 
Q 23.96875 65.921875 18.8125 64.3125 
Q 13.671875 62.703125 7.8125 59.421875 
L 7.8125 69.390625 
Q 13.765625 71.78125 18.9375 73 
Q 24.125 74.21875 28.421875 74.21875 
Q 39.75 74.21875 46.484375 68.546875 
Q 53.21875 62.890625 53.21875 53.421875 
Q 53.21875 48.921875 51.53125 44.890625 
Q 49.859375 40.875 45.40625 35.40625 
Q 44.1875 33.984375 37.640625 27.21875 
Q 31.109375 20.453125 19.1875 8.296875 
" id="BitstreamVeraSans-Roman-32"/>
      </defs>
      <g transform="translate(112.0525 266.6378125)scale(0.14 -0.14)">
       <use xlink:href="#BitstreamVeraSans-Roman-34"/>
       <use x="63.623046875" xlink:href="#BitstreamVeraSans-Roman-32"/>
      </g>
     </g>
    </g>
    <g id="xtick_3">
     <g id="line2d_8">
      <g>
       <use style="stroke:#000000;stroke-width:1.5;" x="187.92" xlink:href="#mcd32c4b59c" y="252.0"/>
      </g>
     </g>
     <g id="text_3">
      <!-- 44 -->
      <g transform="translate(179.0125 266.6378125)scale(0.14 -0.14)">
       <use xlink:href="#BitstreamVeraSans-Roman-34"/>
       <use x="63.623046875" xlink:href="#BitstreamVeraSans-Roman-34"/>
      </g>
     </g>
    </g>
    <g id="xtick_4">
     <g id="line2d_9">
      <g>
       <use style="stroke:#000000;stroke-width:1.5;" x="254.88" xlink:href="#mcd32c4b59c" y="252.0"/>
      </g>
     </g>
     <g id="text_4">
      <!-- 46 -->
      <defs>
       <path d="M 33.015625 40.375 
Q 26.375 40.375 22.484375 35.828125 
Q 18.609375 31.296875 18.609375 23.390625 
Q 18.609375 15.53125 22.484375 10.953125 
Q 26.375 6.390625 33.015625 6.390625 
Q 39.65625 6.390625 43.53125 10.953125 
Q 47.40625 15.53125 47.40625 23.390625 
Q 47.40625 31.296875 43.53125 35.828125 
Q 39.65625 40.375 33.015625 40.375 
M 52.59375 71.296875 
L 52.59375 62.3125 
Q 48.875 64.0625 45.09375 64.984375 
Q 41.3125 65.921875 37.59375 65.921875 
Q 27.828125 65.921875 22.671875 59.328125 
Q 17.53125 52.734375 16.796875 39.40625 
Q 19.671875 43.65625 24.015625 45.921875 
Q 28.375 48.1875 33.59375 48.1875 
Q 44.578125 48.1875 50.953125 41.515625 
Q 57.328125 34.859375 57.328125 23.390625 
Q 57.328125 12.15625 50.6875 5.359375 
Q 44.046875 -1.421875 33.015625 -1.421875 
Q 20.359375 -1.421875 13.671875 8.265625 
Q 6.984375 17.96875 6.984375 36.375 
Q 6.984375 53.65625 15.1875 63.9375 
Q 23.390625 74.21875 37.203125 74.21875 
Q 40.921875 74.21875 44.703125 73.484375 
Q 48.484375 72.75 52.59375 71.296875 
" id="BitstreamVeraSans-Roman-36"/>
      </defs>
      <g transform="translate(245.9725 266.6378125)scale(0.14 -0.14)">
       <use xlink:href="#BitstreamVeraSans-Roman-34"/>
       <use x="63.623046875" xlink:href="#BitstreamVeraSans-Roman-36"/>
      </g>
     </g>
    </g>
    <g id="xtick_5">
     <g id="line2d_10">
      <g>
       <use style="stroke:#000000;stroke-width:1.5;" x="321.84" xlink:href="#mcd32c4b59c" y="252.0"/>
      </g>
     </g>
     <g id="text_5">
      <!-- 48 -->
      <defs>
       <path d="M 31.78125 34.625 
Q 24.75 34.625 20.71875 30.859375 
Q 16.703125 27.09375 16.703125 20.515625 
Q 16.703125 13.921875 20.71875 10.15625 
Q 24.75 6.390625 31.78125 6.390625 
Q 38.8125 6.390625 42.859375 10.171875 
Q 46.921875 13.96875 46.921875 20.515625 
Q 46.921875 27.09375 42.890625 30.859375 
Q 38.875 34.625 31.78125 34.625 
M 21.921875 38.8125 
Q 15.578125 40.375 12.03125 44.71875 
Q 8.5 49.078125 8.5 55.328125 
Q 8.5 64.0625 14.71875 69.140625 
Q 20.953125 74.21875 31.78125 74.21875 
Q 42.671875 74.21875 48.875 69.140625 
Q 55.078125 64.0625 55.078125 55.328125 
Q 55.078125 49.078125 51.53125 44.71875 
Q 48 40.375 41.703125 38.8125 
Q 48.828125 37.15625 52.796875 32.3125 
Q 56.78125 27.484375 56.78125 20.515625 
Q 56.78125 9.90625 50.3125 4.234375 
Q 43.84375 -1.421875 31.78125 -1.421875 
Q 19.734375 -1.421875 13.25 4.234375 
Q 6.78125 9.90625 6.78125 20.515625 
Q 6.78125 27.484375 10.78125 32.3125 
Q 14.796875 37.15625 21.921875 38.8125 
M 18.3125 54.390625 
Q 18.3125 48.734375 21.84375 45.5625 
Q 25.390625 42.390625 31.78125 42.390625 
Q 38.140625 42.390625 41.71875 45.5625 
Q 45.3125 48.734375 45.3125 54.390625 
Q 45.3125 60.0625 41.71875 63.234375 
Q 38.140625 66.40625 31.78125 66.40625 
Q 25.390625 66.40625 21.84375 63.234375 
Q 18.3125 60.0625 18.3125 54.390625 
" id="BitstreamVeraSans-Roman-38"/>
      </defs>
      <g transform="translate(312.9325 266.6378125)scale(0.14 -0.14)">
       <use xlink:href="#BitstreamVeraSans-Roman-34"/>
       <use x="63.623046875" xlink:href="#BitstreamVeraSans-Roman-38"/>
      </g>
     </g>
    </g>
    <g id="xtick_6">
     <g id="line2d_11">
      <g>
       <use style="stroke:#000000;stroke-width:1.5;" x="388.8" xlink:href="#mcd32c4b59c" y="252.0"/>
      </g>
     </g>
     <g id="text_6">
      <!-- 50 -->
      <defs>
       <path d="M 10.796875 72.90625 
L 49.515625 72.90625 
L 49.515625 64.59375 
L 19.828125 64.59375 
L 19.828125 46.734375 
Q 21.96875 47.46875 24.109375 47.828125 
Q 26.265625 48.1875 28.421875 48.1875 
Q 40.625 48.1875 47.75 41.5 
Q 54.890625 34.8125 54.890625 23.390625 
Q 54.890625 11.625 47.5625 5.09375 
Q 40.234375 -1.421875 26.90625 -1.421875 
Q 22.3125 -1.421875 17.546875 -0.640625 
Q 12.796875 0.140625 7.71875 1.703125 
L 7.71875 11.625 
Q 12.109375 9.234375 16.796875 8.0625 
Q 21.484375 6.890625 26.703125 6.890625 
Q 35.15625 6.890625 40.078125 11.328125 
Q 45.015625 15.765625 45.015625 23.390625 
Q 45.015625 31 40.078125 35.4375 
Q 35.15625 39.890625 26.703125 39.890625 
Q 22.75 39.890625 18.8125 39.015625 
Q 14.890625 38.140625 10.796875 36.28125 
z
" id="BitstreamVeraSans-Roman-35"/>
      </defs>
      <g transform="translate(379.8925 266.6378125)scale(0.14 -0.14)">
       <use xlink:href="#BitstreamVeraSans-Roman-35"/>
       <use x="63.623046875" xlink:href="#BitstreamVeraSans-Roman-30"/>
      </g>
     </g>
    </g>
    <g id="xtick_7">
     <g id="line2d_12">
      <defs>
       <path d="M 0 0 
L 0 -5 
" id="mc5424fba1c" style="stroke:#000000;stroke-width:1.5;"/>
      </defs>
      <g>
       <use style="stroke:#000000;stroke-width:1.5;" x="87.48" xlink:href="#mc5424fba1c" y="252.0"/>
      </g>
     </g>
    </g>
    <g id="xtick_8">
     <g id="line2d_13">
      <g>
       <use style="stroke:#000000;stroke-width:1.5;" x="154.44" xlink:href="#mc5424fba1c" y="252.0"/>
      </g>
     </g>
    </g>
    <g id="xtick_9">
     <g id="line2d_14">
      <g>
       <use style="stroke:#000000;stroke-width:1.5;" x="221.4" xlink:href="#mc5424fba1c" y="252.0"/>
      </g>
     </g>
    </g>
    <g id="xtick_10">
     <g id="line2d_15">
      <g>
       <use style="stroke:#000000;stroke-width:1.5;" x="288.36" xlink:href="#mc5424fba1c" y="252.0"/>
      </g>
     </g>
    </g>
    <g id="xtick_11">
     <g id="line2d_16">
      <g>
       <use style="stroke:#000000;stroke-width:1.5;" x="355.32" xlink:href="#mc5424fba1c" y="252.0"/>
      </g>
     </g>
    </g>
   </g>
   <g id="matplotlib.axis_2">
    <g id="ytick_1">
     <g id="text_7">
      <!-- 0.00 -->
      <defs>
       <path d="M 10.6875 12.40625 
L 21 12.40625 
L 21 0 
L 10.6875 0 
z
" id="BitstreamVeraSans-Roman-2e"/>
      </defs>
      <g transform="translate(18.828125 256.077198483)scale(0.14 -0.14)">
       <use xlink:href="#BitstreamVeraSans-Roman-30"/>
       <use x="63.623046875" xlink:href="#BitstreamVeraSans-Roman-2e"/>
       <use x="95.41015625" xlink:href="#BitstreamVeraSans-Roman-30"/>
       <use x="159.033203125" xlink:href="#BitstreamVeraSans-Roman-30"/>
      </g>
     </g>
    </g>
    <g id="ytick_2">
     <g id="line2d_17">
      <defs>
       <path d="M 0 0 
L 7 0 
" id="m140c09a13f" style="stroke:#000000;stroke-width:1.5;"/>
      </defs>
      <g>
       <use style="stroke:#000000;stroke-width:1.5;" x="54.0" xlink:href="#m140c09a13f" y="190.947865298"/>
      </g>
     </g>
     <g id="line2d_18">
      <defs>
       <path d="M 0 0 
L -7 0 
" id="m8a4f299895" style="stroke:#000000;stroke-width:1.5;"/>
      </defs>
      <g>
       <use style="stroke:#000000;stroke-width:1.5;" x="388.8" xlink:href="#m8a4f299895" y="190.947865298"/>
      </g>
     </g>
     <g id="text_8">
      <!-- 0.05 -->
      <g transform="translate(18.828125 194.810990298)scale(0.14 -0.14)">
       <use xlink:href="#BitstreamVeraSans-Roman-30"/>
       <use x="63.623046875" xlink:href="#BitstreamVeraSans-Roman-2e"/>
       <use x="95.41015625" xlink:href="#BitstreamVeraSans-Roman-30"/>
       <use x="159.033203125" xlink:href="#BitstreamVeraSans-Roman-35"/>
      </g>
     </g>
    </g>
    <g id="ytick_3">
     <g id="line2d_19">
      <g>
       <use style="stroke:#000000;stroke-width:1.5;" x="54.0" xlink:href="#m140c09a13f" y="129.681657112"/>
      </g>
     </g>
     <g id="line2d_20">
      <g>
       <use style="stroke:#000000;stroke-width:1.5;" x="388.8" xlink:href="#m8a4f299895" y="129.681657112"/>
      </g>
     </g>
     <g id="text_9">
      <!-- 0.10 -->
      <defs>
       <path d="M 12.40625 8.296875 
L 28.515625 8.296875 
L 28.515625 63.921875 
L 10.984375 60.40625 
L 10.984375 69.390625 
L 28.421875 72.90625 
L 38.28125 72.90625 
L 38.28125 8.296875 
L 54.390625 8.296875 
L 54.390625 0 
L 12.40625 0 
z
" id="BitstreamVeraSans-Roman-31"/>
      </defs>
      <g transform="translate(18.828125 133.544782112)scale(0.14 -0.14)">
       <use xlink:href="#BitstreamVeraSans-Roman-30"/>
       <use x="63.623046875" xlink:href="#BitstreamVeraSans-Roman-2e"/>
       <use x="95.41015625" xlink:href="#BitstreamVeraSans-Roman-31"/>
       <use x="159.033203125" xlink:href="#BitstreamVeraSans-Roman-30"/>
      </g>
     </g>
    </g>
    <g id="ytick_4">
     <g id="line2d_21">
      <g>
       <use style="stroke:#000000;stroke-width:1.5;" x="54.0" xlink:href="#m140c09a13f" y="68.4154489269"/>
      </g>
     </g>
     <g id="line2d_22">
      <g>
       <use style="stroke:#000000;stroke-width:1.5;" x="388.8" xlink:href="#m8a4f299895" y="68.4154489269"/>
      </g>
     </g>
     <g id="text_10">
      <!-- 0.15 -->
      <g transform="translate(18.828125 72.2785739269)scale(0.14 -0.14)">
       <use xlink:href="#BitstreamVeraSans-Roman-30"/>
       <use x="63.623046875" xlink:href="#BitstreamVeraSans-Roman-2e"/>
       <use x="95.41015625" xlink:href="#BitstreamVeraSans-Roman-31"/>
       <use x="159.033203125" xlink:href="#BitstreamVeraSans-Roman-35"/>
      </g>
     </g>
    </g>
    <g id="ytick_5">
     <g id="line2d_23">
      <defs>
       <path d="M 0 0 
L 5 0 
" id="m695717470b" style="stroke:#000000;stroke-width:1.5;"/>
      </defs>
      <g>
       <use style="stroke:#000000;stroke-width:1.5;" x="54.0" xlink:href="#m695717470b" y="221.58096939"/>
      </g>
     </g>
     <g id="line2d_24">
      <defs>
       <path d="M 0 0 
L -5 0 
" id="m31730c8c6e" style="stroke:#000000;stroke-width:1.5;"/>
      </defs>
      <g>
       <use style="stroke:#000000;stroke-width:1.5;" x="388.8" xlink:href="#m31730c8c6e" y="221.58096939"/>
      </g>
     </g>
    </g>
    <g id="ytick_6">
     <g id="line2d_25">
      <g>
       <use style="stroke:#000000;stroke-width:1.5;" x="54.0" xlink:href="#m695717470b" y="160.314761205"/>
      </g>
     </g>
     <g id="line2d_26">
      <g>
       <use style="stroke:#000000;stroke-width:1.5;" x="388.8" xlink:href="#m31730c8c6e" y="160.314761205"/>
      </g>
     </g>
    </g>
    <g id="ytick_7">
     <g id="line2d_27">
      <g>
       <use style="stroke:#000000;stroke-width:1.5;" x="54.0" xlink:href="#m695717470b" y="99.0485530196"/>
      </g>
     </g>
     <g id="line2d_28">
      <g>
       <use style="stroke:#000000;stroke-width:1.5;" x="388.8" xlink:href="#m31730c8c6e" y="99.0485530196"/>
      </g>
     </g>
    </g>
    <g id="ytick_8">
     <g id="line2d_29">
      <g>
       <use style="stroke:#000000;stroke-width:1.5;" x="54.0" xlink:href="#m695717470b" y="68.4154489269"/>
      </g>
     </g>
     <g id="line2d_30">
      <g>
       <use style="stroke:#000000;stroke-width:1.5;" x="388.8" xlink:href="#m31730c8c6e" y="68.4154489269"/>
      </g>
     </g>
    </g>
    <g id="ytick_9">
     <g id="line2d_31">
      <g>
       <use style="stroke:#000000;stroke-width:1.5;" x="54.0" xlink:href="#m695717470b" y="37.7823448342"/>
      </g>
     </g>
     <g id="line2d_32">
      <g>
       <use style="stroke:#000000;stroke-width:1.5;" x="388.8" xlink:href="#m31730c8c6e" y="37.7823448342"/>
      </g>
     </g>
    </g>
   </g>
  </g>
 </g>
 <defs>
  <clipPath id="pab20a363e8">
   <rect height="223.2" width="334.8" x="54.0" y="28.8"/>
  </clipPath>
 </defs>
</svg>
