<?xml version="1.0" encoding="utf-8" standalone="no"?>
<!DOCTYPE svg PUBLIC "-//W3C//DTD SVG 1.1//EN"
  "http://www.w3.org/Graphics/SVG/1.1/DTD/svg11.dtd">
<!-- Created with matplotlib (http://matplotlib.org/) -->
<svg height="288pt" version="1.1" viewBox="0 0 432 288" width="432pt" xmlns="http://www.w3.org/2000/svg" xmlns:xlink="http://www.w3.org/1999/xlink">
 <defs>
  <style type="text/css">
*{stroke-linecap:butt;stroke-linejoin:round;stroke-miterlimit:100000;}
  </style>
 </defs>
 <g id="figure_1">
  <g id="patch_1">
   <path d="M 0 288 
L 432 288 
L 432 0 
L 0 0 
z
" style="fill:#ffffff;"/>
  </g>
  <g id="axes_1">
   <g id="patch_2">
    <path d="M 54 252 
L 388.8 252 
L 388.8 28.8 
L 54 28.8 
z
" style="fill:#ffffff;"/>
   </g>
   <g id="LineCollection_1">
    <path clip-path="url(#p50a69e1538)" d="M 55.152931 41.807578 
L 55.152931 37.702776 
" style="fill:none;stroke:#ff0000;"/>
    <path clip-path="url(#p50a69e1538)" d="M 63.522931 54.919658 
L 63.522931 50.812765 
" style="fill:none;stroke:#ff0000;"/>
    <path clip-path="url(#p50a69e1538)" d="M 71.892931 62.801403 
L 71.892931 58.705155 
" style="fill:none;stroke:#ff0000;"/>
    <path clip-path="url(#p50a69e1538)" d="M 80.262931 74.542331 
L 80.262931 70.445387 
" style="fill:none;stroke:#ff0000;"/>
    <path clip-path="url(#p50a69e1538)" d="M 88.632931 84.853675 
L 88.632931 80.762841 
" style="fill:none;stroke:#ff0000;"/>
    <path clip-path="url(#p50a69e1538)" d="M 97.002931 94.799031 
L 97.002931 90.71135 
" style="fill:none;stroke:#ff0000;"/>
    <path clip-path="url(#p50a69e1538)" d="M 105.372931 105.269245 
L 105.372931 101.184389 
" style="fill:none;stroke:#ff0000;"/>
    <path clip-path="url(#p50a69e1538)" d="M 113.742931 115.05251 
L 113.742931 110.968871 
" style="fill:none;stroke:#ff0000;"/>
    <path clip-path="url(#p50a69e1538)" d="M 122.112931 128.164012 
L 122.112931 124.074023 
" style="fill:none;stroke:#ff0000;"/>
    <path clip-path="url(#p50a69e1538)" d="M 130.482931 137.931619 
L 130.482931 133.846477 
" style="fill:none;stroke:#ff0000;"/>
    <path clip-path="url(#p50a69e1538)" d="M 138.852931 148.149854 
L 138.852931 144.067635 
" style="fill:none;stroke:#ff0000;"/>
    <path clip-path="url(#p50a69e1538)" d="M 147.222931 159.809778 
L 147.222931 155.729753 
" style="fill:none;stroke:#ff0000;"/>
    <path clip-path="url(#p50a69e1538)" d="M 155.592931 168.798645 
L 155.592931 164.724791 
" style="fill:none;stroke:#ff0000;"/>
    <path clip-path="url(#p50a69e1538)" d="M 163.962931 176.886123 
L 163.962931 172.820752 
" style="fill:none;stroke:#ff0000;"/>
    <path clip-path="url(#p50a69e1538)" d="M 172.332931 187.937932 
L 172.332931 183.872021 
" style="fill:none;stroke:#ff0000;"/>
    <path clip-path="url(#p50a69e1538)" d="M 180.702931 198.947868 
L 180.702931 194.884589 
" style="fill:none;stroke:#ff0000;"/>
    <path clip-path="url(#p50a69e1538)" d="M 189.072931 208.759377 
L 189.072931 204.710314 
" style="fill:none;stroke:#ff0000;"/>
    <path clip-path="url(#p50a69e1538)" d="M 197.442931 218.633183 
L 197.442931 214.60854 
" style="fill:none;stroke:#ff0000;"/>
    <path clip-path="url(#p50a69e1538)" d="M 205.812931 227.355001 
L 205.812931 223.394772 
" style="fill:none;stroke:#ff0000;"/>
    <path clip-path="url(#p50a69e1538)" d="M 214.182931 234.838363 
L 214.182931 231.018042 
" style="fill:none;stroke:#ff0000;"/>
    <path clip-path="url(#p50a69e1538)" d="M 222.552931 238.301638 
L 222.552931 234.739952 
" style="fill:none;stroke:#ff0000;"/>
    <path clip-path="url(#p50a69e1538)" d="M 230.922931 234.720595 
L 230.922931 231.079532 
" style="fill:none;stroke:#ff0000;"/>
    <path clip-path="url(#p50a69e1538)" d="M 239.292931 227.356043 
L 239.292931 223.555015 
" style="fill:none;stroke:#ff0000;"/>
    <path clip-path="url(#p50a69e1538)" d="M 247.662931 218.306204 
L 247.662931 214.411241 
" style="fill:none;stroke:#ff0000;"/>
    <path clip-path="url(#p50a69e1538)" d="M 256.032931 208.564822 
L 256.032931 204.623333 
" style="fill:none;stroke:#ff0000;"/>
    <path clip-path="url(#p50a69e1538)" d="M 264.402931 198.245387 
L 264.402931 194.272599 
" style="fill:none;stroke:#ff0000;"/>
    <path clip-path="url(#p50a69e1538)" d="M 272.772931 186.835821 
L 272.772931 182.847928 
" style="fill:none;stroke:#ff0000;"/>
    <path clip-path="url(#p50a69e1538)" d="M 281.142931 177.705165 
L 281.142931 173.703357 
" style="fill:none;stroke:#ff0000;"/>
    <path clip-path="url(#p50a69e1538)" d="M 289.512931 166.964709 
L 289.512931 162.952327 
" style="fill:none;stroke:#ff0000;"/>
    <path clip-path="url(#p50a69e1538)" d="M 297.882931 156.620403 
L 297.882931 152.599807 
" style="fill:none;stroke:#ff0000;"/>
    <path clip-path="url(#p50a69e1538)" d="M 306.252931 145.872571 
L 306.252931 141.845766 
" style="fill:none;stroke:#ff0000;"/>
    <path clip-path="url(#p50a69e1538)" d="M 314.622931 135.543395 
L 314.622931 131.508588 
" style="fill:none;stroke:#ff0000;"/>
    <path clip-path="url(#p50a69e1538)" d="M 322.992931 125.372449 
L 322.992931 121.3321 
" style="fill:none;stroke:#ff0000;"/>
    <path clip-path="url(#p50a69e1538)" d="M 331.362931 115.880011 
L 331.362931 111.834111 
" style="fill:none;stroke:#ff0000;"/>
    <path clip-path="url(#p50a69e1538)" d="M 339.732931 105.277559 
L 339.732931 101.225782 
" style="fill:none;stroke:#ff0000;"/>
    <path clip-path="url(#p50a69e1538)" d="M 348.102931 95.574257 
L 348.102931 91.515891 
" style="fill:none;stroke:#ff0000;"/>
    <path clip-path="url(#p50a69e1538)" d="M 356.472931 83.776832 
L 356.472931 79.715436 
" style="fill:none;stroke:#ff0000;"/>
    <path clip-path="url(#p50a69e1538)" d="M 364.842931 72.528658 
L 364.842931 68.463739 
" style="fill:none;stroke:#ff0000;"/>
    <path clip-path="url(#p50a69e1538)" d="M 373.212931 62.547617 
L 373.212931 58.47703 
" style="fill:none;stroke:#ff0000;"/>
    <path clip-path="url(#p50a69e1538)" d="M 381.582931 53.447299 
L 381.582931 49.372325 
" style="fill:none;stroke:#ff0000;"/>
   </g>
   <g id="line2d_1">
    <path clip-path="url(#p50a69e1538)" d="M 54 39.438765 
L 94.886486 91.056865 
L 143.481081 152.779362 
L 212.183784 240.440213 
L 221.232432 252 
L 221.567568 252 
L 313.394595 134.867847 
L 362.324324 72.825348 
L 388.8 39.438765 
L 388.8 39.438765 
" style="fill:none;stroke:#0000ff;stroke-linecap:square;"/>
   </g>
   <g id="line2d_2">
    <defs>
     <path d="M 3 0 
L -3 -0 
" id="m5cb6962292" style="stroke:#ff0000;stroke-width:0.5;"/>
    </defs>
    <g clip-path="url(#p50a69e1538)">
     <use style="fill:#ff0000;stroke:#ff0000;stroke-width:0.5;" x="55.1529313306" xlink:href="#m5cb6962292" y="41.8075777703"/>
     <use style="fill:#ff0000;stroke:#ff0000;stroke-width:0.5;" x="63.5229313306" xlink:href="#m5cb6962292" y="54.9196577213"/>
     <use style="fill:#ff0000;stroke:#ff0000;stroke-width:0.5;" x="71.8929313306" xlink:href="#m5cb6962292" y="62.8014029345"/>
     <use style="fill:#ff0000;stroke:#ff0000;stroke-width:0.5;" x="80.2629313306" xlink:href="#m5cb6962292" y="74.5423313586"/>
     <use style="fill:#ff0000;stroke:#ff0000;stroke-width:0.5;" x="88.6329313306" xlink:href="#m5cb6962292" y="84.8536752187"/>
     <use style="fill:#ff0000;stroke:#ff0000;stroke-width:0.5;" x="97.0029313306" xlink:href="#m5cb6962292" y="94.7990305293"/>
     <use style="fill:#ff0000;stroke:#ff0000;stroke-width:0.5;" x="105.372931331" xlink:href="#m5cb6962292" y="105.269244742"/>
     <use style="fill:#ff0000;stroke:#ff0000;stroke-width:0.5;" x="113.742931331" xlink:href="#m5cb6962292" y="115.052509533"/>
     <use style="fill:#ff0000;stroke:#ff0000;stroke-width:0.5;" x="122.112931331" xlink:href="#m5cb6962292" y="128.164011657"/>
     <use style="fill:#ff0000;stroke:#ff0000;stroke-width:0.5;" x="130.482931331" xlink:href="#m5cb6962292" y="137.93161894"/>
     <use style="fill:#ff0000;stroke:#ff0000;stroke-width:0.5;" x="138.852931331" xlink:href="#m5cb6962292" y="148.149854392"/>
     <use style="fill:#ff0000;stroke:#ff0000;stroke-width:0.5;" x="147.222931331" xlink:href="#m5cb6962292" y="159.809777702"/>
     <use style="fill:#ff0000;stroke:#ff0000;stroke-width:0.5;" x="155.592931331" xlink:href="#m5cb6962292" y="168.798644639"/>
     <use style="fill:#ff0000;stroke:#ff0000;stroke-width:0.5;" x="163.962931331" xlink:href="#m5cb6962292" y="176.886122828"/>
     <use style="fill:#ff0000;stroke:#ff0000;stroke-width:0.5;" x="172.332931331" xlink:href="#m5cb6962292" y="187.937932291"/>
     <use style="fill:#ff0000;stroke:#ff0000;stroke-width:0.5;" x="180.702931331" xlink:href="#m5cb6962292" y="198.94786789"/>
     <use style="fill:#ff0000;stroke:#ff0000;stroke-width:0.5;" x="189.072931331" xlink:href="#m5cb6962292" y="208.759376721"/>
     <use style="fill:#ff0000;stroke:#ff0000;stroke-width:0.5;" x="197.442931331" xlink:href="#m5cb6962292" y="218.633183061"/>
     <use style="fill:#ff0000;stroke:#ff0000;stroke-width:0.5;" x="205.812931331" xlink:href="#m5cb6962292" y="227.355001473"/>
     <use style="fill:#ff0000;stroke:#ff0000;stroke-width:0.5;" x="214.182931331" xlink:href="#m5cb6962292" y="234.838362836"/>
     <use style="fill:#ff0000;stroke:#ff0000;stroke-width:0.5;" x="222.552931331" xlink:href="#m5cb6962292" y="238.301637901"/>
     <use style="fill:#ff0000;stroke:#ff0000;stroke-width:0.5;" x="230.922931331" xlink:href="#m5cb6962292" y="234.720595413"/>
     <use style="fill:#ff0000;stroke:#ff0000;stroke-width:0.5;" x="239.292931331" xlink:href="#m5cb6962292" y="227.356042623"/>
     <use style="fill:#ff0000;stroke:#ff0000;stroke-width:0.5;" x="247.662931331" xlink:href="#m5cb6962292" y="218.306203669"/>
     <use style="fill:#ff0000;stroke:#ff0000;stroke-width:0.5;" x="256.032931331" xlink:href="#m5cb6962292" y="208.564822272"/>
     <use style="fill:#ff0000;stroke:#ff0000;stroke-width:0.5;" x="264.402931331" xlink:href="#m5cb6962292" y="198.245387304"/>
     <use style="fill:#ff0000;stroke:#ff0000;stroke-width:0.5;" x="272.772931331" xlink:href="#m5cb6962292" y="186.835821028"/>
     <use style="fill:#ff0000;stroke:#ff0000;stroke-width:0.5;" x="281.142931331" xlink:href="#m5cb6962292" y="177.705164645"/>
     <use style="fill:#ff0000;stroke:#ff0000;stroke-width:0.5;" x="289.512931331" xlink:href="#m5cb6962292" y="166.964709475"/>
     <use style="fill:#ff0000;stroke:#ff0000;stroke-width:0.5;" x="297.882931331" xlink:href="#m5cb6962292" y="156.620402556"/>
     <use style="fill:#ff0000;stroke:#ff0000;stroke-width:0.5;" x="306.252931331" xlink:href="#m5cb6962292" y="145.872571253"/>
     <use style="fill:#ff0000;stroke:#ff0000;stroke-width:0.5;" x="314.622931331" xlink:href="#m5cb6962292" y="135.543394921"/>
     <use style="fill:#ff0000;stroke:#ff0000;stroke-width:0.5;" x="322.992931331" xlink:href="#m5cb6962292" y="125.372448596"/>
     <use style="fill:#ff0000;stroke:#ff0000;stroke-width:0.5;" x="331.362931331" xlink:href="#m5cb6962292" y="115.880010689"/>
     <use style="fill:#ff0000;stroke:#ff0000;stroke-width:0.5;" x="339.732931331" xlink:href="#m5cb6962292" y="105.277559008"/>
     <use style="fill:#ff0000;stroke:#ff0000;stroke-width:0.5;" x="348.102931331" xlink:href="#m5cb6962292" y="95.5742565763"/>
     <use style="fill:#ff0000;stroke:#ff0000;stroke-width:0.5;" x="356.472931331" xlink:href="#m5cb6962292" y="83.7768321965"/>
     <use style="fill:#ff0000;stroke:#ff0000;stroke-width:0.5;" x="364.842931331" xlink:href="#m5cb6962292" y="72.5286577197"/>
     <use style="fill:#ff0000;stroke:#ff0000;stroke-width:0.5;" x="373.212931331" xlink:href="#m5cb6962292" y="62.5476165106"/>
     <use style="fill:#ff0000;stroke:#ff0000;stroke-width:0.5;" x="381.582931331" xlink:href="#m5cb6962292" y="53.4472988331"/>
    </g>
   </g>
   <g id="line2d_3">
    <g clip-path="url(#p50a69e1538)">
     <use style="fill:#ff0000;stroke:#ff0000;stroke-width:0.5;" x="55.1529313306" xlink:href="#m5cb6962292" y="37.7027759045"/>
     <use style="fill:#ff0000;stroke:#ff0000;stroke-width:0.5;" x="63.5229313306" xlink:href="#m5cb6962292" y="50.8127649422"/>
     <use style="fill:#ff0000;stroke:#ff0000;stroke-width:0.5;" x="71.8929313306" xlink:href="#m5cb6962292" y="58.7051553296"/>
     <use style="fill:#ff0000;stroke:#ff0000;stroke-width:0.5;" x="80.2629313306" xlink:href="#m5cb6962292" y="70.4453873967"/>
     <use style="fill:#ff0000;stroke:#ff0000;stroke-width:0.5;" x="88.6329313306" xlink:href="#m5cb6962292" y="80.7628406207"/>
     <use style="fill:#ff0000;stroke:#ff0000;stroke-width:0.5;" x="97.0029313306" xlink:href="#m5cb6962292" y="90.7113496015"/>
     <use style="fill:#ff0000;stroke:#ff0000;stroke-width:0.5;" x="105.372931331" xlink:href="#m5cb6962292" y="101.1843891"/>
     <use style="fill:#ff0000;stroke:#ff0000;stroke-width:0.5;" x="113.742931331" xlink:href="#m5cb6962292" y="110.968870665"/>
     <use style="fill:#ff0000;stroke:#ff0000;stroke-width:0.5;" x="122.112931331" xlink:href="#m5cb6962292" y="124.07402267"/>
     <use style="fill:#ff0000;stroke:#ff0000;stroke-width:0.5;" x="130.482931331" xlink:href="#m5cb6962292" y="133.846476536"/>
     <use style="fill:#ff0000;stroke:#ff0000;stroke-width:0.5;" x="138.852931331" xlink:href="#m5cb6962292" y="144.067635174"/>
     <use style="fill:#ff0000;stroke:#ff0000;stroke-width:0.5;" x="147.222931331" xlink:href="#m5cb6962292" y="155.729753044"/>
     <use style="fill:#ff0000;stroke:#ff0000;stroke-width:0.5;" x="155.592931331" xlink:href="#m5cb6962292" y="164.724791289"/>
     <use style="fill:#ff0000;stroke:#ff0000;stroke-width:0.5;" x="163.962931331" xlink:href="#m5cb6962292" y="172.820751707"/>
     <use style="fill:#ff0000;stroke:#ff0000;stroke-width:0.5;" x="172.332931331" xlink:href="#m5cb6962292" y="183.872021008"/>
     <use style="fill:#ff0000;stroke:#ff0000;stroke-width:0.5;" x="180.702931331" xlink:href="#m5cb6962292" y="194.884588537"/>
     <use style="fill:#ff0000;stroke:#ff0000;stroke-width:0.5;" x="189.072931331" xlink:href="#m5cb6962292" y="204.710314146"/>
     <use style="fill:#ff0000;stroke:#ff0000;stroke-width:0.5;" x="197.442931331" xlink:href="#m5cb6962292" y="214.608539905"/>
     <use style="fill:#ff0000;stroke:#ff0000;stroke-width:0.5;" x="205.812931331" xlink:href="#m5cb6962292" y="223.394772052"/>
     <use style="fill:#ff0000;stroke:#ff0000;stroke-width:0.5;" x="214.182931331" xlink:href="#m5cb6962292" y="231.018042331"/>
     <use style="fill:#ff0000;stroke:#ff0000;stroke-width:0.5;" x="222.552931331" xlink:href="#m5cb6962292" y="234.739951676"/>
     <use style="fill:#ff0000;stroke:#ff0000;stroke-width:0.5;" x="230.922931331" xlink:href="#m5cb6962292" y="231.079532298"/>
     <use style="fill:#ff0000;stroke:#ff0000;stroke-width:0.5;" x="239.292931331" xlink:href="#m5cb6962292" y="223.555015272"/>
     <use style="fill:#ff0000;stroke:#ff0000;stroke-width:0.5;" x="247.662931331" xlink:href="#m5cb6962292" y="214.41124083"/>
     <use style="fill:#ff0000;stroke:#ff0000;stroke-width:0.5;" x="256.032931331" xlink:href="#m5cb6962292" y="204.623333304"/>
     <use style="fill:#ff0000;stroke:#ff0000;stroke-width:0.5;" x="264.402931331" xlink:href="#m5cb6962292" y="194.272598544"/>
     <use style="fill:#ff0000;stroke:#ff0000;stroke-width:0.5;" x="272.772931331" xlink:href="#m5cb6962292" y="182.847927988"/>
     <use style="fill:#ff0000;stroke:#ff0000;stroke-width:0.5;" x="281.142931331" xlink:href="#m5cb6962292" y="173.703357406"/>
     <use style="fill:#ff0000;stroke:#ff0000;stroke-width:0.5;" x="289.512931331" xlink:href="#m5cb6962292" y="162.952327305"/>
     <use style="fill:#ff0000;stroke:#ff0000;stroke-width:0.5;" x="297.882931331" xlink:href="#m5cb6962292" y="152.599806656"/>
     <use style="fill:#ff0000;stroke:#ff0000;stroke-width:0.5;" x="306.252931331" xlink:href="#m5cb6962292" y="141.845765703"/>
     <use style="fill:#ff0000;stroke:#ff0000;stroke-width:0.5;" x="314.622931331" xlink:href="#m5cb6962292" y="131.508587529"/>
     <use style="fill:#ff0000;stroke:#ff0000;stroke-width:0.5;" x="322.992931331" xlink:href="#m5cb6962292" y="121.332099717"/>
     <use style="fill:#ff0000;stroke:#ff0000;stroke-width:0.5;" x="331.362931331" xlink:href="#m5cb6962292" y="111.834110983"/>
     <use style="fill:#ff0000;stroke:#ff0000;stroke-width:0.5;" x="339.732931331" xlink:href="#m5cb6962292" y="101.22578236"/>
     <use style="fill:#ff0000;stroke:#ff0000;stroke-width:0.5;" x="348.102931331" xlink:href="#m5cb6962292" y="91.5158905906"/>
     <use style="fill:#ff0000;stroke:#ff0000;stroke-width:0.5;" x="356.472931331" xlink:href="#m5cb6962292" y="79.7154358337"/>
     <use style="fill:#ff0000;stroke:#ff0000;stroke-width:0.5;" x="364.842931331" xlink:href="#m5cb6962292" y="68.4637390132"/>
     <use style="fill:#ff0000;stroke:#ff0000;stroke-width:0.5;" x="373.212931331" xlink:href="#m5cb6962292" y="58.4770297089"/>
     <use style="fill:#ff0000;stroke:#ff0000;stroke-width:0.5;" x="381.582931331" xlink:href="#m5cb6962292" y="49.3723253375"/>
    </g>
   </g>
   <g id="line2d_4">
    <defs>
     <path d="M 0 1.5 
C 0.397805 1.5 0.77937 1.341951 1.06066 1.06066 
C 1.341951 0.77937 1.5 0.397805 1.5 0 
C 1.5 -0.397805 1.341951 -0.77937 1.06066 -1.06066 
C 0.77937 -1.341951 0.397805 -1.5 0 -1.5 
C -0.397805 -1.5 -0.77937 -1.341951 -1.06066 -1.06066 
C -1.341951 -0.77937 -1.5 -0.397805 -1.5 0 
C -1.5 0.397805 -1.341951 0.77937 -1.06066 1.06066 
C -0.77937 1.341951 -0.397805 1.5 0 1.5 
z
" id="m0a2abdaa90" style="stroke:#ff0000;stroke-width:0.5;"/>
    </defs>
    <g clip-path="url(#p50a69e1538)">
     <use style="fill:#ff0000;stroke:#ff0000;stroke-width:0.5;" x="55.1529313306" xlink:href="#m0a2abdaa90" y="39.7551768374"/>
     <use style="fill:#ff0000;stroke:#ff0000;stroke-width:0.5;" x="63.5229313306" xlink:href="#m0a2abdaa90" y="52.8662113318"/>
     <use style="fill:#ff0000;stroke:#ff0000;stroke-width:0.5;" x="71.8929313306" xlink:href="#m0a2abdaa90" y="60.753279132"/>
     <use style="fill:#ff0000;stroke:#ff0000;stroke-width:0.5;" x="80.2629313306" xlink:href="#m0a2abdaa90" y="72.4938593776"/>
     <use style="fill:#ff0000;stroke:#ff0000;stroke-width:0.5;" x="88.6329313306" xlink:href="#m0a2abdaa90" y="82.8082579197"/>
     <use style="fill:#ff0000;stroke:#ff0000;stroke-width:0.5;" x="97.0029313306" xlink:href="#m0a2abdaa90" y="92.7551900654"/>
     <use style="fill:#ff0000;stroke:#ff0000;stroke-width:0.5;" x="105.372931331" xlink:href="#m0a2abdaa90" y="103.226816921"/>
     <use style="fill:#ff0000;stroke:#ff0000;stroke-width:0.5;" x="113.742931331" xlink:href="#m0a2abdaa90" y="113.010690099"/>
     <use style="fill:#ff0000;stroke:#ff0000;stroke-width:0.5;" x="122.112931331" xlink:href="#m0a2abdaa90" y="126.119017164"/>
     <use style="fill:#ff0000;stroke:#ff0000;stroke-width:0.5;" x="130.482931331" xlink:href="#m0a2abdaa90" y="135.889047738"/>
     <use style="fill:#ff0000;stroke:#ff0000;stroke-width:0.5;" x="138.852931331" xlink:href="#m0a2abdaa90" y="146.108744783"/>
     <use style="fill:#ff0000;stroke:#ff0000;stroke-width:0.5;" x="147.222931331" xlink:href="#m0a2abdaa90" y="157.769765373"/>
     <use style="fill:#ff0000;stroke:#ff0000;stroke-width:0.5;" x="155.592931331" xlink:href="#m0a2abdaa90" y="166.761717964"/>
     <use style="fill:#ff0000;stroke:#ff0000;stroke-width:0.5;" x="163.962931331" xlink:href="#m0a2abdaa90" y="174.853437268"/>
     <use style="fill:#ff0000;stroke:#ff0000;stroke-width:0.5;" x="172.332931331" xlink:href="#m0a2abdaa90" y="185.904976649"/>
     <use style="fill:#ff0000;stroke:#ff0000;stroke-width:0.5;" x="180.702931331" xlink:href="#m0a2abdaa90" y="196.916228214"/>
     <use style="fill:#ff0000;stroke:#ff0000;stroke-width:0.5;" x="189.072931331" xlink:href="#m0a2abdaa90" y="206.734845434"/>
     <use style="fill:#ff0000;stroke:#ff0000;stroke-width:0.5;" x="197.442931331" xlink:href="#m0a2abdaa90" y="216.620861483"/>
     <use style="fill:#ff0000;stroke:#ff0000;stroke-width:0.5;" x="205.812931331" xlink:href="#m0a2abdaa90" y="225.374886763"/>
     <use style="fill:#ff0000;stroke:#ff0000;stroke-width:0.5;" x="214.182931331" xlink:href="#m0a2abdaa90" y="232.928202584"/>
     <use style="fill:#ff0000;stroke:#ff0000;stroke-width:0.5;" x="222.552931331" xlink:href="#m0a2abdaa90" y="236.520794788"/>
     <use style="fill:#ff0000;stroke:#ff0000;stroke-width:0.5;" x="230.922931331" xlink:href="#m0a2abdaa90" y="232.900063856"/>
     <use style="fill:#ff0000;stroke:#ff0000;stroke-width:0.5;" x="239.292931331" xlink:href="#m0a2abdaa90" y="225.455528948"/>
     <use style="fill:#ff0000;stroke:#ff0000;stroke-width:0.5;" x="247.662931331" xlink:href="#m0a2abdaa90" y="216.358722249"/>
     <use style="fill:#ff0000;stroke:#ff0000;stroke-width:0.5;" x="256.032931331" xlink:href="#m0a2abdaa90" y="206.594077788"/>
     <use style="fill:#ff0000;stroke:#ff0000;stroke-width:0.5;" x="264.402931331" xlink:href="#m0a2abdaa90" y="196.258992924"/>
     <use style="fill:#ff0000;stroke:#ff0000;stroke-width:0.5;" x="272.772931331" xlink:href="#m0a2abdaa90" y="184.841874508"/>
     <use style="fill:#ff0000;stroke:#ff0000;stroke-width:0.5;" x="281.142931331" xlink:href="#m0a2abdaa90" y="175.704261025"/>
     <use style="fill:#ff0000;stroke:#ff0000;stroke-width:0.5;" x="289.512931331" xlink:href="#m0a2abdaa90" y="164.95851839"/>
     <use style="fill:#ff0000;stroke:#ff0000;stroke-width:0.5;" x="297.882931331" xlink:href="#m0a2abdaa90" y="154.610104606"/>
     <use style="fill:#ff0000;stroke:#ff0000;stroke-width:0.5;" x="306.252931331" xlink:href="#m0a2abdaa90" y="143.859168478"/>
     <use style="fill:#ff0000;stroke:#ff0000;stroke-width:0.5;" x="314.622931331" xlink:href="#m0a2abdaa90" y="133.525991225"/>
     <use style="fill:#ff0000;stroke:#ff0000;stroke-width:0.5;" x="322.992931331" xlink:href="#m0a2abdaa90" y="123.352274156"/>
     <use style="fill:#ff0000;stroke:#ff0000;stroke-width:0.5;" x="331.362931331" xlink:href="#m0a2abdaa90" y="113.857060836"/>
     <use style="fill:#ff0000;stroke:#ff0000;stroke-width:0.5;" x="339.732931331" xlink:href="#m0a2abdaa90" y="103.251670684"/>
     <use style="fill:#ff0000;stroke:#ff0000;stroke-width:0.5;" x="348.102931331" xlink:href="#m0a2abdaa90" y="93.5450735835"/>
     <use style="fill:#ff0000;stroke:#ff0000;stroke-width:0.5;" x="356.472931331" xlink:href="#m0a2abdaa90" y="81.7461340151"/>
     <use style="fill:#ff0000;stroke:#ff0000;stroke-width:0.5;" x="364.842931331" xlink:href="#m0a2abdaa90" y="70.4961983664"/>
     <use style="fill:#ff0000;stroke:#ff0000;stroke-width:0.5;" x="373.212931331" xlink:href="#m0a2abdaa90" y="60.5123231097"/>
     <use style="fill:#ff0000;stroke:#ff0000;stroke-width:0.5;" x="381.582931331" xlink:href="#m0a2abdaa90" y="51.4098120853"/>
    </g>
   </g>
   <g id="line2d_5">
    <path clip-path="url(#p50a69e1538)" d="M -1285.2 -973.11009 
" style="fill:none;opacity:0.25;stroke:#000000;stroke-linecap:square;"/>
   </g>
   <g id="patch_3">
    <path d="M 54 252 
L 388.8 252 
" style="fill:none;stroke:#000000;stroke-linecap:square;stroke-linejoin:miter;"/>
   </g>
   <g id="patch_4">
    <path d="M 54 28.8 
L 388.8 28.8 
" style="fill:none;stroke:#000000;stroke-linecap:square;stroke-linejoin:miter;"/>
   </g>
   <g id="patch_5">
    <path d="M 54 252 
L 54 28.8 
" style="fill:none;stroke:#000000;stroke-linecap:square;stroke-linejoin:miter;"/>
   </g>
   <g id="patch_6">
    <path d="M 388.8 252 
L 388.8 28.8 
" style="fill:none;stroke:#000000;stroke-linecap:square;stroke-linejoin:miter;"/>
   </g>
   <g id="matplotlib.axis_1">
    <g id="xtick_1">
     <g id="line2d_6">
      <defs>
       <path d="M 0 0 
L 0 -7 
" id="mc4f15234ec" style="stroke:#000000;stroke-width:1.5;"/>
      </defs>
      <g>
       <use style="stroke:#000000;stroke-width:1.5;" x="54.0" xlink:href="#mc4f15234ec" y="252.0"/>
      </g>
     </g>
     <g id="text_1">
      <!-- 40 -->
      <defs>
       <path d="M 31.78125 66.40625 
Q 24.171875 66.40625 20.328125 58.90625 
Q 16.5 51.421875 16.5 36.375 
Q 16.5 21.390625 20.328125 13.890625 
Q 24.171875 6.390625 31.78125 6.390625 
Q 39.453125 6.390625 43.28125 13.890625 
Q 47.125 21.390625 47.125 36.375 
Q 47.125 51.421875 43.28125 58.90625 
Q 39.453125 66.40625 31.78125 66.40625 
M 31.78125 74.21875 
Q 44.046875 74.21875 50.515625 64.515625 
Q 56.984375 54.828125 56.984375 36.375 
Q 56.984375 17.96875 50.515625 8.265625 
Q 44.046875 -1.421875 31.78125 -1.421875 
Q 19.53125 -1.421875 13.0625 8.265625 
Q 6.59375 17.96875 6.59375 36.375 
Q 6.59375 54.828125 13.0625 64.515625 
Q 19.53125 74.21875 31.78125 74.21875 
" id="BitstreamVeraSans-Roman-30"/>
       <path d="M 37.796875 64.3125 
L 12.890625 25.390625 
L 37.796875 25.390625 
z
M 35.203125 72.90625 
L 47.609375 72.90625 
L 47.609375 25.390625 
L 58.015625 25.390625 
L 58.015625 17.1875 
L 47.609375 17.1875 
L 47.609375 0 
L 37.796875 0 
L 37.796875 17.1875 
L 4.890625 17.1875 
L 4.890625 26.703125 
z
" id="BitstreamVeraSans-Roman-34"/>
      </defs>
      <g transform="translate(45.0925 266.6378125)scale(0.14 -0.14)">
       <use xlink:href="#BitstreamVeraSans-Roman-34"/>
       <use x="63.623046875" xlink:href="#BitstreamVeraSans-Roman-30"/>
      </g>
     </g>
    </g>
    <g id="xtick_2">
     <g id="line2d_7">
      <g>
       <use style="stroke:#000000;stroke-width:1.5;" x="120.96" xlink:href="#mc4f15234ec" y="252.0"/>
      </g>
     </g>
     <g id="text_2">
      <!-- 42 -->
      <defs>
       <path d="M 19.1875 8.296875 
L 53.609375 8.296875 
L 53.609375 0 
L 7.328125 0 
L 7.328125 8.296875 
Q 12.9375 14.109375 22.625 23.890625 
Q 32.328125 33.6875 34.8125 36.53125 
Q 39.546875 41.84375 41.421875 45.53125 
Q 43.3125 49.21875 43.3125 52.78125 
Q 43.3125 58.59375 39.234375 62.25 
Q 35.15625 65.921875 28.609375 65.921875 
Q 23.96875 65.921875 18.8125 64.3125 
Q 13.671875 62.703125 7.8125 59.421875 
L 7.8125 69.390625 
Q 13.765625 71.78125 18.9375 73 
Q 24.125 74.21875 28.421875 74.21875 
Q 39.75 74.21875 46.484375 68.546875 
Q 53.21875 62.890625 53.21875 53.421875 
Q 53.21875 48.921875 51.53125 44.890625 
Q 49.859375 40.875 45.40625 35.40625 
Q 44.1875 33.984375 37.640625 27.21875 
Q 31.109375 20.453125 19.1875 8.296875 
" id="BitstreamVeraSans-Roman-32"/>
      </defs>
      <g transform="translate(112.0525 266.6378125)scale(0.14 -0.14)">
       <use xlink:href="#BitstreamVeraSans-Roman-34"/>
       <use x="63.623046875" xlink:href="#BitstreamVeraSans-Roman-32"/>
      </g>
     </g>
    </g>
    <g id="xtick_3">
     <g id="line2d_8">
      <g>
       <use style="stroke:#000000;stroke-width:1.5;" x="187.92" xlink:href="#mc4f15234ec" y="252.0"/>
      </g>
     </g>
     <g id="text_3">
      <!-- 44 -->
      <g transform="translate(179.0125 266.6378125)scale(0.14 -0.14)">
       <use xlink:href="#BitstreamVeraSans-Roman-34"/>
       <use x="63.623046875" xlink:href="#BitstreamVeraSans-Roman-34"/>
      </g>
     </g>
    </g>
    <g id="xtick_4">
     <g id="line2d_9">
      <g>
       <use style="stroke:#000000;stroke-width:1.5;" x="254.88" xlink:href="#mc4f15234ec" y="252.0"/>
      </g>
     </g>
     <g id="text_4">
      <!-- 46 -->
      <defs>
       <path d="M 33.015625 40.375 
Q 26.375 40.375 22.484375 35.828125 
Q 18.609375 31.296875 18.609375 23.390625 
Q 18.609375 15.53125 22.484375 10.953125 
Q 26.375 6.390625 33.015625 6.390625 
Q 39.65625 6.390625 43.53125 10.953125 
Q 47.40625 15.53125 47.40625 23.390625 
Q 47.40625 31.296875 43.53125 35.828125 
Q 39.65625 40.375 33.015625 40.375 
M 52.59375 71.296875 
L 52.59375 62.3125 
Q 48.875 64.0625 45.09375 64.984375 
Q 41.3125 65.921875 37.59375 65.921875 
Q 27.828125 65.921875 22.671875 59.328125 
Q 17.53125 52.734375 16.796875 39.40625 
Q 19.671875 43.65625 24.015625 45.921875 
Q 28.375 48.1875 33.59375 48.1875 
Q 44.578125 48.1875 50.953125 41.515625 
Q 57.328125 34.859375 57.328125 23.390625 
Q 57.328125 12.15625 50.6875 5.359375 
Q 44.046875 -1.421875 33.015625 -1.421875 
Q 20.359375 -1.421875 13.671875 8.265625 
Q 6.984375 17.96875 6.984375 36.375 
Q 6.984375 53.65625 15.1875 63.9375 
Q 23.390625 74.21875 37.203125 74.21875 
Q 40.921875 74.21875 44.703125 73.484375 
Q 48.484375 72.75 52.59375 71.296875 
" id="BitstreamVeraSans-Roman-36"/>
      </defs>
      <g transform="translate(245.9725 266.6378125)scale(0.14 -0.14)">
       <use xlink:href="#BitstreamVeraSans-Roman-34"/>
       <use x="63.623046875" xlink:href="#BitstreamVeraSans-Roman-36"/>
      </g>
     </g>
    </g>
    <g id="xtick_5">
     <g id="line2d_10">
      <g>
       <use style="stroke:#000000;stroke-width:1.5;" x="321.84" xlink:href="#mc4f15234ec" y="252.0"/>
      </g>
     </g>
     <g id="text_5">
      <!-- 48 -->
      <defs>
       <path d="M 31.78125 34.625 
Q 24.75 34.625 20.71875 30.859375 
Q 16.703125 27.09375 16.703125 20.515625 
Q 16.703125 13.921875 20.71875 10.15625 
Q 24.75 6.390625 31.78125 6.390625 
Q 38.8125 6.390625 42.859375 10.171875 
Q 46.921875 13.96875 46.921875 20.515625 
Q 46.921875 27.09375 42.890625 30.859375 
Q 38.875 34.625 31.78125 34.625 
M 21.921875 38.8125 
Q 15.578125 40.375 12.03125 44.71875 
Q 8.5 49.078125 8.5 55.328125 
Q 8.5 64.0625 14.71875 69.140625 
Q 20.953125 74.21875 31.78125 74.21875 
Q 42.671875 74.21875 48.875 69.140625 
Q 55.078125 64.0625 55.078125 55.328125 
Q 55.078125 49.078125 51.53125 44.71875 
Q 48 40.375 41.703125 38.8125 
Q 48.828125 37.15625 52.796875 32.3125 
Q 56.78125 27.484375 56.78125 20.515625 
Q 56.78125 9.90625 50.3125 4.234375 
Q 43.84375 -1.421875 31.78125 -1.421875 
Q 19.734375 -1.421875 13.25 4.234375 
Q 6.78125 9.90625 6.78125 20.515625 
Q 6.78125 27.484375 10.78125 32.3125 
Q 14.796875 37.15625 21.921875 38.8125 
M 18.3125 54.390625 
Q 18.3125 48.734375 21.84375 45.5625 
Q 25.390625 42.390625 31.78125 42.390625 
Q 38.140625 42.390625 41.71875 45.5625 
Q 45.3125 48.734375 45.3125 54.390625 
Q 45.3125 60.0625 41.71875 63.234375 
Q 38.140625 66.40625 31.78125 66.40625 
Q 25.390625 66.40625 21.84375 63.234375 
Q 18.3125 60.0625 18.3125 54.390625 
" id="BitstreamVeraSans-Roman-38"/>
      </defs>
      <g transform="translate(312.9325 266.6378125)scale(0.14 -0.14)">
       <use xlink:href="#BitstreamVeraSans-Roman-34"/>
       <use x="63.623046875" xlink:href="#BitstreamVeraSans-Roman-38"/>
      </g>
     </g>
    </g>
    <g id="xtick_6">
     <g id="line2d_11">
      <g>
       <use style="stroke:#000000;stroke-width:1.5;" x="388.8" xlink:href="#mc4f15234ec" y="252.0"/>
      </g>
     </g>
     <g id="text_6">
      <!-- 50 -->
      <defs>
       <path d="M 10.796875 72.90625 
L 49.515625 72.90625 
L 49.515625 64.59375 
L 19.828125 64.59375 
L 19.828125 46.734375 
Q 21.96875 47.46875 24.109375 47.828125 
Q 26.265625 48.1875 28.421875 48.1875 
Q 40.625 48.1875 47.75 41.5 
Q 54.890625 34.8125 54.890625 23.390625 
Q 54.890625 11.625 47.5625 5.09375 
Q 40.234375 -1.421875 26.90625 -1.421875 
Q 22.3125 -1.421875 17.546875 -0.640625 
Q 12.796875 0.140625 7.71875 1.703125 
L 7.71875 11.625 
Q 12.109375 9.234375 16.796875 8.0625 
Q 21.484375 6.890625 26.703125 6.890625 
Q 35.15625 6.890625 40.078125 11.328125 
Q 45.015625 15.765625 45.015625 23.390625 
Q 45.015625 31 40.078125 35.4375 
Q 35.15625 39.890625 26.703125 39.890625 
Q 22.75 39.890625 18.8125 39.015625 
Q 14.890625 38.140625 10.796875 36.28125 
z
" id="BitstreamVeraSans-Roman-35"/>
      </defs>
      <g transform="translate(379.8925 266.6378125)scale(0.14 -0.14)">
       <use xlink:href="#BitstreamVeraSans-Roman-35"/>
       <use x="63.623046875" xlink:href="#BitstreamVeraSans-Roman-30"/>
      </g>
     </g>
    </g>
    <g id="xtick_7">
     <g id="line2d_12">
      <defs>
       <path d="M 0 0 
L 0 -5 
" id="m8f41dd628f" style="stroke:#000000;stroke-width:1.5;"/>
      </defs>
      <g>
       <use style="stroke:#000000;stroke-width:1.5;" x="87.48" xlink:href="#m8f41dd628f" y="252.0"/>
      </g>
     </g>
    </g>
    <g id="xtick_8">
     <g id="line2d_13">
      <g>
       <use style="stroke:#000000;stroke-width:1.5;" x="154.44" xlink:href="#m8f41dd628f" y="252.0"/>
      </g>
     </g>
    </g>
    <g id="xtick_9">
     <g id="line2d_14">
      <g>
       <use style="stroke:#000000;stroke-width:1.5;" x="221.4" xlink:href="#m8f41dd628f" y="252.0"/>
      </g>
     </g>
    </g>
    <g id="xtick_10">
     <g id="line2d_15">
      <g>
       <use style="stroke:#000000;stroke-width:1.5;" x="288.36" xlink:href="#m8f41dd628f" y="252.0"/>
      </g>
     </g>
    </g>
    <g id="xtick_11">
     <g id="line2d_16">
      <g>
       <use style="stroke:#000000;stroke-width:1.5;" x="355.32" xlink:href="#m8f41dd628f" y="252.0"/>
      </g>
     </g>
    </g>
   </g>
   <g id="matplotlib.axis_2">
    <g id="ytick_1">
     <g id="text_7">
      <!-- 0.00 -->
      <defs>
       <path d="M 10.6875 12.40625 
L 21 12.40625 
L 21 0 
L 10.6875 0 
z
" id="BitstreamVeraSans-Roman-2e"/>
      </defs>
      <g transform="translate(18.828125 256.077198483)scale(0.14 -0.14)">
       <use xlink:href="#BitstreamVeraSans-Roman-30"/>
       <use x="63.623046875" xlink:href="#BitstreamVeraSans-Roman-2e"/>
       <use x="95.41015625" xlink:href="#BitstreamVeraSans-Roman-30"/>
       <use x="159.033203125" xlink:href="#BitstreamVeraSans-Roman-30"/>
      </g>
     </g>
    </g>
    <g id="ytick_2">
     <g id="line2d_17">
      <defs>
       <path d="M 0 0 
L 7 0 
" id="m945ab55bb6" style="stroke:#000000;stroke-width:1.5;"/>
      </defs>
      <g>
       <use style="stroke:#000000;stroke-width:1.5;" x="54.0" xlink:href="#m945ab55bb6" y="190.947865298"/>
      </g>
     </g>
     <g id="line2d_18">
      <defs>
       <path d="M 0 0 
L -7 0 
" id="mf6d3c8599d" style="stroke:#000000;stroke-width:1.5;"/>
      </defs>
      <g>
       <use style="stroke:#000000;stroke-width:1.5;" x="388.8" xlink:href="#mf6d3c8599d" y="190.947865298"/>
      </g>
     </g>
     <g id="text_8">
      <!-- 0.05 -->
      <g transform="translate(18.828125 194.810990298)scale(0.14 -0.14)">
       <use xlink:href="#BitstreamVeraSans-Roman-30"/>
       <use x="63.623046875" xlink:href="#BitstreamVeraSans-Roman-2e"/>
       <use x="95.41015625" xlink:href="#BitstreamVeraSans-Roman-30"/>
       <use x="159.033203125" xlink:href="#BitstreamVeraSans-Roman-35"/>
      </g>
     </g>
    </g>
    <g id="ytick_3">
     <g id="line2d_19">
      <g>
       <use style="stroke:#000000;stroke-width:1.5;" x="54.0" xlink:href="#m945ab55bb6" y="129.681657112"/>
      </g>
     </g>
     <g id="line2d_20">
      <g>
       <use style="stroke:#000000;stroke-width:1.5;" x="388.8" xlink:href="#mf6d3c8599d" y="129.681657112"/>
      </g>
     </g>
     <g id="text_9">
      <!-- 0.10 -->
      <defs>
       <path d="M 12.40625 8.296875 
L 28.515625 8.296875 
L 28.515625 63.921875 
L 10.984375 60.40625 
L 10.984375 69.390625 
L 28.421875 72.90625 
L 38.28125 72.90625 
L 38.28125 8.296875 
L 54.390625 8.296875 
L 54.390625 0 
L 12.40625 0 
z
" id="BitstreamVeraSans-Roman-31"/>
      </defs>
      <g transform="translate(18.828125 133.544782112)scale(0.14 -0.14)">
       <use xlink:href="#BitstreamVeraSans-Roman-30"/>
       <use x="63.623046875" xlink:href="#BitstreamVeraSans-Roman-2e"/>
       <use x="95.41015625" xlink:href="#BitstreamVeraSans-Roman-31"/>
       <use x="159.033203125" xlink:href="#BitstreamVeraSans-Roman-30"/>
      </g>
     </g>
    </g>
    <g id="ytick_4">
     <g id="line2d_21">
      <g>
       <use style="stroke:#000000;stroke-width:1.5;" x="54.0" xlink:href="#m945ab55bb6" y="68.4154489269"/>
      </g>
     </g>
     <g id="line2d_22">
      <g>
       <use style="stroke:#000000;stroke-width:1.5;" x="388.8" xlink:href="#mf6d3c8599d" y="68.4154489269"/>
      </g>
     </g>
     <g id="text_10">
      <!-- 0.15 -->
      <g transform="translate(18.828125 72.2785739269)scale(0.14 -0.14)">
       <use xlink:href="#BitstreamVeraSans-Roman-30"/>
       <use x="63.623046875" xlink:href="#BitstreamVeraSans-Roman-2e"/>
       <use x="95.41015625" xlink:href="#BitstreamVeraSans-Roman-31"/>
       <use x="159.033203125" xlink:href="#BitstreamVeraSans-Roman-35"/>
      </g>
     </g>
    </g>
    <g id="ytick_5">
     <g id="line2d_23">
      <defs>
       <path d="M 0 0 
L 5 0 
" id="mdd4654375f" style="stroke:#000000;stroke-width:1.5;"/>
      </defs>
      <g>
       <use style="stroke:#000000;stroke-width:1.5;" x="54.0" xlink:href="#mdd4654375f" y="221.58096939"/>
      </g>
     </g>
     <g id="line2d_24">
      <defs>
       <path d="M 0 0 
L -5 0 
" id="mccb722e2bb" style="stroke:#000000;stroke-width:1.5;"/>
      </defs>
      <g>
       <use style="stroke:#000000;stroke-width:1.5;" x="388.8" xlink:href="#mccb722e2bb" y="221.58096939"/>
      </g>
     </g>
    </g>
    <g id="ytick_6">
     <g id="line2d_25">
      <g>
       <use style="stroke:#000000;stroke-width:1.5;" x="54.0" xlink:href="#mdd4654375f" y="160.314761205"/>
      </g>
     </g>
     <g id="line2d_26">
      <g>
       <use style="stroke:#000000;stroke-width:1.5;" x="388.8" xlink:href="#mccb722e2bb" y="160.314761205"/>
      </g>
     </g>
    </g>
    <g id="ytick_7">
     <g id="line2d_27">
      <g>
       <use style="stroke:#000000;stroke-width:1.5;" x="54.0" xlink:href="#mdd4654375f" y="99.0485530196"/>
      </g>
     </g>
     <g id="line2d_28">
      <g>
       <use style="stroke:#000000;stroke-width:1.5;" x="388.8" xlink:href="#mccb722e2bb" y="99.0485530196"/>
      </g>
     </g>
    </g>
    <g id="ytick_8">
     <g id="line2d_29">
      <g>
       <use style="stroke:#000000;stroke-width:1.5;" x="54.0" xlink:href="#mdd4654375f" y="68.4154489269"/>
      </g>
     </g>
     <g id="line2d_30">
      <g>
       <use style="stroke:#000000;stroke-width:1.5;" x="388.8" xlink:href="#mccb722e2bb" y="68.4154489269"/>
      </g>
     </g>
    </g>
    <g id="ytick_9">
     <g id="line2d_31">
      <g>
       <use style="stroke:#000000;stroke-width:1.5;" x="54.0" xlink:href="#mdd4654375f" y="37.7823448342"/>
      </g>
     </g>
     <g id="line2d_32">
      <g>
       <use style="stroke:#000000;stroke-width:1.5;" x="388.8" xlink:href="#mccb722e2bb" y="37.7823448342"/>
      </g>
     </g>
    </g>
   </g>
  </g>
 </g>
 <defs>
  <clipPath id="p50a69e1538">
   <rect height="223.2" width="334.8" x="54.0" y="28.8"/>
  </clipPath>
 </defs>
</svg>
