<?xml version="1.0" encoding="utf-8" standalone="no"?>
<!DOCTYPE svg PUBLIC "-//W3C//DTD SVG 1.1//EN"
  "http://www.w3.org/Graphics/SVG/1.1/DTD/svg11.dtd">
<!-- Created with matplotlib (http://matplotlib.org/) -->
<svg height="288pt" version="1.1" viewBox="0 0 432 288" width="432pt" xmlns="http://www.w3.org/2000/svg" xmlns:xlink="http://www.w3.org/1999/xlink">
 <defs>
  <style type="text/css">
*{stroke-linecap:butt;stroke-linejoin:round;stroke-miterlimit:100000;}
  </style>
 </defs>
 <g id="figure_1">
  <g id="patch_1">
   <path d="M 0 288 
L 432 288 
L 432 0 
L 0 0 
z
" style="fill:#ffffff;"/>
  </g>
  <g id="axes_1">
   <g id="patch_2">
    <path d="M 54 252 
L 388.8 252 
L 388.8 28.8 
L 54 28.8 
z
" style="fill:#ffffff;"/>
   </g>
   <g id="LineCollection_1">
    <path clip-path="url(#pece1064b2c)" d="M 115.121977 71.288818 
L 115.121977 69.975275 
" style="fill:none;stroke:#ff0000;"/>
    <path clip-path="url(#pece1064b2c)" d="M 133.721977 94.19345 
L 133.721977 93.008205 
" style="fill:none;stroke:#ff0000;"/>
    <path clip-path="url(#pece1064b2c)" d="M 152.321977 122.197281 
L 152.321977 121.137015 
" style="fill:none;stroke:#ff0000;"/>
    <path clip-path="url(#pece1064b2c)" d="M 170.921977 154.271964 
L 170.921977 153.322001 
" style="fill:none;stroke:#ff0000;"/>
    <path clip-path="url(#pece1064b2c)" d="M 189.521977 189.052578 
L 189.521977 188.190738 
" style="fill:none;stroke:#ff0000;"/>
    <path clip-path="url(#pece1064b2c)" d="M 208.121977 225.977904 
L 208.121977 225.181689 
" style="fill:none;stroke:#ff0000;"/>
    <path clip-path="url(#pece1064b2c)" d="M 226.721977 241.080895 
L 226.721977 240.27972 
" style="fill:none;stroke:#ff0000;"/>
    <path clip-path="url(#pece1064b2c)" d="M 245.321977 204.425436 
L 245.321977 203.624513 
" style="fill:none;stroke:#ff0000;"/>
    <path clip-path="url(#pece1064b2c)" d="M 263.921977 168.765208 
L 263.921977 167.931454 
" style="fill:none;stroke:#ff0000;"/>
    <path clip-path="url(#pece1064b2c)" d="M 282.521977 135.370691 
L 282.521977 134.481754 
" style="fill:none;stroke:#ff0000;"/>
    <path clip-path="url(#pece1064b2c)" d="M 301.121977 105.816062 
L 301.121977 104.856316 
" style="fill:none;stroke:#ff0000;"/>
    <path clip-path="url(#pece1064b2c)" d="M 319.721977 81.118256 
L 319.721977 80.078189 
" style="fill:none;stroke:#ff0000;"/>
    <path clip-path="url(#pece1064b2c)" d="M 338.321977 61.336196 
L 338.321977 60.207862 
" style="fill:none;stroke:#ff0000;"/>
    <path clip-path="url(#pece1064b2c)" d="M 356.921977 47.655321 
L 356.921977 46.434627 
" style="fill:none;stroke:#ff0000;"/>
    <path clip-path="url(#pece1064b2c)" d="M 375.521977 40.044108 
L 375.521977 38.724368 
" style="fill:none;stroke:#ff0000;"/>
    <path clip-path="url(#pece1064b2c)" d="M 59.321977 38.705177 
L 59.321977 37.038424 
" style="fill:none;stroke:#ff0000;"/>
    <path clip-path="url(#pece1064b2c)" d="M 77.921977 43.203161 
L 77.921977 41.646947 
" style="fill:none;stroke:#ff0000;"/>
    <path clip-path="url(#pece1064b2c)" d="M 96.521977 54.129142 
L 96.521977 52.690538 
" style="fill:none;stroke:#ff0000;"/>
   </g>
   <g id="line2d_1">
    <path clip-path="url(#pece1064b2c)" d="M 54 39.444512 
L 57.351351 39.54977 
L 60.702703 39.865443 
L 64.054054 40.391217 
L 67.405405 41.126573 
L 70.756757 42.070783 
L 74.443243 43.34952 
L 78.12973 44.878307 
L 81.816216 46.655315 
L 85.502703 48.678417 
L 89.189189 50.945193 
L 93.210811 53.692753 
L 97.232432 56.723161 
L 101.254054 60.032099 
L 105.275676 63.614858 
L 109.632432 67.799251 
L 113.989189 72.292017 
L 118.681081 77.466623 
L 123.372973 82.980124 
L 128.4 89.251364 
L 133.427027 95.885415 
L 138.789189 103.344991 
L 144.151351 111.181681 
L 149.848649 119.899168 
L 155.881081 129.541356 
L 162.248649 140.145311 
L 168.951351 151.739201 
L 176.324324 164.950125 
L 184.367568 179.836639 
L 193.416216 197.073045 
L 204.140541 218.006848 
L 219.556757 248.652764 
L 221.232432 252 
L 221.567568 252 
L 241.675676 212.074882 
L 252.4 191.277136 
L 261.448649 174.201216 
L 269.491892 159.491485 
L 276.864865 146.469942 
L 283.567568 135.070121 
L 289.935135 124.669133 
L 295.967568 115.235282 
L 301.664865 106.728288 
L 307.027027 99.101344 
L 312.389189 91.862256 
L 317.416216 85.444171 
L 322.443243 79.397368 
L 327.135135 74.100542 
L 331.827027 69.149135 
L 336.183784 64.869089 
L 340.540541 60.902311 
L 344.562162 57.52446 
L 348.583784 54.424 
L 352.605405 51.605345 
L 356.627027 49.072509 
L 360.313514 47.004914 
L 364 45.182995 
L 367.686486 43.608932 
L 371.372973 42.284609 
L 375.059459 41.211609 
L 378.410811 40.455332 
L 381.762162 39.908573 
L 385.113514 39.571873 
L 388.464865 39.445564 
L 388.8 39.444512 
L 388.8 39.444512 
" style="fill:none;stroke:#0000ff;stroke-linecap:square;"/>
   </g>
   <g id="line2d_2">
    <defs>
     <path d="M 3 0 
L -3 -0 
" id="m9f6f70e3f7" style="stroke:#ff0000;stroke-width:0.5;"/>
    </defs>
    <g clip-path="url(#pece1064b2c)">
     <use style="fill:#ff0000;stroke:#ff0000;stroke-width:0.5;" x="115.121977235" xlink:href="#m9f6f70e3f7" y="71.2888182223"/>
     <use style="fill:#ff0000;stroke:#ff0000;stroke-width:0.5;" x="133.721977235" xlink:href="#m9f6f70e3f7" y="94.1934497302"/>
     <use style="fill:#ff0000;stroke:#ff0000;stroke-width:0.5;" x="152.321977235" xlink:href="#m9f6f70e3f7" y="122.19728079"/>
     <use style="fill:#ff0000;stroke:#ff0000;stroke-width:0.5;" x="170.921977235" xlink:href="#m9f6f70e3f7" y="154.271963714"/>
     <use style="fill:#ff0000;stroke:#ff0000;stroke-width:0.5;" x="189.521977235" xlink:href="#m9f6f70e3f7" y="189.052577567"/>
     <use style="fill:#ff0000;stroke:#ff0000;stroke-width:0.5;" x="208.121977235" xlink:href="#m9f6f70e3f7" y="225.977904452"/>
     <use style="fill:#ff0000;stroke:#ff0000;stroke-width:0.5;" x="226.721977235" xlink:href="#m9f6f70e3f7" y="241.080895431"/>
     <use style="fill:#ff0000;stroke:#ff0000;stroke-width:0.5;" x="245.321977235" xlink:href="#m9f6f70e3f7" y="204.42543609"/>
     <use style="fill:#ff0000;stroke:#ff0000;stroke-width:0.5;" x="263.921977235" xlink:href="#m9f6f70e3f7" y="168.76520796"/>
     <use style="fill:#ff0000;stroke:#ff0000;stroke-width:0.5;" x="282.521977235" xlink:href="#m9f6f70e3f7" y="135.37069095"/>
     <use style="fill:#ff0000;stroke:#ff0000;stroke-width:0.5;" x="301.121977235" xlink:href="#m9f6f70e3f7" y="105.816062479"/>
     <use style="fill:#ff0000;stroke:#ff0000;stroke-width:0.5;" x="319.721977235" xlink:href="#m9f6f70e3f7" y="81.1182563223"/>
     <use style="fill:#ff0000;stroke:#ff0000;stroke-width:0.5;" x="338.321977235" xlink:href="#m9f6f70e3f7" y="61.3361963397"/>
     <use style="fill:#ff0000;stroke:#ff0000;stroke-width:0.5;" x="356.921977235" xlink:href="#m9f6f70e3f7" y="47.65532059"/>
     <use style="fill:#ff0000;stroke:#ff0000;stroke-width:0.5;" x="375.521977235" xlink:href="#m9f6f70e3f7" y="40.0441079872"/>
     <use style="fill:#ff0000;stroke:#ff0000;stroke-width:0.5;" x="59.321977235" xlink:href="#m9f6f70e3f7" y="38.7051766374"/>
     <use style="fill:#ff0000;stroke:#ff0000;stroke-width:0.5;" x="77.921977235" xlink:href="#m9f6f70e3f7" y="43.2031609277"/>
     <use style="fill:#ff0000;stroke:#ff0000;stroke-width:0.5;" x="96.521977235" xlink:href="#m9f6f70e3f7" y="54.1291423683"/>
    </g>
   </g>
   <g id="line2d_3">
    <g clip-path="url(#pece1064b2c)">
     <use style="fill:#ff0000;stroke:#ff0000;stroke-width:0.5;" x="115.121977235" xlink:href="#m9f6f70e3f7" y="69.9752751852"/>
     <use style="fill:#ff0000;stroke:#ff0000;stroke-width:0.5;" x="133.721977235" xlink:href="#m9f6f70e3f7" y="93.0082045706"/>
     <use style="fill:#ff0000;stroke:#ff0000;stroke-width:0.5;" x="152.321977235" xlink:href="#m9f6f70e3f7" y="121.13701465"/>
     <use style="fill:#ff0000;stroke:#ff0000;stroke-width:0.5;" x="170.921977235" xlink:href="#m9f6f70e3f7" y="153.322001257"/>
     <use style="fill:#ff0000;stroke:#ff0000;stroke-width:0.5;" x="189.521977235" xlink:href="#m9f6f70e3f7" y="188.190737829"/>
     <use style="fill:#ff0000;stroke:#ff0000;stroke-width:0.5;" x="208.121977235" xlink:href="#m9f6f70e3f7" y="225.181689236"/>
     <use style="fill:#ff0000;stroke:#ff0000;stroke-width:0.5;" x="226.721977235" xlink:href="#m9f6f70e3f7" y="240.279719736"/>
     <use style="fill:#ff0000;stroke:#ff0000;stroke-width:0.5;" x="245.321977235" xlink:href="#m9f6f70e3f7" y="203.624513074"/>
     <use style="fill:#ff0000;stroke:#ff0000;stroke-width:0.5;" x="263.921977235" xlink:href="#m9f6f70e3f7" y="167.931454159"/>
     <use style="fill:#ff0000;stroke:#ff0000;stroke-width:0.5;" x="282.521977235" xlink:href="#m9f6f70e3f7" y="134.481754186"/>
     <use style="fill:#ff0000;stroke:#ff0000;stroke-width:0.5;" x="301.121977235" xlink:href="#m9f6f70e3f7" y="104.856315543"/>
     <use style="fill:#ff0000;stroke:#ff0000;stroke-width:0.5;" x="319.721977235" xlink:href="#m9f6f70e3f7" y="80.078189045"/>
     <use style="fill:#ff0000;stroke:#ff0000;stroke-width:0.5;" x="338.321977235" xlink:href="#m9f6f70e3f7" y="60.2078620763"/>
     <use style="fill:#ff0000;stroke:#ff0000;stroke-width:0.5;" x="356.921977235" xlink:href="#m9f6f70e3f7" y="46.4346274156"/>
     <use style="fill:#ff0000;stroke:#ff0000;stroke-width:0.5;" x="375.521977235" xlink:href="#m9f6f70e3f7" y="38.7243678815"/>
     <use style="fill:#ff0000;stroke:#ff0000;stroke-width:0.5;" x="59.321977235" xlink:href="#m9f6f70e3f7" y="37.0384242581"/>
     <use style="fill:#ff0000;stroke:#ff0000;stroke-width:0.5;" x="77.921977235" xlink:href="#m9f6f70e3f7" y="41.6469473605"/>
     <use style="fill:#ff0000;stroke:#ff0000;stroke-width:0.5;" x="96.521977235" xlink:href="#m9f6f70e3f7" y="52.6905377943"/>
    </g>
   </g>
   <g id="line2d_4">
    <defs>
     <path d="M 0 1.5 
C 0.397805 1.5 0.77937 1.341951 1.06066 1.06066 
C 1.341951 0.77937 1.5 0.397805 1.5 0 
C 1.5 -0.397805 1.341951 -0.77937 1.06066 -1.06066 
C 0.77937 -1.341951 0.397805 -1.5 0 -1.5 
C -0.397805 -1.5 -0.77937 -1.341951 -1.06066 -1.06066 
C -1.341951 -0.77937 -1.5 -0.397805 -1.5 0 
C -1.5 0.397805 -1.341951 0.77937 -1.06066 1.06066 
C -0.77937 1.341951 -0.397805 1.5 0 1.5 
z
" id="mad45c27a08" style="stroke:#ff0000;stroke-width:0.5;"/>
    </defs>
    <g clip-path="url(#pece1064b2c)">
     <use style="fill:#ff0000;stroke:#ff0000;stroke-width:0.5;" x="115.121977235" xlink:href="#mad45c27a08" y="70.6320467037"/>
     <use style="fill:#ff0000;stroke:#ff0000;stroke-width:0.5;" x="133.721977235" xlink:href="#mad45c27a08" y="93.6008271504"/>
     <use style="fill:#ff0000;stroke:#ff0000;stroke-width:0.5;" x="152.321977235" xlink:href="#mad45c27a08" y="121.66714772"/>
     <use style="fill:#ff0000;stroke:#ff0000;stroke-width:0.5;" x="170.921977235" xlink:href="#mad45c27a08" y="153.796982486"/>
     <use style="fill:#ff0000;stroke:#ff0000;stroke-width:0.5;" x="189.521977235" xlink:href="#mad45c27a08" y="188.621657698"/>
     <use style="fill:#ff0000;stroke:#ff0000;stroke-width:0.5;" x="208.121977235" xlink:href="#mad45c27a08" y="225.579796844"/>
     <use style="fill:#ff0000;stroke:#ff0000;stroke-width:0.5;" x="226.721977235" xlink:href="#mad45c27a08" y="240.680307584"/>
     <use style="fill:#ff0000;stroke:#ff0000;stroke-width:0.5;" x="245.321977235" xlink:href="#mad45c27a08" y="204.024974582"/>
     <use style="fill:#ff0000;stroke:#ff0000;stroke-width:0.5;" x="263.921977235" xlink:href="#mad45c27a08" y="168.34833106"/>
     <use style="fill:#ff0000;stroke:#ff0000;stroke-width:0.5;" x="282.521977235" xlink:href="#mad45c27a08" y="134.926222568"/>
     <use style="fill:#ff0000;stroke:#ff0000;stroke-width:0.5;" x="301.121977235" xlink:href="#mad45c27a08" y="105.336189011"/>
     <use style="fill:#ff0000;stroke:#ff0000;stroke-width:0.5;" x="319.721977235" xlink:href="#mad45c27a08" y="80.5982226836"/>
     <use style="fill:#ff0000;stroke:#ff0000;stroke-width:0.5;" x="338.321977235" xlink:href="#mad45c27a08" y="60.772029208"/>
     <use style="fill:#ff0000;stroke:#ff0000;stroke-width:0.5;" x="356.921977235" xlink:href="#mad45c27a08" y="47.0449740028"/>
     <use style="fill:#ff0000;stroke:#ff0000;stroke-width:0.5;" x="375.521977235" xlink:href="#mad45c27a08" y="39.3842379344"/>
     <use style="fill:#ff0000;stroke:#ff0000;stroke-width:0.5;" x="59.321977235" xlink:href="#mad45c27a08" y="37.8718004477"/>
     <use style="fill:#ff0000;stroke:#ff0000;stroke-width:0.5;" x="77.921977235" xlink:href="#mad45c27a08" y="42.4250541441"/>
     <use style="fill:#ff0000;stroke:#ff0000;stroke-width:0.5;" x="96.521977235" xlink:href="#mad45c27a08" y="53.4098400813"/>
    </g>
   </g>
   <g id="line2d_5">
    <path clip-path="url(#pece1064b2c)" d="M 54 39.444512 
L 388.8 39.444512 
" style="fill:none;opacity:0.25;stroke:#000000;stroke-linecap:square;"/>
   </g>
   <g id="patch_3">
    <path d="M 54 28.8 
L 388.8 28.8 
" style="fill:none;stroke:#000000;stroke-linecap:square;stroke-linejoin:miter;"/>
   </g>
   <g id="patch_4">
    <path d="M 388.8 252 
L 388.8 28.8 
" style="fill:none;stroke:#000000;stroke-linecap:square;stroke-linejoin:miter;"/>
   </g>
   <g id="patch_5">
    <path d="M 54 252 
L 54 28.8 
" style="fill:none;stroke:#000000;stroke-linecap:square;stroke-linejoin:miter;"/>
   </g>
   <g id="patch_6">
    <path d="M 54 252 
L 388.8 252 
" style="fill:none;stroke:#000000;stroke-linecap:square;stroke-linejoin:miter;"/>
   </g>
   <g id="matplotlib.axis_1">
    <g id="xtick_1">
     <g id="line2d_6">
      <defs>
       <path d="M 0 0 
L 0 -4 
" id="mc37788baaf" style="stroke:#000000;stroke-width:0.5;"/>
      </defs>
      <g>
       <use style="stroke:#000000;stroke-width:0.5;" x="54.0" xlink:href="#mc37788baaf" y="252.0"/>
      </g>
     </g>
     <g id="line2d_7">
      <defs>
       <path d="M 0 0 
L 0 4 
" id="m4db1c5f895" style="stroke:#000000;stroke-width:0.5;"/>
      </defs>
      <g>
       <use style="stroke:#000000;stroke-width:0.5;" x="54.0" xlink:href="#m4db1c5f895" y="28.8"/>
      </g>
     </g>
     <g id="text_1">
      <!-- 0 -->
      <defs>
       <path d="M 31.78125 66.40625 
Q 24.171875 66.40625 20.328125 58.90625 
Q 16.5 51.421875 16.5 36.375 
Q 16.5 21.390625 20.328125 13.890625 
Q 24.171875 6.390625 31.78125 6.390625 
Q 39.453125 6.390625 43.28125 13.890625 
Q 47.125 21.390625 47.125 36.375 
Q 47.125 51.421875 43.28125 58.90625 
Q 39.453125 66.40625 31.78125 66.40625 
M 31.78125 74.21875 
Q 44.046875 74.21875 50.515625 64.515625 
Q 56.984375 54.828125 56.984375 36.375 
Q 56.984375 17.96875 50.515625 8.265625 
Q 44.046875 -1.421875 31.78125 -1.421875 
Q 19.53125 -1.421875 13.0625 8.265625 
Q 6.59375 17.96875 6.59375 36.375 
Q 6.59375 54.828125 13.0625 64.515625 
Q 19.53125 74.21875 31.78125 74.21875 
" id="BitstreamVeraSans-Roman-30"/>
      </defs>
      <g transform="translate(50.81875 263.5984375)scale(0.1 -0.1)">
       <use xlink:href="#BitstreamVeraSans-Roman-30"/>
      </g>
     </g>
    </g>
    <g id="xtick_2">
     <g id="line2d_8">
      <g>
       <use style="stroke:#000000;stroke-width:0.5;" x="91.2" xlink:href="#mc37788baaf" y="252.0"/>
      </g>
     </g>
     <g id="line2d_9">
      <g>
       <use style="stroke:#000000;stroke-width:0.5;" x="91.2" xlink:href="#m4db1c5f895" y="28.8"/>
      </g>
     </g>
     <g id="text_2">
      <!-- 10 -->
      <defs>
       <path d="M 12.40625 8.296875 
L 28.515625 8.296875 
L 28.515625 63.921875 
L 10.984375 60.40625 
L 10.984375 69.390625 
L 28.421875 72.90625 
L 38.28125 72.90625 
L 38.28125 8.296875 
L 54.390625 8.296875 
L 54.390625 0 
L 12.40625 0 
z
" id="BitstreamVeraSans-Roman-31"/>
      </defs>
      <g transform="translate(84.8375 263.5984375)scale(0.1 -0.1)">
       <use xlink:href="#BitstreamVeraSans-Roman-31"/>
       <use x="63.623046875" xlink:href="#BitstreamVeraSans-Roman-30"/>
      </g>
     </g>
    </g>
    <g id="xtick_3">
     <g id="line2d_10">
      <g>
       <use style="stroke:#000000;stroke-width:0.5;" x="128.4" xlink:href="#mc37788baaf" y="252.0"/>
      </g>
     </g>
     <g id="line2d_11">
      <g>
       <use style="stroke:#000000;stroke-width:0.5;" x="128.4" xlink:href="#m4db1c5f895" y="28.8"/>
      </g>
     </g>
     <g id="text_3">
      <!-- 20 -->
      <defs>
       <path d="M 19.1875 8.296875 
L 53.609375 8.296875 
L 53.609375 0 
L 7.328125 0 
L 7.328125 8.296875 
Q 12.9375 14.109375 22.625 23.890625 
Q 32.328125 33.6875 34.8125 36.53125 
Q 39.546875 41.84375 41.421875 45.53125 
Q 43.3125 49.21875 43.3125 52.78125 
Q 43.3125 58.59375 39.234375 62.25 
Q 35.15625 65.921875 28.609375 65.921875 
Q 23.96875 65.921875 18.8125 64.3125 
Q 13.671875 62.703125 7.8125 59.421875 
L 7.8125 69.390625 
Q 13.765625 71.78125 18.9375 73 
Q 24.125 74.21875 28.421875 74.21875 
Q 39.75 74.21875 46.484375 68.546875 
Q 53.21875 62.890625 53.21875 53.421875 
Q 53.21875 48.921875 51.53125 44.890625 
Q 49.859375 40.875 45.40625 35.40625 
Q 44.1875 33.984375 37.640625 27.21875 
Q 31.109375 20.453125 19.1875 8.296875 
" id="BitstreamVeraSans-Roman-32"/>
      </defs>
      <g transform="translate(122.0375 263.5984375)scale(0.1 -0.1)">
       <use xlink:href="#BitstreamVeraSans-Roman-32"/>
       <use x="63.623046875" xlink:href="#BitstreamVeraSans-Roman-30"/>
      </g>
     </g>
    </g>
    <g id="xtick_4">
     <g id="line2d_12">
      <g>
       <use style="stroke:#000000;stroke-width:0.5;" x="165.6" xlink:href="#mc37788baaf" y="252.0"/>
      </g>
     </g>
     <g id="line2d_13">
      <g>
       <use style="stroke:#000000;stroke-width:0.5;" x="165.6" xlink:href="#m4db1c5f895" y="28.8"/>
      </g>
     </g>
     <g id="text_4">
      <!-- 30 -->
      <defs>
       <path d="M 40.578125 39.3125 
Q 47.65625 37.796875 51.625 33 
Q 55.609375 28.21875 55.609375 21.1875 
Q 55.609375 10.40625 48.1875 4.484375 
Q 40.765625 -1.421875 27.09375 -1.421875 
Q 22.515625 -1.421875 17.65625 -0.515625 
Q 12.796875 0.390625 7.625 2.203125 
L 7.625 11.71875 
Q 11.71875 9.328125 16.59375 8.109375 
Q 21.484375 6.890625 26.8125 6.890625 
Q 36.078125 6.890625 40.9375 10.546875 
Q 45.796875 14.203125 45.796875 21.1875 
Q 45.796875 27.640625 41.28125 31.265625 
Q 36.765625 34.90625 28.71875 34.90625 
L 20.21875 34.90625 
L 20.21875 43.015625 
L 29.109375 43.015625 
Q 36.375 43.015625 40.234375 45.921875 
Q 44.09375 48.828125 44.09375 54.296875 
Q 44.09375 59.90625 40.109375 62.90625 
Q 36.140625 65.921875 28.71875 65.921875 
Q 24.65625 65.921875 20.015625 65.03125 
Q 15.375 64.15625 9.8125 62.3125 
L 9.8125 71.09375 
Q 15.4375 72.65625 20.34375 73.4375 
Q 25.25 74.21875 29.59375 74.21875 
Q 40.828125 74.21875 47.359375 69.109375 
Q 53.90625 64.015625 53.90625 55.328125 
Q 53.90625 49.265625 50.4375 45.09375 
Q 46.96875 40.921875 40.578125 39.3125 
" id="BitstreamVeraSans-Roman-33"/>
      </defs>
      <g transform="translate(159.2375 263.5984375)scale(0.1 -0.1)">
       <use xlink:href="#BitstreamVeraSans-Roman-33"/>
       <use x="63.623046875" xlink:href="#BitstreamVeraSans-Roman-30"/>
      </g>
     </g>
    </g>
    <g id="xtick_5">
     <g id="line2d_14">
      <g>
       <use style="stroke:#000000;stroke-width:0.5;" x="202.8" xlink:href="#mc37788baaf" y="252.0"/>
      </g>
     </g>
     <g id="line2d_15">
      <g>
       <use style="stroke:#000000;stroke-width:0.5;" x="202.8" xlink:href="#m4db1c5f895" y="28.8"/>
      </g>
     </g>
     <g id="text_5">
      <!-- 40 -->
      <defs>
       <path d="M 37.796875 64.3125 
L 12.890625 25.390625 
L 37.796875 25.390625 
z
M 35.203125 72.90625 
L 47.609375 72.90625 
L 47.609375 25.390625 
L 58.015625 25.390625 
L 58.015625 17.1875 
L 47.609375 17.1875 
L 47.609375 0 
L 37.796875 0 
L 37.796875 17.1875 
L 4.890625 17.1875 
L 4.890625 26.703125 
z
" id="BitstreamVeraSans-Roman-34"/>
      </defs>
      <g transform="translate(196.4375 263.5984375)scale(0.1 -0.1)">
       <use xlink:href="#BitstreamVeraSans-Roman-34"/>
       <use x="63.623046875" xlink:href="#BitstreamVeraSans-Roman-30"/>
      </g>
     </g>
    </g>
    <g id="xtick_6">
     <g id="line2d_16">
      <g>
       <use style="stroke:#000000;stroke-width:0.5;" x="240.0" xlink:href="#mc37788baaf" y="252.0"/>
      </g>
     </g>
     <g id="line2d_17">
      <g>
       <use style="stroke:#000000;stroke-width:0.5;" x="240.0" xlink:href="#m4db1c5f895" y="28.8"/>
      </g>
     </g>
     <g id="text_6">
      <!-- 50 -->
      <defs>
       <path d="M 10.796875 72.90625 
L 49.515625 72.90625 
L 49.515625 64.59375 
L 19.828125 64.59375 
L 19.828125 46.734375 
Q 21.96875 47.46875 24.109375 47.828125 
Q 26.265625 48.1875 28.421875 48.1875 
Q 40.625 48.1875 47.75 41.5 
Q 54.890625 34.8125 54.890625 23.390625 
Q 54.890625 11.625 47.5625 5.09375 
Q 40.234375 -1.421875 26.90625 -1.421875 
Q 22.3125 -1.421875 17.546875 -0.640625 
Q 12.796875 0.140625 7.71875 1.703125 
L 7.71875 11.625 
Q 12.109375 9.234375 16.796875 8.0625 
Q 21.484375 6.890625 26.703125 6.890625 
Q 35.15625 6.890625 40.078125 11.328125 
Q 45.015625 15.765625 45.015625 23.390625 
Q 45.015625 31 40.078125 35.4375 
Q 35.15625 39.890625 26.703125 39.890625 
Q 22.75 39.890625 18.8125 39.015625 
Q 14.890625 38.140625 10.796875 36.28125 
z
" id="BitstreamVeraSans-Roman-35"/>
      </defs>
      <g transform="translate(233.6375 263.5984375)scale(0.1 -0.1)">
       <use xlink:href="#BitstreamVeraSans-Roman-35"/>
       <use x="63.623046875" xlink:href="#BitstreamVeraSans-Roman-30"/>
      </g>
     </g>
    </g>
    <g id="xtick_7">
     <g id="line2d_18">
      <g>
       <use style="stroke:#000000;stroke-width:0.5;" x="277.2" xlink:href="#mc37788baaf" y="252.0"/>
      </g>
     </g>
     <g id="line2d_19">
      <g>
       <use style="stroke:#000000;stroke-width:0.5;" x="277.2" xlink:href="#m4db1c5f895" y="28.8"/>
      </g>
     </g>
     <g id="text_7">
      <!-- 60 -->
      <defs>
       <path d="M 33.015625 40.375 
Q 26.375 40.375 22.484375 35.828125 
Q 18.609375 31.296875 18.609375 23.390625 
Q 18.609375 15.53125 22.484375 10.953125 
Q 26.375 6.390625 33.015625 6.390625 
Q 39.65625 6.390625 43.53125 10.953125 
Q 47.40625 15.53125 47.40625 23.390625 
Q 47.40625 31.296875 43.53125 35.828125 
Q 39.65625 40.375 33.015625 40.375 
M 52.59375 71.296875 
L 52.59375 62.3125 
Q 48.875 64.0625 45.09375 64.984375 
Q 41.3125 65.921875 37.59375 65.921875 
Q 27.828125 65.921875 22.671875 59.328125 
Q 17.53125 52.734375 16.796875 39.40625 
Q 19.671875 43.65625 24.015625 45.921875 
Q 28.375 48.1875 33.59375 48.1875 
Q 44.578125 48.1875 50.953125 41.515625 
Q 57.328125 34.859375 57.328125 23.390625 
Q 57.328125 12.15625 50.6875 5.359375 
Q 44.046875 -1.421875 33.015625 -1.421875 
Q 20.359375 -1.421875 13.671875 8.265625 
Q 6.984375 17.96875 6.984375 36.375 
Q 6.984375 53.65625 15.1875 63.9375 
Q 23.390625 74.21875 37.203125 74.21875 
Q 40.921875 74.21875 44.703125 73.484375 
Q 48.484375 72.75 52.59375 71.296875 
" id="BitstreamVeraSans-Roman-36"/>
      </defs>
      <g transform="translate(270.8375 263.5984375)scale(0.1 -0.1)">
       <use xlink:href="#BitstreamVeraSans-Roman-36"/>
       <use x="63.623046875" xlink:href="#BitstreamVeraSans-Roman-30"/>
      </g>
     </g>
    </g>
    <g id="xtick_8">
     <g id="line2d_20">
      <g>
       <use style="stroke:#000000;stroke-width:0.5;" x="314.4" xlink:href="#mc37788baaf" y="252.0"/>
      </g>
     </g>
     <g id="line2d_21">
      <g>
       <use style="stroke:#000000;stroke-width:0.5;" x="314.4" xlink:href="#m4db1c5f895" y="28.8"/>
      </g>
     </g>
     <g id="text_8">
      <!-- 70 -->
      <defs>
       <path d="M 8.203125 72.90625 
L 55.078125 72.90625 
L 55.078125 68.703125 
L 28.609375 0 
L 18.3125 0 
L 43.21875 64.59375 
L 8.203125 64.59375 
z
" id="BitstreamVeraSans-Roman-37"/>
      </defs>
      <g transform="translate(308.0375 263.5984375)scale(0.1 -0.1)">
       <use xlink:href="#BitstreamVeraSans-Roman-37"/>
       <use x="63.623046875" xlink:href="#BitstreamVeraSans-Roman-30"/>
      </g>
     </g>
    </g>
    <g id="xtick_9">
     <g id="line2d_22">
      <g>
       <use style="stroke:#000000;stroke-width:0.5;" x="351.6" xlink:href="#mc37788baaf" y="252.0"/>
      </g>
     </g>
     <g id="line2d_23">
      <g>
       <use style="stroke:#000000;stroke-width:0.5;" x="351.6" xlink:href="#m4db1c5f895" y="28.8"/>
      </g>
     </g>
     <g id="text_9">
      <!-- 80 -->
      <defs>
       <path d="M 31.78125 34.625 
Q 24.75 34.625 20.71875 30.859375 
Q 16.703125 27.09375 16.703125 20.515625 
Q 16.703125 13.921875 20.71875 10.15625 
Q 24.75 6.390625 31.78125 6.390625 
Q 38.8125 6.390625 42.859375 10.171875 
Q 46.921875 13.96875 46.921875 20.515625 
Q 46.921875 27.09375 42.890625 30.859375 
Q 38.875 34.625 31.78125 34.625 
M 21.921875 38.8125 
Q 15.578125 40.375 12.03125 44.71875 
Q 8.5 49.078125 8.5 55.328125 
Q 8.5 64.0625 14.71875 69.140625 
Q 20.953125 74.21875 31.78125 74.21875 
Q 42.671875 74.21875 48.875 69.140625 
Q 55.078125 64.0625 55.078125 55.328125 
Q 55.078125 49.078125 51.53125 44.71875 
Q 48 40.375 41.703125 38.8125 
Q 48.828125 37.15625 52.796875 32.3125 
Q 56.78125 27.484375 56.78125 20.515625 
Q 56.78125 9.90625 50.3125 4.234375 
Q 43.84375 -1.421875 31.78125 -1.421875 
Q 19.734375 -1.421875 13.25 4.234375 
Q 6.78125 9.90625 6.78125 20.515625 
Q 6.78125 27.484375 10.78125 32.3125 
Q 14.796875 37.15625 21.921875 38.8125 
M 18.3125 54.390625 
Q 18.3125 48.734375 21.84375 45.5625 
Q 25.390625 42.390625 31.78125 42.390625 
Q 38.140625 42.390625 41.71875 45.5625 
Q 45.3125 48.734375 45.3125 54.390625 
Q 45.3125 60.0625 41.71875 63.234375 
Q 38.140625 66.40625 31.78125 66.40625 
Q 25.390625 66.40625 21.84375 63.234375 
Q 18.3125 60.0625 18.3125 54.390625 
" id="BitstreamVeraSans-Roman-38"/>
      </defs>
      <g transform="translate(345.2375 263.5984375)scale(0.1 -0.1)">
       <use xlink:href="#BitstreamVeraSans-Roman-38"/>
       <use x="63.623046875" xlink:href="#BitstreamVeraSans-Roman-30"/>
      </g>
     </g>
    </g>
    <g id="xtick_10">
     <g id="line2d_24">
      <g>
       <use style="stroke:#000000;stroke-width:0.5;" x="388.8" xlink:href="#mc37788baaf" y="252.0"/>
      </g>
     </g>
     <g id="line2d_25">
      <g>
       <use style="stroke:#000000;stroke-width:0.5;" x="388.8" xlink:href="#m4db1c5f895" y="28.8"/>
      </g>
     </g>
     <g id="text_10">
      <!-- 90 -->
      <defs>
       <path d="M 10.984375 1.515625 
L 10.984375 10.5 
Q 14.703125 8.734375 18.5 7.8125 
Q 22.3125 6.890625 25.984375 6.890625 
Q 35.75 6.890625 40.890625 13.453125 
Q 46.046875 20.015625 46.78125 33.40625 
Q 43.953125 29.203125 39.59375 26.953125 
Q 35.25 24.703125 29.984375 24.703125 
Q 19.046875 24.703125 12.671875 31.3125 
Q 6.296875 37.9375 6.296875 49.421875 
Q 6.296875 60.640625 12.9375 67.421875 
Q 19.578125 74.21875 30.609375 74.21875 
Q 43.265625 74.21875 49.921875 64.515625 
Q 56.59375 54.828125 56.59375 36.375 
Q 56.59375 19.140625 48.40625 8.859375 
Q 40.234375 -1.421875 26.421875 -1.421875 
Q 22.703125 -1.421875 18.890625 -0.6875 
Q 15.09375 0.046875 10.984375 1.515625 
M 30.609375 32.421875 
Q 37.25 32.421875 41.125 36.953125 
Q 45.015625 41.5 45.015625 49.421875 
Q 45.015625 57.28125 41.125 61.84375 
Q 37.25 66.40625 30.609375 66.40625 
Q 23.96875 66.40625 20.09375 61.84375 
Q 16.21875 57.28125 16.21875 49.421875 
Q 16.21875 41.5 20.09375 36.953125 
Q 23.96875 32.421875 30.609375 32.421875 
" id="BitstreamVeraSans-Roman-39"/>
      </defs>
      <g transform="translate(382.4375 263.5984375)scale(0.1 -0.1)">
       <use xlink:href="#BitstreamVeraSans-Roman-39"/>
       <use x="63.623046875" xlink:href="#BitstreamVeraSans-Roman-30"/>
      </g>
     </g>
    </g>
    <g id="xtick_11">
     <g id="line2d_26">
      <defs>
       <path d="M 0 0 
L 0 -2 
" id="m7364b0ba27" style="stroke:#000000;stroke-width:0.5;"/>
      </defs>
      <g>
       <use style="stroke:#000000;stroke-width:0.5;" x="54.372" xlink:href="#m7364b0ba27" y="252.0"/>
      </g>
     </g>
     <g id="line2d_27">
      <defs>
       <path d="M 0 0 
L 0 2 
" id="mabc8877b28" style="stroke:#000000;stroke-width:0.5;"/>
      </defs>
      <g>
       <use style="stroke:#000000;stroke-width:0.5;" x="54.372" xlink:href="#mabc8877b28" y="28.8"/>
      </g>
     </g>
    </g>
    <g id="xtick_12">
     <g id="line2d_28">
      <g>
       <use style="stroke:#000000;stroke-width:0.5;" x="55.116" xlink:href="#m7364b0ba27" y="252.0"/>
      </g>
     </g>
     <g id="line2d_29">
      <g>
       <use style="stroke:#000000;stroke-width:0.5;" x="55.116" xlink:href="#mabc8877b28" y="28.8"/>
      </g>
     </g>
    </g>
    <g id="xtick_13">
     <g id="line2d_30">
      <g>
       <use style="stroke:#000000;stroke-width:0.5;" x="55.86" xlink:href="#m7364b0ba27" y="252.0"/>
      </g>
     </g>
     <g id="line2d_31">
      <g>
       <use style="stroke:#000000;stroke-width:0.5;" x="55.86" xlink:href="#mabc8877b28" y="28.8"/>
      </g>
     </g>
    </g>
    <g id="xtick_14">
     <g id="line2d_32">
      <g>
       <use style="stroke:#000000;stroke-width:0.5;" x="56.232" xlink:href="#m7364b0ba27" y="252.0"/>
      </g>
     </g>
     <g id="line2d_33">
      <g>
       <use style="stroke:#000000;stroke-width:0.5;" x="56.232" xlink:href="#mabc8877b28" y="28.8"/>
      </g>
     </g>
    </g>
    <g id="xtick_15">
     <g id="line2d_34">
      <g>
       <use style="stroke:#000000;stroke-width:0.5;" x="56.604" xlink:href="#m7364b0ba27" y="252.0"/>
      </g>
     </g>
     <g id="line2d_35">
      <g>
       <use style="stroke:#000000;stroke-width:0.5;" x="56.604" xlink:href="#mabc8877b28" y="28.8"/>
      </g>
     </g>
    </g>
    <g id="xtick_16">
     <g id="line2d_36">
      <g>
       <use style="stroke:#000000;stroke-width:0.5;" x="57.348" xlink:href="#m7364b0ba27" y="252.0"/>
      </g>
     </g>
     <g id="line2d_37">
      <g>
       <use style="stroke:#000000;stroke-width:0.5;" x="57.348" xlink:href="#mabc8877b28" y="28.8"/>
      </g>
     </g>
    </g>
    <g id="xtick_17">
     <g id="line2d_38">
      <g>
       <use style="stroke:#000000;stroke-width:0.5;" x="57.72" xlink:href="#m7364b0ba27" y="252.0"/>
      </g>
     </g>
     <g id="line2d_39">
      <g>
       <use style="stroke:#000000;stroke-width:0.5;" x="57.72" xlink:href="#mabc8877b28" y="28.8"/>
      </g>
     </g>
    </g>
   </g>
   <g id="matplotlib.axis_2">
    <g id="ytick_1">
     <g id="text_11">
      <!-- 0.0 -->
      <defs>
       <path d="M 10.6875 12.40625 
L 21 12.40625 
L 21 0 
L 10.6875 0 
z
" id="BitstreamVeraSans-Roman-2e"/>
      </defs>
      <g transform="translate(27.735625 256.197866796)scale(0.14 -0.14)">
       <use xlink:href="#BitstreamVeraSans-Roman-30"/>
       <use x="63.623046875" xlink:href="#BitstreamVeraSans-Roman-2e"/>
       <use x="95.41015625" xlink:href="#BitstreamVeraSans-Roman-30"/>
      </g>
     </g>
    </g>
    <g id="ytick_2">
     <g id="line2d_40">
      <defs>
       <path d="M 0 0 
L 5 0 
" id="m8c0a226af3" style="stroke:#000000;stroke-width:0.5;"/>
      </defs>
      <g>
       <use style="stroke:#000000;stroke-width:0.5;" x="54.0" xlink:href="#m8c0a226af3" y="209.756695739"/>
      </g>
     </g>
     <g id="line2d_41">
      <defs>
       <path d="M 0 0 
L -5 0 
" id="mf1410c6687" style="stroke:#000000;stroke-width:0.5;"/>
      </defs>
      <g>
       <use style="stroke:#000000;stroke-width:0.5;" x="388.8" xlink:href="#mf1410c6687" y="209.756695739"/>
      </g>
     </g>
     <g id="text_12">
      <!-- 0.2 -->
      <g transform="translate(27.735625 213.619820739)scale(0.14 -0.14)">
       <use xlink:href="#BitstreamVeraSans-Roman-30"/>
       <use x="63.623046875" xlink:href="#BitstreamVeraSans-Roman-2e"/>
       <use x="95.41015625" xlink:href="#BitstreamVeraSans-Roman-32"/>
      </g>
     </g>
    </g>
    <g id="ytick_3">
     <g id="line2d_42">
      <g>
       <use style="stroke:#000000;stroke-width:0.5;" x="54.0" xlink:href="#m8c0a226af3" y="167.178649683"/>
      </g>
     </g>
     <g id="line2d_43">
      <g>
       <use style="stroke:#000000;stroke-width:0.5;" x="388.8" xlink:href="#mf1410c6687" y="167.178649683"/>
      </g>
     </g>
     <g id="text_13">
      <!-- 0.4 -->
      <g transform="translate(27.735625 171.041774683)scale(0.14 -0.14)">
       <use xlink:href="#BitstreamVeraSans-Roman-30"/>
       <use x="63.623046875" xlink:href="#BitstreamVeraSans-Roman-2e"/>
       <use x="95.41015625" xlink:href="#BitstreamVeraSans-Roman-34"/>
      </g>
     </g>
    </g>
    <g id="ytick_4">
     <g id="line2d_44">
      <g>
       <use style="stroke:#000000;stroke-width:0.5;" x="54.0" xlink:href="#m8c0a226af3" y="124.600603627"/>
      </g>
     </g>
     <g id="line2d_45">
      <g>
       <use style="stroke:#000000;stroke-width:0.5;" x="388.8" xlink:href="#mf1410c6687" y="124.600603627"/>
      </g>
     </g>
     <g id="text_14">
      <!-- 0.6 -->
      <g transform="translate(27.735625 128.463728627)scale(0.14 -0.14)">
       <use xlink:href="#BitstreamVeraSans-Roman-30"/>
       <use x="63.623046875" xlink:href="#BitstreamVeraSans-Roman-2e"/>
       <use x="95.41015625" xlink:href="#BitstreamVeraSans-Roman-36"/>
      </g>
     </g>
    </g>
    <g id="ytick_5">
     <g id="line2d_46">
      <g>
       <use style="stroke:#000000;stroke-width:0.5;" x="54.0" xlink:href="#m8c0a226af3" y="82.0225575704"/>
      </g>
     </g>
     <g id="line2d_47">
      <g>
       <use style="stroke:#000000;stroke-width:0.5;" x="388.8" xlink:href="#mf1410c6687" y="82.0225575704"/>
      </g>
     </g>
     <g id="text_15">
      <!-- 0.8 -->
      <g transform="translate(27.735625 85.8856825704)scale(0.14 -0.14)">
       <use xlink:href="#BitstreamVeraSans-Roman-30"/>
       <use x="63.623046875" xlink:href="#BitstreamVeraSans-Roman-2e"/>
       <use x="95.41015625" xlink:href="#BitstreamVeraSans-Roman-38"/>
      </g>
     </g>
    </g>
    <g id="ytick_6">
     <g id="line2d_48">
      <g>
       <use style="stroke:#000000;stroke-width:0.5;" x="54.0" xlink:href="#m8c0a226af3" y="39.4445115141"/>
      </g>
     </g>
     <g id="line2d_49">
      <g>
       <use style="stroke:#000000;stroke-width:0.5;" x="388.8" xlink:href="#mf1410c6687" y="39.4445115141"/>
      </g>
     </g>
     <g id="text_16">
      <!-- 1.0 -->
      <g transform="translate(27.735625 43.3076365141)scale(0.14 -0.14)">
       <use xlink:href="#BitstreamVeraSans-Roman-31"/>
       <use x="63.623046875" xlink:href="#BitstreamVeraSans-Roman-2e"/>
       <use x="95.41015625" xlink:href="#BitstreamVeraSans-Roman-30"/>
      </g>
     </g>
    </g>
    <g id="ytick_7">
     <g id="line2d_50">
      <defs>
       <path d="M 0 0 
L 3 0 
" id="m7beb8c44ac" style="stroke:#000000;stroke-width:0.5;"/>
      </defs>
      <g>
       <use style="stroke:#000000;stroke-width:0.5;" x="54.0" xlink:href="#m7beb8c44ac" y="231.045718768"/>
      </g>
     </g>
     <g id="line2d_51">
      <defs>
       <path d="M 0 0 
L -3 0 
" id="m25a878d36a" style="stroke:#000000;stroke-width:0.5;"/>
      </defs>
      <g>
       <use style="stroke:#000000;stroke-width:0.5;" x="388.8" xlink:href="#m25a878d36a" y="231.045718768"/>
      </g>
     </g>
    </g>
    <g id="ytick_8">
     <g id="line2d_52">
      <g>
       <use style="stroke:#000000;stroke-width:0.5;" x="54.0" xlink:href="#m7beb8c44ac" y="188.467672711"/>
      </g>
     </g>
     <g id="line2d_53">
      <g>
       <use style="stroke:#000000;stroke-width:0.5;" x="388.8" xlink:href="#m25a878d36a" y="188.467672711"/>
      </g>
     </g>
    </g>
    <g id="ytick_9">
     <g id="line2d_54">
      <g>
       <use style="stroke:#000000;stroke-width:0.5;" x="54.0" xlink:href="#m7beb8c44ac" y="145.889626655"/>
      </g>
     </g>
     <g id="line2d_55">
      <g>
       <use style="stroke:#000000;stroke-width:0.5;" x="388.8" xlink:href="#m25a878d36a" y="145.889626655"/>
      </g>
     </g>
    </g>
    <g id="ytick_10">
     <g id="line2d_56">
      <g>
       <use style="stroke:#000000;stroke-width:0.5;" x="54.0" xlink:href="#m7beb8c44ac" y="124.600603627"/>
      </g>
     </g>
     <g id="line2d_57">
      <g>
       <use style="stroke:#000000;stroke-width:0.5;" x="388.8" xlink:href="#m25a878d36a" y="124.600603627"/>
      </g>
     </g>
    </g>
    <g id="ytick_11">
     <g id="line2d_58">
      <g>
       <use style="stroke:#000000;stroke-width:0.5;" x="54.0" xlink:href="#m7beb8c44ac" y="103.311580599"/>
      </g>
     </g>
     <g id="line2d_59">
      <g>
       <use style="stroke:#000000;stroke-width:0.5;" x="388.8" xlink:href="#m25a878d36a" y="103.311580599"/>
      </g>
     </g>
    </g>
    <g id="ytick_12">
     <g id="line2d_60">
      <g>
       <use style="stroke:#000000;stroke-width:0.5;" x="54.0" xlink:href="#m7beb8c44ac" y="60.7335345422"/>
      </g>
     </g>
     <g id="line2d_61">
      <g>
       <use style="stroke:#000000;stroke-width:0.5;" x="388.8" xlink:href="#m25a878d36a" y="60.7335345422"/>
      </g>
     </g>
    </g>
    <g id="ytick_13">
     <g id="line2d_62">
      <g>
       <use style="stroke:#000000;stroke-width:0.5;" x="54.0" xlink:href="#m7beb8c44ac" y="39.4445115141"/>
      </g>
     </g>
     <g id="line2d_63">
      <g>
       <use style="stroke:#000000;stroke-width:0.5;" x="388.8" xlink:href="#m25a878d36a" y="39.4445115141"/>
      </g>
     </g>
    </g>
   </g>
  </g>
 </g>
 <defs>
  <clipPath id="pece1064b2c">
   <rect height="223.2" width="334.8" x="54.0" y="28.8"/>
  </clipPath>
 </defs>
</svg>
