<?xml version="1.0" encoding="utf-8" standalone="no"?>
<!DOCTYPE svg PUBLIC "-//W3C//DTD SVG 1.1//EN"
  "http://www.w3.org/Graphics/SVG/1.1/DTD/svg11.dtd">
<!-- Created with matplotlib (http://matplotlib.org/) -->
<svg height="360pt" version="1.1" viewBox="0 0 1080 360" width="1080pt" xmlns="http://www.w3.org/2000/svg" xmlns:xlink="http://www.w3.org/1999/xlink">
 <defs>
  <style type="text/css">
*{stroke-linecap:butt;stroke-linejoin:round;stroke-miterlimit:100000;}
  </style>
 </defs>
 <g id="figure_1">
  <g id="patch_1">
   <path d="M 0 360 
L 1080 360 
L 1080 0 
L 0 0 
z
" style="fill:#ffffff;"/>
  </g>
  <g id="axes_1">
   <g id="patch_2">
    <path d="M 135 270.978261 
L 316.956522 270.978261 
L 316.956522 89.021739 
L 135 89.021739 
z
" style="fill:#ffffff;"/>
   </g>
   <g id="Quiver_1">
    <path clip-path="url(#p0036e7f439)" d="M 245.89614 199.462809 
L 245.89614 199.462809 
L 245.670852 194.919478 
L 256.017463 199.466984 
L 246.171492 205.015769 
L 245.946204 200.472438 
L 245.946204 200.472438 
L 245.89614 199.462809 
" style="fill:#ff0000;"/>
    <path clip-path="url(#p0036e7f439)" d="M 143.510827 180.37157 
L 143.510827 180.37157 
L 146.327522 176.799619 
L 151.135531 187.027777 
L 140.0682 184.737289 
L 142.884895 181.165337 
L 142.884895 181.165337 
L 143.510827 180.37157 
" style="fill:#ff0000;"/>
    <path clip-path="url(#p0036e7f439)" d="M 257.082962 162.801351 
L 257.082962 162.801351 
L 256.596655 167.324195 
L 247.086233 161.21813 
L 257.677338 157.273431 
L 257.191031 161.796275 
L 257.191031 161.796275 
L 257.082962 162.801351 
" style="fill:#ff0000;"/>
   </g>
   <g id="Quiver_2">
    <path clip-path="url(#p0036e7f439)" d="M 246.451748 193.27325 
L 246.451748 193.27325 
L 246.198389 188.731398 
L 256.572903 193.21488 
L 246.761409 198.824402 
L 246.50805 194.28255 
L 246.50805 194.28255 
L 246.451748 193.27325 
" style="fill:#0000ff;"/>
    <path clip-path="url(#p0036e7f439)" d="M 143.077916 181.574384 
L 143.077916 181.574384 
L 145.201829 177.551748 
L 151.781116 186.741152 
L 140.482021 186.490939 
L 142.605935 182.468303 
L 142.605935 182.468303 
L 143.077916 181.574384 
" style="fill:#0000ff;"/>
    <path clip-path="url(#p0036e7f439)" d="M 256.594177 167.292527 
L 256.594177 167.292527 
L 256.340819 171.834379 
L 246.529324 166.224857 
L 256.903838 161.741374 
L 256.650479 166.283226 
L 256.650479 166.283226 
L 256.594177 167.292527 
" style="fill:#0000ff;"/>
   </g>
   <g id="line2d_1">
    <path clip-path="url(#p0036e7f439)" d="M 308.651514 182.3802 
L 308.50914 183.41742 
L 308.142315 184.445346 
L 307.526537 185.497637 
L 306.627191 186.581634 
L 305.398185 187.702952 
L 303.798924 188.853566 
L 301.768481 190.034964 
L 299.234037 191.245244 
L 296.166166 192.458405 
L 292.490658 193.666896 
L 288.193575 194.840966 
L 283.244273 195.95917 
L 277.621566 196.998002 
L 271.359396 197.926401 
L 264.469992 198.720844 
L 257.027914 199.353806 
L 249.080564 199.804829 
L 240.740693 200.053398 
L 232.138657 200.08566 
L 223.416915 199.895142 
L 214.723692 199.483106 
L 206.206221 198.858513 
L 197.955156 198.032018 
L 190.149126 197.029652 
L 182.851548 195.872059 
L 176.155224 194.588955 
L 170.090244 193.203904 
L 164.743732 191.760027 
L 160.100131 190.282423 
L 156.132335 188.793497 
L 152.804027 187.3129 
L 150.092449 185.869632 
L 147.938676 184.478678 
L 146.28116 183.152099 
L 145.057541 181.899309 
L 144.190907 180.702137 
L 143.643314 179.578225 
L 143.360673 178.506008 
L 143.312071 177.463109 
L 143.488288 176.427109 
L 143.895034 175.388531 
L 144.548325 174.338557 
L 145.486556 173.257498 
L 146.756059 172.139838 
L 148.415156 170.98239 
L 150.513348 169.795892 
L 153.123777 168.582634 
L 156.275039 167.368904 
L 160.041193 166.162702 
L 164.434761 164.994057 
L 169.485128 163.88476 
L 175.211878 162.858635 
L 181.578701 161.946869 
L 188.57116 161.173168 
L 196.111882 160.564984 
L 204.100758 160.144724 
L 212.469887 159.928024 
L 221.08782 159.928218 
L 229.811456 160.151232 
L 238.492411 160.595247 
L 246.983789 161.250765 
L 255.146859 162.101061 
L 262.903709 163.129854 
L 270.141832 164.311766 
L 276.770098 165.616794 
L 282.722041 167.011667 
L 287.957637 168.461257 
L 292.525229 169.951834 
L 296.388204 171.440051 
L 299.618504 172.917052 
L 302.240362 174.354233 
L 304.313276 175.737059 
L 305.899075 177.053886 
L 307.060154 178.29567 
L 307.872323 179.480915 
L 308.378067 180.604852 
L 308.620549 181.676558 
L 308.651514 182.3802 
L 308.651514 182.3802 
" style="fill:none;stroke:#ff0000;stroke-linecap:square;stroke-width:1.5;"/>
   </g>
   <g id="line2d_2">
    <path clip-path="url(#p0036e7f439)" d="M 308.685771 180 
L 308.573305 180.739772 
L 308.230787 181.486401 
L 307.617934 182.272909 
L 306.670769 183.113239 
L 305.298832 184.019272 
L 303.418696 184.983036 
L 300.922988 186.002158 
L 297.71525 187.062338 
L 293.702193 188.145649 
L 288.831979 189.223446 
L 283.043573 190.271589 
L 276.293895 191.262383 
L 268.652599 192.155588 
L 260.146993 192.922786 
L 250.932518 193.529059 
L 241.107354 193.950935 
L 230.899686 194.165221 
L 220.564069 194.159928 
L 210.313004 193.933505 
L 200.355987 193.492253 
L 190.983347 192.857539 
L 182.306532 192.050857 
L 174.495184 191.105981 
L 167.628589 190.056934 
L 161.744176 188.939119 
L 156.83909 187.787797 
L 152.873934 186.636765 
L 149.75805 185.509097 
L 147.408357 184.432104 
L 145.710573 183.421279 
L 144.543107 182.479497 
L 143.808085 181.614922 
L 143.407424 180.815452 
L 143.271441 180.05796 
L 143.366294 179.318115 
L 143.691036 178.571253 
L 144.285159 177.784321 
L 145.212312 176.943335 
L 146.548167 176.044911 
L 148.383804 175.088002 
L 150.826035 174.074709 
L 153.971246 173.019025 
L 157.913018 171.93853 
L 162.704228 170.861543 
L 168.444471 169.805632 
L 175.107593 168.811255 
L 182.704452 167.90696 
L 191.124681 167.131165 
L 200.306577 166.510512 
L 210.057926 166.075009 
L 220.2011 165.844295 
L 230.536481 165.831202 
L 240.800678 166.039377 
L 250.783824 166.462893 
L 260.241625 167.084591 
L 268.963822 167.876736 
L 276.869415 168.813998 
L 283.82859 169.858502 
L 289.801128 170.974592 
L 294.787619 172.126685 
L 298.825775 173.280623 
L 301.984956 174.404739 
L 304.392557 175.487502 
L 306.138297 176.505212 
L 307.344403 177.454682 
L 308.109307 178.327508 
L 308.532178 179.13559 
L 308.683419 179.892997 
L 308.685771 180 
L 308.685771 180 
" style="fill:none;stroke:#0000ff;stroke-dasharray:6.000000,6.000000;stroke-dashoffset:0.0;stroke-width:1.5;"/>
   </g>
   <g id="patch_3">
    <path d="M 316.956522 270.978261 
L 316.956522 89.021739 
" style="fill:none;stroke:#000000;stroke-linecap:square;stroke-linejoin:miter;"/>
   </g>
   <g id="patch_4">
    <path d="M 135 270.978261 
L 316.956522 270.978261 
" style="fill:none;stroke:#000000;stroke-linecap:square;stroke-linejoin:miter;"/>
   </g>
   <g id="patch_5">
    <path d="M 135 270.978261 
L 135 89.021739 
" style="fill:none;stroke:#000000;stroke-linecap:square;stroke-linejoin:miter;"/>
   </g>
   <g id="patch_6">
    <path d="M 135 89.021739 
L 316.956522 89.021739 
" style="fill:none;stroke:#000000;stroke-linecap:square;stroke-linejoin:miter;"/>
   </g>
   <g id="text_1">
    <!-- $m = -2$ -->
    <g transform="translate(199.77026087 84.0217391304)">
     <text>
      <tspan style="font-family:cmr10;font-size:14.399999999999999px;font-style:regular;font-weight:regular;" x="15.160748291015626 45.099978637695315" y="-0.421875">=2</tspan>
      <tspan style="font-family:cmsy10;font-size:14.399999999999999px;font-style:regular;font-weight:regular;" x="31.39375915527344" y="-0.421875">ยก</tspan>
      <tspan style="font-family:cmmi10;font-size:14.399999999999999px;font-style:regular;font-weight:regular;" x="0.0" y="-0.421875">m</tspan>
     </text>
    </g>
   </g>
  </g>
  <g id="axes_2">
   <g id="patch_7">
    <path d="M 353.347826 270.978261 
L 535.304348 270.978261 
L 535.304348 89.021739 
L 353.347826 89.021739 
z
" style="fill:#ffffff;"/>
   </g>
   <g id="Quiver_3">
    <path clip-path="url(#p9aaa8010cb)" d="M 468.878175 170.839935 
L 468.878175 170.839935 
L 464.825181 168.774542 
L 473.918271 162.062769 
L 473.831835 173.364304 
L 469.778841 171.298911 
L 469.778841 171.298911 
L 468.878175 170.839935 
" style="fill:#ff0000;"/>
    <path clip-path="url(#p9aaa8010cb)" d="M 403.75994 252.028781 
L 403.75994 252.028781 
L 401.750337 247.947837 
L 413.051994 248.016435 
L 406.216121 257.016602 
L 404.206518 252.935658 
L 404.206518 252.935658 
L 403.75994 252.028781 
" style="fill:#ff0000;"/>
    <path clip-path="url(#p9aaa8010cb)" d="M 446.604909 145.692548 
L 446.604909 145.692548 
L 450.339548 148.289677 
L 440.41855 153.703175 
L 442.040351 142.518278 
L 445.77499 145.115408 
L 445.77499 145.115408 
L 446.604909 145.692548 
" style="fill:#ff0000;"/>
   </g>
   <g id="Quiver_4">
    <path clip-path="url(#p9aaa8010cb)" d="M 466.057802 168.906065 
L 466.057802 168.906065 
L 461.997764 166.854554 
L 471.06783 160.111703 
L 471.020072 171.413467 
L 466.960033 169.361956 
L 466.960033 169.361956 
L 466.057802 168.906065 
" style="fill:#0000ff;"/>
    <path clip-path="url(#p9aaa8010cb)" d="M 404.239371 252.580997 
L 404.239371 252.580997 
L 401.817623 248.730316 
L 413.065523 247.627188 
L 407.199285 257.287385 
L 404.777537 253.436704 
L 404.777537 253.436704 
L 404.239371 252.580997 
" style="fill:#0000ff;"/>
    <path clip-path="url(#p9aaa8010cb)" d="M 448.629051 147.132102 
L 448.629051 147.132102 
L 452.43573 149.622443 
L 442.671995 155.314686 
L 443.976442 144.088352 
L 447.783122 146.578693 
L 447.783122 146.578693 
L 448.629051 147.132102 
" style="fill:#0000ff;"/>
   </g>
   <g id="line2d_3">
    <path clip-path="url(#p9aaa8010cb)" d="M 486.811351 109.0385 
L 487.530477 109.600128 
L 488.138631 110.363449 
L 488.63983 111.358488 
L 489.025767 112.63376 
L 489.272575 114.239667 
L 489.347913 116.23675 
L 489.210115 118.695722 
L 488.816153 121.64498 
L 488.117309 125.155962 
L 487.064672 129.274379 
L 485.621586 134.003498 
L 483.750014 139.36225 
L 481.416539 145.356666 
L 478.61258 151.935816 
L 475.346861 159.023857 
L 471.645883 166.521957 
L 467.529168 174.356538 
L 463.077511 182.349913 
L 458.33774 190.402856 
L 453.418901 198.322851 
L 448.412032 205.96681 
L 443.410094 213.203005 
L 438.475575 219.95436 
L 433.721682 226.085722 
L 429.2233 231.529909 
L 425.042354 236.247766 
L 421.225938 240.228446 
L 417.782588 243.508784 
L 414.711377 246.135836 
L 412.02321 248.15045 
L 409.716114 249.611821 
L 407.743799 250.607923 
L 406.078051 251.209254 
L 404.688779 251.484276 
L 403.521223 251.495844 
L 402.542485 251.287013 
L 401.725079 250.88923 
L 401.023531 250.298656 
L 400.433439 249.506323 
L 399.946406 248.468644 
L 399.579178 247.144594 
L 399.356155 245.483334 
L 399.310239 243.423955 
L 399.483661 240.895501 
L 399.924003 237.843971 
L 400.673239 234.248163 
L 401.782697 230.039844 
L 403.288322 225.217598 
L 405.227551 219.764266 
L 407.632937 213.675983 
L 410.51156 207.006521 
L 413.852967 199.834699 
L 417.628757 192.262331 
L 421.793182 184.41063 
L 426.310685 176.370377 
L 431.082913 168.331656 
L 436.024388 160.442054 
L 441.04374 152.843974 
L 446.048036 145.667927 
L 450.947112 139.026588 
L 455.657625 133.009967 
L 460.106544 127.68202 
L 464.23386 123.078855 
L 467.994371 119.208573 
L 471.381087 116.032556 
L 474.375181 113.518955 
L 476.991364 111.601959 
L 479.250626 110.21192 
L 481.178523 109.277811 
L 482.80365 108.729236 
L 484.156309 108.498035 
L 485.290894 108.522567 
L 486.240118 108.760514 
L 486.811351 109.0385 
L 486.811351 109.0385 
" style="fill:none;stroke:#ff0000;stroke-linecap:square;stroke-width:1.5;"/>
   </g>
   <g id="line2d_4">
    <path clip-path="url(#p9aaa8010cb)" d="M 485.679842 108.373195 
L 486.264271 108.840479 
L 486.739611 109.510423 
L 487.114321 110.434424 
L 487.368485 111.674858 
L 487.467165 113.316006 
L 487.361741 115.426134 
L 486.996472 118.097042 
L 486.310745 121.405114 
L 485.242392 125.422179 
L 483.740685 130.178806 
L 481.7542 135.715784 
L 479.237414 142.056574 
L 476.190304 149.120733 
L 472.601914 156.870403 
L 468.519725 165.153509 
L 463.972498 173.873288 
L 459.05424 182.820532 
L 453.881848 191.768792 
L 448.560228 200.533263 
L 443.199583 208.935667 
L 437.963586 216.735254 
L 432.926571 223.846255 
L 428.202611 230.138643 
L 423.860811 235.560765 
L 419.950548 240.097909 
L 416.500932 243.770177 
L 413.521531 246.628587 
L 410.986999 248.763187 
L 408.87945 250.259585 
L 407.155157 251.224496 
L 405.755817 251.764661 
L 404.639562 251.968921 
L 403.746871 251.916168 
L 403.022872 251.655187 
L 402.429574 251.203119 
L 401.945143 250.548454 
L 401.560702 249.640462 
L 401.295963 248.417031 
L 401.185832 246.810934 
L 401.274943 244.742772 
L 401.618521 242.121092 
L 402.276877 238.869417 
L 403.312028 234.915495 
L 404.774935 230.227692 
L 406.730611 224.72854 
L 409.201016 218.460918 
L 412.216303 211.429698 
L 415.754559 203.749668 
L 419.808006 195.487587 
L 424.306523 186.824919 
L 429.178306 177.925316 
L 434.334658 168.968067 
L 439.647042 160.183099 
L 445.00539 151.749199 
L 450.272697 143.869352 
L 455.319813 136.71178 
L 460.084302 130.333966 
L 464.468457 124.829396 
L 468.421288 120.215072 
L 471.912275 116.47269 
L 474.930693 113.552514 
L 477.483797 111.37864 
L 479.625297 109.834978 
L 481.37953 108.831979 
L 482.804848 108.262195 
L 483.943189 108.036182 
L 484.854445 108.074006 
L 485.585999 108.32173 
L 485.679842 108.373195 
L 485.679842 108.373195 
" style="fill:none;stroke:#0000ff;stroke-dasharray:6.000000,6.000000;stroke-dashoffset:0.0;stroke-width:1.5;"/>
   </g>
   <g id="patch_8">
    <path d="M 535.304348 270.978261 
L 535.304348 89.021739 
" style="fill:none;stroke:#000000;stroke-linecap:square;stroke-linejoin:miter;"/>
   </g>
   <g id="patch_9">
    <path d="M 353.347826 270.978261 
L 535.304348 270.978261 
" style="fill:none;stroke:#000000;stroke-linecap:square;stroke-linejoin:miter;"/>
   </g>
   <g id="patch_10">
    <path d="M 353.347826 270.978261 
L 353.347826 89.021739 
" style="fill:none;stroke:#000000;stroke-linecap:square;stroke-linejoin:miter;"/>
   </g>
   <g id="patch_11">
    <path d="M 353.347826 89.021739 
L 535.304348 89.021739 
" style="fill:none;stroke:#000000;stroke-linecap:square;stroke-linejoin:miter;"/>
   </g>
   <g id="text_2">
    <!-- $m = -1$ -->
    <g transform="translate(418.118086957 84.0217391304)">
     <text>
      <tspan style="font-family:cmr10;font-size:14.399999999999999px;font-style:regular;font-weight:regular;" x="15.160748291015626 45.099978637695315" y="-0.421875">=1</tspan>
      <tspan style="font-family:cmsy10;font-size:14.399999999999999px;font-style:regular;font-weight:regular;" x="31.39375915527344" y="-0.421875">ยก</tspan>
      <tspan style="font-family:cmmi10;font-size:14.399999999999999px;font-style:regular;font-weight:regular;" x="0.0" y="-0.421875">m</tspan>
     </text>
    </g>
   </g>
  </g>
  <g id="axes_3">
   <g id="patch_12">
    <path d="M 571.695652 270.978261 
L 753.652174 270.978261 
L 753.652174 89.021739 
L 571.695652 89.021739 
z
" style="fill:#ffffff;"/>
   </g>
   <g id="Quiver_5">
    <path clip-path="url(#p4097296bdd)" d="M 657.811096 200.974125 
L 657.811096 200.974125 
L 662.330191 200.45414 
L 658.464496 211.074335 
L 652.287756 201.609662 
L 656.806852 201.089677 
L 656.806852 201.089677 
L 657.811096 200.974125 
" style="fill:#ff0000;"/>
    <path clip-path="url(#p4097296bdd)" d="M 655.091288 96.935936 
L 655.091288 96.935936 
L 659.565412 97.757413 
L 652.76866 106.787159 
L 649.622914 95.93191 
L 654.097038 96.753386 
L 654.097038 96.753386 
L 655.091288 96.935936 
" style="fill:#ff0000;"/>
    <path clip-path="url(#p4097296bdd)" d="M 671.616546 209.980127 
L 671.616546 209.980127 
L 667.07495 210.238033 
L 671.548043 199.859035 
L 677.167385 209.664909 
L 672.625789 209.922815 
L 672.625789 209.922815 
L 671.616546 209.980127 
" style="fill:#ff0000;"/>
   </g>
   <g id="Quiver_6">
    <path clip-path="url(#p4097296bdd)" d="M 661.415685 204.367185 
L 661.415685 204.367185 
L 665.222365 201.876844 
L 666.526812 213.103178 
L 656.763076 207.410935 
L 660.569756 204.920594 
L 660.569756 204.920594 
L 661.415685 204.367185 
" style="fill:#0000ff;"/>
    <path clip-path="url(#p4097296bdd)" d="M 619.860284 108.993387 
L 619.860284 108.993387 
L 624.405946 108.821432 
L 619.737332 119.113964 
L 614.304475 109.203554 
L 618.850137 109.031599 
L 618.850137 109.031599 
L 619.860284 108.993387 
" style="fill:#0000ff;"/>
    <path clip-path="url(#p4097296bdd)" d="M 688.986866 200.160425 
L 688.986866 200.160425 
L 684.926827 202.211936 
L 684.879069 190.910171 
L 693.949135 197.653023 
L 689.889097 199.704534 
L 689.889097 199.704534 
L 688.986866 200.160425 
" style="fill:#0000ff;"/>
   </g>
   <g id="line2d_5">
    <path clip-path="url(#p4097296bdd)" d="M 669.748608 262.404374 
L 669.356805 262.325133 
L 668.916516 261.991428 
L 668.382693 261.285295 
L 667.719655 260.008859 
L 666.910873 257.931957 
L 665.94739 254.806466 
L 664.825035 250.373141 
L 663.547079 244.378982 
L 662.139965 236.675937 
L 660.636291 227.172356 
L 659.087684 215.927037 
L 657.567756 203.236776 
L 656.142647 189.450491 
L 654.891325 175.182003 
L 653.870287 161.00768 
L 653.124194 147.59767 
L 652.667962 135.486948 
L 652.490397 125.030743 
L 652.558951 116.496718 
L 652.824918 109.838115 
L 653.229289 104.973715 
L 653.714725 101.63778 
L 654.228889 99.529449 
L 654.726076 98.341739 
L 655.180947 97.774773 
L 655.583112 97.597209 
L 655.974125 97.667001 
L 656.408568 97.985534 
L 656.941295 98.676717 
L 657.597612 99.923414 
L 658.399145 101.959287 
L 659.355004 105.031456 
L 660.469632 109.398843 
L 661.740168 115.315081 
L 663.147117 122.967958 
L 664.645629 132.382849 
L 666.191138 143.537976 
L 667.716229 156.192497 
L 669.143561 169.906792 
L 670.404618 184.171676 
L 671.436992 198.36188 
L 672.195457 211.806187 
L 672.665746 224.010742 
L 672.854975 234.524167 
L 672.79669 243.155384 
L 672.53989 249.875178 
L 672.141175 254.821462 
L 671.658881 258.224902 
L 671.145702 260.385964 
L 670.643732 261.619474 
L 670.186369 262.209439 
L 669.780786 262.400808 
L 669.748608 262.404374 
L 669.748608 262.404374 
" style="fill:none;stroke:#ff0000;stroke-linecap:square;stroke-width:1.5;"/>
   </g>
   <g id="line2d_6">
    <path clip-path="url(#p4097296bdd)" d="M 704.027668 251.626805 
L 703.330774 251.899293 
L 702.512915 251.975978 
L 701.525352 251.838486 
L 700.324023 251.438381 
L 698.853407 250.703266 
L 697.078695 249.556903 
L 694.948255 247.905116 
L 692.426244 245.657224 
L 689.48154 242.72347 
L 686.113034 239.04464 
L 682.311113 234.555805 
L 678.078221 229.205809 
L 673.484034 223.034855 
L 668.566818 216.052383 
L 663.434532 208.37555 
L 658.156596 200.077647 
L 652.867184 191.344689 
L 647.70396 182.391136 
L 642.774515 173.400242 
L 638.178142 164.556586 
L 634.041501 156.122286 
L 630.4017 148.204602 
L 627.314313 140.967339 
L 624.789517 134.496169 
L 622.815366 128.84121 
L 621.359898 124.01762 
L 620.374142 120.008178 
L 619.79279 116.74591 
L 619.550646 114.172519 
L 619.577155 112.196782 
L 619.809028 110.714836 
L 620.190261 109.646001 
L 620.682292 108.899284 
L 621.270308 108.402773 
L 621.958459 108.114996 
L 622.767632 108.022799 
L 623.746196 108.14386 
L 624.938088 108.526304 
L 626.384074 109.233976 
L 628.130599 110.34523 
L 630.229253 111.953617 
L 632.716108 114.149608 
L 635.622729 117.023036 
L 638.951032 120.633852 
L 642.735599 125.077092 
L 646.928317 130.350337 
L 651.509888 136.477262 
L 656.391861 143.381497 
L 661.52031 151.022926 
L 666.773142 159.25009 
L 672.044533 167.918979 
L 677.223562 176.863135 
L 682.175375 185.856278 
L 686.800173 194.713695 
L 690.990667 203.215239 
L 694.665748 211.164956 
L 697.806852 218.480032 
L 700.381872 225.029106 
L 702.401579 230.75952 
L 703.897083 235.653995 
L 704.916821 239.728109 
L 705.522899 243.026099 
L 705.788999 245.652524 
L 705.780506 247.673234 
L 705.561294 249.192487 
L 705.187857 250.291326 
L 704.699472 251.061585 
L 704.119159 251.571267 
L 704.027668 251.626805 
L 704.027668 251.626805 
" style="fill:none;stroke:#0000ff;stroke-dasharray:6.000000,6.000000;stroke-dashoffset:0.0;stroke-width:1.5;"/>
   </g>
   <g id="patch_13">
    <path d="M 753.652174 270.978261 
L 753.652174 89.021739 
" style="fill:none;stroke:#000000;stroke-linecap:square;stroke-linejoin:miter;"/>
   </g>
   <g id="patch_14">
    <path d="M 571.695652 270.978261 
L 753.652174 270.978261 
" style="fill:none;stroke:#000000;stroke-linecap:square;stroke-linejoin:miter;"/>
   </g>
   <g id="patch_15">
    <path d="M 571.695652 270.978261 
L 571.695652 89.021739 
" style="fill:none;stroke:#000000;stroke-linecap:square;stroke-linejoin:miter;"/>
   </g>
   <g id="patch_16">
    <path d="M 571.695652 89.021739 
L 753.652174 89.021739 
" style="fill:none;stroke:#000000;stroke-linecap:square;stroke-linejoin:miter;"/>
   </g>
   <g id="text_3">
    <!-- $m = 1$ -->
    <g transform="translate(644.601913043 84.0217391304)">
     <text>
      <tspan style="font-family:cmr10;font-size:14.399999999999999px;font-style:regular;font-weight:regular;" x="15.160748291015626 28.8669677734375" y="-0.421875">=1</tspan>
      <tspan style="font-family:cmmi10;font-size:14.399999999999999px;font-style:regular;font-weight:regular;" x="0.0" y="-0.421875">m</tspan>
     </text>
    </g>
   </g>
  </g>
  <g id="axes_4">
   <g id="patch_17">
    <path d="M 790.043478 270.978261 
L 972 270.978261 
L 972 89.021739 
L 790.043478 89.021739 
z
" style="fill:#ffffff;"/>
   </g>
   <g id="Quiver_7">
    <path clip-path="url(#pd356d35cb1)" d="M 873.252177 113.107405 
L 873.252177 113.107405 
L 872.45001 108.629779 
L 883.291587 111.822325 
L 874.232604 118.58006 
L 873.430436 114.102433 
L 873.430436 114.102433 
L 873.252177 113.107405 
" style="fill:#ff0000;"/>
    <path clip-path="url(#pd356d35cb1)" d="M 800.771948 199.424944 
L 800.771948 199.424944 
L 796.226673 199.606835 
L 800.872776 189.304123 
L 806.327284 199.202633 
L 801.782009 199.384524 
L 801.782009 199.384524 
L 800.771948 199.424944 
" style="fill:#ff0000;"/>
    <path clip-path="url(#pd356d35cb1)" d="M 934.47012 223.194508 
L 934.47012 223.194508 
L 937.335266 226.727714 
L 926.300201 229.16892 
L 930.968275 218.876144 
L 933.833421 222.409351 
L 933.833421 222.409351 
L 934.47012 223.194508 
" style="fill:#ff0000;"/>
   </g>
   <g id="Quiver_8">
    <path clip-path="url(#pd356d35cb1)" d="M 901.919482 99.293819 
L 901.919482 99.293819 
L 903.325989 94.967811 
L 911.376555 102.900058 
L 900.200418 104.581163 
L 901.606925 100.255154 
L 901.606925 100.255154 
L 901.919482 99.293819 
" style="fill:#0000ff;"/>
    <path clip-path="url(#pd356d35cb1)" d="M 800.312276 159.114936 
L 800.312276 159.114936 
L 795.986047 157.709109 
L 803.917029 149.657296 
L 805.59989 160.833169 
L 801.273661 159.427342 
L 801.273661 159.427342 
L 800.312276 159.114936 
" style="fill:#0000ff;"/>
    <path clip-path="url(#pd356d35cb1)" d="M 911.582259 257.56454 
L 911.582259 257.56454 
L 912.988766 261.890549 
L 901.812629 260.209444 
L 909.863195 252.277197 
L 911.269702 256.603205 
L 911.269702 256.603205 
L 911.582259 257.56454 
" style="fill:#0000ff;"/>
   </g>
   <g id="line2d_7">
    <path clip-path="url(#pd356d35cb1)" d="M 956.223574 145.573032 
L 954.699753 142.514603 
L 952.975557 139.55812 
L 951.055676 136.711622 
L 948.945331 133.982851 
L 946.650262 131.379228 
L 944.176709 128.907834 
L 941.498511 126.548162 
L 938.651854 124.33738 
L 935.644669 122.281647 
L 932.446838 120.36512 
L 929.102332 118.618684 
L 925.578953 117.029894 
L 921.92548 115.624958 
L 918.108051 114.394946 
L 914.134057 113.350228 
L 910.058838 112.509261 
L 905.847072 111.868598 
L 901.55768 111.440974 
L 897.154844 111.226553 
L 892.700422 111.232037 
L 888.158592 111.461147 
L 883.593432 111.914308 
L 879.019866 112.59004 
L 874.402748 113.497193 
L 869.807746 114.626546 
L 865.250212 115.974323 
L 860.696753 117.554154 
L 856.212688 119.347188 
L 851.813326 121.347302 
L 847.513687 123.547669 
L 843.328451 125.940775 
L 839.271907 128.51845 
L 835.399187 131.241384 
L 831.678899 134.12723 
L 828.123476 137.166346 
L 824.744796 140.348577 
L 821.587779 143.626588 
L 818.625051 147.023503 
L 815.89547 150.48916 
L 813.374132 154.049178 
L 811.093496 157.651283 
L 809.031519 161.323271 
L 807.214014 165.011463 
L 805.622142 168.745475 
L 804.274929 172.47092 
L 803.168567 176.175696 
L 802.289513 179.891637 
L 801.646553 183.564722 
L 801.229987 187.22764 
L 801.041902 190.827253 
L 801.076601 194.396706 
L 801.333988 197.926057 
L 801.806338 201.364384 
L 802.494122 204.74461 
L 803.395469 208.057539 
L 804.507929 211.294164 
L 805.828475 214.445681 
L 807.353516 217.50352 
L 809.078905 220.459365 
L 810.99995 223.305176 
L 813.111426 226.033215 
L 815.40759 228.636062 
L 817.882198 231.106639 
L 820.561421 233.465444 
L 823.409057 235.675321 
L 826.417174 237.730113 
L 829.615894 239.645655 
L 832.961235 241.391076 
L 836.485401 242.97881 
L 840.139599 244.382664 
L 843.957698 245.611559 
L 847.932301 246.655128 
L 852.00806 247.49493 
L 856.220299 248.134401 
L 860.51009 248.560823 
L 864.913252 248.774024 
L 869.367921 248.767318 
L 873.909919 248.536974 
L 878.475166 248.082585 
L 883.048737 247.405636 
L 887.665776 246.497266 
L 892.260616 245.366716 
L 896.817905 244.017763 
L 901.371032 242.436771 
L 905.854683 240.642607 
L 910.253549 238.641397 
L 914.552612 236.439973 
L 918.737194 234.045853 
L 922.793007 231.467209 
L 926.664934 228.743364 
L 930.384358 225.856658 
L 933.938853 222.816737 
L 937.316541 219.633757 
L 940.472518 216.355062 
L 943.434151 212.957524 
L 946.162599 209.491313 
L 948.682757 205.930802 
L 950.962183 202.328272 
L 953.022914 198.655924 
L 954.839152 194.96744 
L 956.429727 191.2332 
L 957.775633 187.507594 
L 958.880682 183.802722 
L 959.758406 180.086747 
L 960.400039 176.413691 
L 960.815269 172.750864 
L 961.002029 169.151402 
L 960.966004 165.582158 
L 960.707293 162.053075 
L 960.23364 158.61507 
L 959.544564 155.235222 
L 958.641937 151.922725 
L 957.528214 148.686587 
L 956.223574 145.573032 
L 956.223574 145.573032 
" style="fill:none;stroke:#ff0000;stroke-linecap:square;stroke-width:1.5;"/>
   </g>
   <g id="line2d_8">
    <path clip-path="url(#pd356d35cb1)" d="M 963.729249 180 
L 963.616784 175.688291 
L 963.279693 171.388308 
L 962.718894 167.111746 
L 961.935912 162.870235 
L 960.932876 158.675309 
L 959.712514 154.538378 
L 958.278145 150.470692 
L 956.633669 146.483314 
L 954.78356 142.587088 
L 952.732849 138.79261 
L 950.487112 135.1102 
L 948.052457 131.549871 
L 945.435507 128.121307 
L 942.643376 124.833833 
L 939.68366 121.696388 
L 936.564407 118.717505 
L 933.294101 115.905286 
L 929.881634 113.267378 
L 926.336289 110.810956 
L 922.667706 108.542701 
L 918.885864 106.46878 
L 915.001046 104.594835 
L 911.023818 102.925961 
L 906.964996 101.466698 
L 902.83562 100.221013 
L 898.646918 99.192295 
L 894.410284 98.383341 
L 890.137237 97.796351 
L 885.8394 97.432922 
L 881.528462 97.294042 
L 877.216145 97.380089 
L 872.914177 97.690829 
L 868.634259 98.225416 
L 864.38803 98.982397 
L 860.187038 99.959714 
L 856.042708 101.154707 
L 851.966311 102.564128 
L 847.968933 104.184143 
L 844.061445 106.010346 
L 840.254474 108.037772 
L 836.558373 110.260906 
L 832.983195 112.673701 
L 829.538663 115.269597 
L 826.234143 118.041534 
L 823.078624 120.981972 
L 820.080686 124.082916 
L 817.248484 127.335932 
L 814.589719 130.732172 
L 812.111622 134.262401 
L 809.820933 137.917018 
L 807.723881 141.686084 
L 805.82617 145.559348 
L 804.13296 149.526276 
L 802.648857 153.576081 
L 801.377896 157.697748 
L 800.323534 161.880069 
L 799.488639 166.111668 
L 798.875481 170.381038 
L 798.485727 174.676567 
L 798.320438 178.986574 
L 798.380063 183.299337 
L 798.66444 187.603128 
L 799.172796 191.886241 
L 799.903748 196.137028 
L 800.855307 200.343929 
L 802.024888 204.495502 
L 803.409307 208.580458 
L 805.004801 212.587687 
L 806.80703 216.50629 
L 808.811094 220.325611 
L 811.011541 224.035262 
L 813.402387 227.625156 
L 815.977131 231.085528 
L 818.72877 234.406968 
L 821.64982 237.580443 
L 824.732338 240.597323 
L 827.967941 243.449403 
L 831.347828 246.128925 
L 834.862809 248.628604 
L 838.503323 250.941641 
L 842.25947 253.061745 
L 846.121034 254.983151 
L 850.077514 256.700633 
L 854.118151 258.209521 
L 858.231954 259.50571 
L 862.407736 260.585675 
L 866.63414 261.446481 
L 870.899673 262.085784 
L 875.192734 262.501848 
L 879.501648 262.69354 
L 883.814695 262.660339 
L 888.120147 262.402335 
L 892.406294 261.92023 
L 896.66148 261.215335 
L 900.874132 260.289568 
L 905.032793 259.145445 
L 909.126154 257.786079 
L 913.143083 256.215166 
L 917.072654 254.436978 
L 920.904181 252.456352 
L 924.627245 250.278674 
L 928.231719 247.909867 
L 931.707801 245.356372 
L 935.046037 242.625134 
L 938.237349 239.723581 
L 941.273058 236.659605 
L 944.144907 233.441537 
L 946.845087 230.078129 
L 949.366254 226.57853 
L 951.701552 222.952255 
L 953.844629 219.209168 
L 955.789658 215.359448 
L 957.531348 211.413564 
L 959.064962 207.382248 
L 960.386331 203.276464 
L 961.49186 199.107377 
L 962.378543 194.886325 
L 963.043968 190.624789 
L 963.486326 186.334358 
L 963.704414 182.0267 
L 963.729249 180 
L 963.729249 180 
" style="fill:none;stroke:#0000ff;stroke-dasharray:6.000000,6.000000;stroke-dashoffset:0.0;stroke-width:1.5;"/>
   </g>
   <g id="patch_18">
    <path d="M 972 270.978261 
L 972 89.021739 
" style="fill:none;stroke:#000000;stroke-linecap:square;stroke-linejoin:miter;"/>
   </g>
   <g id="patch_19">
    <path d="M 790.043478 270.978261 
L 972 270.978261 
" style="fill:none;stroke:#000000;stroke-linecap:square;stroke-linejoin:miter;"/>
   </g>
   <g id="patch_20">
    <path d="M 790.043478 270.978261 
L 790.043478 89.021739 
" style="fill:none;stroke:#000000;stroke-linecap:square;stroke-linejoin:miter;"/>
   </g>
   <g id="patch_21">
    <path d="M 790.043478 89.021739 
L 972 89.021739 
" style="fill:none;stroke:#000000;stroke-linecap:square;stroke-linejoin:miter;"/>
   </g>
   <g id="text_4">
    <!-- $m = 2$ -->
    <g transform="translate(862.94973913 84.0217391304)">
     <text>
      <tspan style="font-family:cmr10;font-size:14.399999999999999px;font-style:regular;font-weight:regular;" x="15.160748291015626 28.8669677734375" y="-0.421875">=2</tspan>
      <tspan style="font-family:cmmi10;font-size:14.399999999999999px;font-style:regular;font-weight:regular;" x="0.0" y="-0.421875">m</tspan>
     </text>
    </g>
   </g>
  </g>
  <g id="legend_1">
   <g id="patch_22">
    <path d="M 489.220875 352.8 
L 590.779125 352.8 
L 590.779125 306.207 
L 489.220875 306.207 
z
" style="fill:#ffffff;stroke:#000000;stroke-linejoin:miter;"/>
   </g>
   <g id="line2d_9">
    <path d="M 499.300875 317.86875 
L 519.460875 317.86875 
" style="fill:none;stroke:#0000ff;stroke-dasharray:6.000000,6.000000;stroke-dashoffset:0.0;stroke-width:1.5;"/>
   </g>
   <g id="line2d_10"/>
   <g id="text_5">
    <text style="font-family:Bitstream Vera Sans;font-size:14.399999999999999px;font-style:normal;font-weight:400;text-anchor:start;" transform="rotate(-0.000000, 535.300875, 322.908750)" x="535.300875" y="322.90875">Design</text>
   </g>
   <g id="line2d_11">
    <path d="M 499.300875 339.00525 
L 519.460875 339.00525 
" style="fill:none;stroke:#ff0000;stroke-linecap:square;stroke-width:1.5;"/>
   </g>
   <g id="line2d_12"/>
   <g id="text_6">
    <text style="font-family:Bitstream Vera Sans;font-size:14.399999999999999px;font-style:normal;font-weight:400;text-anchor:start;" transform="rotate(-0.000000, 535.300875, 344.045250)" x="535.300875" y="344.04525">0.8</text>
   </g>
  </g>
 </g>
 <defs>
  <clipPath id="pd356d35cb1">
   <rect height="181.956521739" width="181.956521739" x="790.043478261" y="89.0217391304"/>
  </clipPath>
  <clipPath id="p0036e7f439">
   <rect height="181.956521739" width="181.956521739" x="135.0" y="89.0217391304"/>
  </clipPath>
  <clipPath id="p9aaa8010cb">
   <rect height="181.956521739" width="181.956521739" x="353.347826087" y="89.0217391304"/>
  </clipPath>
  <clipPath id="p4097296bdd">
   <rect height="181.956521739" width="181.956521739" x="571.695652174" y="89.0217391304"/>
  </clipPath>
 </defs>
</svg>
