<?xml version="1.0" encoding="utf-8" standalone="no"?>
<!DOCTYPE svg PUBLIC "-//W3C//DTD SVG 1.1//EN"
  "http://www.w3.org/Graphics/SVG/1.1/DTD/svg11.dtd">
<!-- Created with matplotlib (http://matplotlib.org/) -->
<svg height="432pt" version="1.1" viewBox="0 0 576 432" width="576pt" xmlns="http://www.w3.org/2000/svg" xmlns:xlink="http://www.w3.org/1999/xlink">
 <defs>
  <style type="text/css">
*{stroke-linecap:butt;stroke-linejoin:round;stroke-miterlimit:100000;}
  </style>
 </defs>
 <g id="figure_1">
  <g id="patch_1">
   <path d="M 0 432 
L 576 432 
L 576 0 
L 0 0 
z
" style="fill:#ffffff;"/>
  </g>
  <g id="axes_1">
   <g id="patch_2">
    <path d="M 72 388.8 
L 518.4 388.8 
L 518.4 43.2 
L 72 43.2 
z
" style="fill:#ffffff;"/>
   </g>
   <g id="PathCollection_1">
    <defs>
     <path d="M 0 2.236068 
C 0.593012 2.236068 1.161816 2.000462 1.581139 1.581139 
C 2.000462 1.161816 2.236068 0.593012 2.236068 0 
C 2.236068 -0.593012 2.000462 -1.161816 1.581139 -1.581139 
C 1.161816 -2.000462 0.593012 -2.236068 0 -2.236068 
C -0.593012 -2.236068 -1.161816 -2.000462 -1.581139 -1.581139 
C -2.000462 -1.161816 -2.236068 -0.593012 -2.236068 0 
C -2.236068 0.593012 -2.000462 1.161816 -1.581139 1.581139 
C -1.161816 2.000462 -0.593012 2.236068 0 2.236068 
z
" id="m1f5c96f2c3" style="stroke:#0000ff;"/>
    </defs>
    <g clip-path="url(#p514e6a559e)">
     <use style="fill:#0000ff;stroke:#0000ff;" x="134.496" xlink:href="#m1f5c96f2c3" y="220.680612283"/>
     <use style="fill:#0000ff;stroke:#0000ff;" x="152.352" xlink:href="#m1f5c96f2c3" y="218.188296533"/>
     <use style="fill:#0000ff;stroke:#0000ff;" x="170.208" xlink:href="#m1f5c96f2c3" y="219.061458885"/>
     <use style="fill:#0000ff;stroke:#0000ff;" x="188.064" xlink:href="#m1f5c96f2c3" y="214.730810182"/>
     <use style="fill:#0000ff;stroke:#0000ff;" x="205.92" xlink:href="#m1f5c96f2c3" y="210.151017"/>
     <use style="fill:#0000ff;stroke:#0000ff;" x="223.776" xlink:href="#m1f5c96f2c3" y="204.706322182"/>
     <use style="fill:#0000ff;stroke:#0000ff;" x="241.632" xlink:href="#m1f5c96f2c3" y="208.946939844"/>
     <use style="fill:#0000ff;stroke:#0000ff;" x="259.488" xlink:href="#m1f5c96f2c3" y="209.972778667"/>
     <use style="fill:#0000ff;stroke:#0000ff;" x="277.344" xlink:href="#m1f5c96f2c3" y="206.403422609"/>
     <use style="fill:#0000ff;stroke:#0000ff;" x="295.2" xlink:href="#m1f5c96f2c3" y="205.969211345"/>
     <use style="fill:#0000ff;stroke:#0000ff;" x="313.056" xlink:href="#m1f5c96f2c3" y="192.042419874"/>
     <use style="fill:#0000ff;stroke:#0000ff;" x="330.912" xlink:href="#m1f5c96f2c3" y="199.859363721"/>
     <use style="fill:#0000ff;stroke:#0000ff;" x="348.768" xlink:href="#m1f5c96f2c3" y="205.129728"/>
     <use style="fill:#0000ff;stroke:#0000ff;" x="366.624" xlink:href="#m1f5c96f2c3" y="207.238536"/>
     <use style="fill:#0000ff;stroke:#0000ff;" x="384.48" xlink:href="#m1f5c96f2c3" y="209.915784"/>
     <use style="fill:#0000ff;stroke:#0000ff;" x="402.336" xlink:href="#m1f5c96f2c3" y="204.726458602"/>
     <use style="fill:#0000ff;stroke:#0000ff;" x="420.192" xlink:href="#m1f5c96f2c3" y="217.141363489"/>
     <use style="fill:#0000ff;stroke:#0000ff;" x="438.048" xlink:href="#m1f5c96f2c3" y="226.136055357"/>
     <use style="fill:#0000ff;stroke:#0000ff;" x="455.904" xlink:href="#m1f5c96f2c3" y="232.146093714"/>
     <use style="fill:#0000ff;stroke:#0000ff;" x="473.76" xlink:href="#m1f5c96f2c3" y="240.168762947"/>
    </g>
   </g>
   <g id="PathCollection_2">
    <defs>
     <path d="M 0 2.236068 
C 0.593012 2.236068 1.161816 2.000462 1.581139 1.581139 
C 2.000462 1.161816 2.236068 0.593012 2.236068 0 
C 2.236068 -0.593012 2.000462 -1.161816 1.581139 -1.581139 
C 1.161816 -2.000462 0.593012 -2.236068 0 -2.236068 
C -0.593012 -2.236068 -1.161816 -2.000462 -1.581139 -1.581139 
C -2.000462 -1.161816 -2.236068 -0.593012 -2.236068 0 
C -2.236068 0.593012 -2.000462 1.161816 -1.581139 1.581139 
C -1.161816 2.000462 -0.593012 2.236068 0 2.236068 
z
" id="m2337c285eb" style="stroke:#ffa500;"/>
    </defs>
    <g clip-path="url(#p514e6a559e)">
     <use style="fill:#ffa500;stroke:#ffa500;" x="134.496" xlink:href="#m2337c285eb" y="227.882009197"/>
     <use style="fill:#ffa500;stroke:#ffa500;" x="152.352" xlink:href="#m2337c285eb" y="229.188650667"/>
     <use style="fill:#ffa500;stroke:#ffa500;" x="170.208" xlink:href="#m2337c285eb" y="232.288005246"/>
     <use style="fill:#ffa500;stroke:#ffa500;" x="188.064" xlink:href="#m2337c285eb" y="238.278499438"/>
     <use style="fill:#ffa500;stroke:#ffa500;" x="205.92" xlink:href="#m2337c285eb" y="231.677631"/>
     <use style="fill:#ffa500;stroke:#ffa500;" x="223.776" xlink:href="#m2337c285eb" y="229.452257455"/>
     <use style="fill:#ffa500;stroke:#ffa500;" x="241.632" xlink:href="#m2337c285eb" y="223.963102753"/>
     <use style="fill:#ffa500;stroke:#ffa500;" x="259.488" xlink:href="#m2337c285eb" y="216.476522667"/>
     <use style="fill:#ffa500;stroke:#ffa500;" x="277.344" xlink:href="#m2337c285eb" y="218.7408"/>
     <use style="fill:#ffa500;stroke:#ffa500;" x="295.2" xlink:href="#m2337c285eb" y="219.075096436"/>
     <use style="fill:#ffa500;stroke:#ffa500;" x="313.056" xlink:href="#m2337c285eb" y="225.474757389"/>
     <use style="fill:#ffa500;stroke:#ffa500;" x="330.912" xlink:href="#m2337c285eb" y="228.722089674"/>
     <use style="fill:#ffa500;stroke:#ffa500;" x="348.768" xlink:href="#m2337c285eb" y="238.480889492"/>
     <use style="fill:#ffa500;stroke:#ffa500;" x="366.624" xlink:href="#m2337c285eb" y="243.2182248"/>
     <use style="fill:#ffa500;stroke:#ffa500;" x="384.48" xlink:href="#m2337c285eb" y="240.256254857"/>
     <use style="fill:#ffa500;stroke:#ffa500;" x="402.336" xlink:href="#m2337c285eb" y="244.18080694"/>
     <use style="fill:#ffa500;stroke:#ffa500;" x="420.192" xlink:href="#m2337c285eb" y="249.888713143"/>
     <use style="fill:#ffa500;stroke:#ffa500;" x="438.048" xlink:href="#m2337c285eb" y="247.733473543"/>
     <use style="fill:#ffa500;stroke:#ffa500;" x="455.904" xlink:href="#m2337c285eb" y="246.477430857"/>
     <use style="fill:#ffa500;stroke:#ffa500;" x="473.76" xlink:href="#m2337c285eb" y="238.197175579"/>
    </g>
   </g>
   <g id="PathCollection_3">
    <defs>
     <path d="M 0 2.236068 
C 0.593012 2.236068 1.161816 2.000462 1.581139 1.581139 
C 2.000462 1.161816 2.236068 0.593012 2.236068 0 
C 2.236068 -0.593012 2.000462 -1.161816 1.581139 -1.581139 
C 1.161816 -2.000462 0.593012 -2.236068 0 -2.236068 
C -0.593012 -2.236068 -1.161816 -2.000462 -1.581139 -1.581139 
C -2.000462 -1.161816 -2.236068 -0.593012 -2.236068 0 
C -2.236068 0.593012 -2.000462 1.161816 -1.581139 1.581139 
C -1.161816 2.000462 -0.593012 2.236068 0 2.236068 
z
" id="m618e3eab1a" style="stroke:#008000;"/>
    </defs>
    <g clip-path="url(#p514e6a559e)">
     <use style="fill:#008000;stroke:#008000;" x="134.496" xlink:href="#m618e3eab1a" y="330.489787465"/>
     <use style="fill:#008000;stroke:#008000;" x="152.352" xlink:href="#m618e3eab1a" y="330.420642133"/>
     <use style="fill:#008000;stroke:#008000;" x="170.208" xlink:href="#m618e3eab1a" y="330.000465836"/>
     <use style="fill:#008000;stroke:#008000;" x="188.064" xlink:href="#m618e3eab1a" y="329.017893025"/>
     <use style="fill:#008000;stroke:#008000;" x="205.92" xlink:href="#m618e3eab1a" y="329.978007"/>
     <use style="fill:#008000;stroke:#008000;" x="223.776" xlink:href="#m618e3eab1a" y="329.852893091"/>
     <use style="fill:#008000;stroke:#008000;" x="241.632" xlink:href="#m618e3eab1a" y="330.707534961"/>
     <use style="fill:#008000;stroke:#008000;" x="259.488" xlink:href="#m618e3eab1a" y="331.040885333"/>
     <use style="fill:#008000;stroke:#008000;" x="277.344" xlink:href="#m618e3eab1a" y="330.766489043"/>
     <use style="fill:#008000;stroke:#008000;" x="295.2" xlink:href="#m618e3eab1a" y="330.721040291"/>
     <use style="fill:#008000;stroke:#008000;" x="313.056" xlink:href="#m618e3eab1a" y="328.282008253"/>
     <use style="fill:#008000;stroke:#008000;" x="330.912" xlink:href="#m618e3eab1a" y="329.351754419"/>
     <use style="fill:#008000;stroke:#008000;" x="348.768" xlink:href="#m618e3eab1a" y="328.460895458"/>
     <use style="fill:#008000;stroke:#008000;" x="366.624" xlink:href="#m618e3eab1a" y="327.5948232"/>
     <use style="fill:#008000;stroke:#008000;" x="384.48" xlink:href="#m618e3eab1a" y="328.452850286"/>
     <use style="fill:#008000;stroke:#008000;" x="402.336" xlink:href="#m618e3eab1a" y="327.129005494"/>
     <use style="fill:#008000;stroke:#008000;" x="420.192" xlink:href="#m618e3eab1a" y="326.088775218"/>
     <use style="fill:#008000;stroke:#008000;" x="438.048" xlink:href="#m618e3eab1a" y="326.277992952"/>
     <use style="fill:#008000;stroke:#008000;" x="455.904" xlink:href="#m618e3eab1a" y="325.915657143"/>
     <use style="fill:#008000;stroke:#008000;" x="473.76" xlink:href="#m618e3eab1a" y="326.427082105"/>
    </g>
   </g>
   <g id="line2d_1">
    <path clip-path="url(#p514e6a559e)" d="M 72 100.8 
L 518.4 100.8 
" style="fill:none;opacity:0.25;stroke:#000000;stroke-linecap:square;"/>
   </g>
   <g id="patch_3">
    <path d="M 518.4 388.8 
L 518.4 43.2 
" style="fill:none;stroke:#000000;stroke-linecap:square;stroke-linejoin:miter;"/>
   </g>
   <g id="patch_4">
    <path d="M 72 388.8 
L 518.4 388.8 
" style="fill:none;stroke:#000000;stroke-linecap:square;stroke-linejoin:miter;"/>
   </g>
   <g id="patch_5">
    <path d="M 72 388.8 
L 72 43.2 
" style="fill:none;stroke:#000000;stroke-linecap:square;stroke-linejoin:miter;"/>
   </g>
   <g id="patch_6">
    <path d="M 72 43.2 
L 518.4 43.2 
" style="fill:none;stroke:#000000;stroke-linecap:square;stroke-linejoin:miter;"/>
   </g>
   <g id="matplotlib.axis_1">
    <g id="xtick_1">
     <g id="line2d_2">
      <defs>
       <path d="M 0 0 
L 0 -4 
" id="me611a3f57b" style="stroke:#000000;stroke-width:0.5;"/>
      </defs>
      <g>
       <use style="stroke:#000000;stroke-width:0.5;" x="116.64" xlink:href="#me611a3f57b" y="388.8"/>
      </g>
     </g>
     <g id="line2d_3">
      <defs>
       <path d="M 0 0 
L 0 4 
" id="m2fe02ca66f" style="stroke:#000000;stroke-width:0.5;"/>
      </defs>
      <g>
       <use style="stroke:#000000;stroke-width:0.5;" x="116.64" xlink:href="#m2fe02ca66f" y="43.2"/>
      </g>
     </g>
     <g id="text_1">
      <text style="font-family:Bitstream Vera Sans;font-size:12.0px;font-style:normal;font-weight:400;text-anchor:middle;" transform="rotate(-0.000000, 116.640000, 401.918125)" x="116.64" y="401.918125">−40</text>
     </g>
    </g>
    <g id="xtick_2">
     <g id="line2d_4">
      <g>
       <use style="stroke:#000000;stroke-width:0.5;" x="205.92" xlink:href="#me611a3f57b" y="388.8"/>
      </g>
     </g>
     <g id="line2d_5">
      <g>
       <use style="stroke:#000000;stroke-width:0.5;" x="205.92" xlink:href="#m2fe02ca66f" y="43.2"/>
      </g>
     </g>
     <g id="text_2">
      <text style="font-family:Bitstream Vera Sans;font-size:12.0px;font-style:normal;font-weight:400;text-anchor:middle;" transform="rotate(-0.000000, 205.920000, 401.918125)" x="205.92" y="401.918125">−20</text>
     </g>
    </g>
    <g id="xtick_3">
     <g id="line2d_6">
      <g>
       <use style="stroke:#000000;stroke-width:0.5;" x="295.2" xlink:href="#me611a3f57b" y="388.8"/>
      </g>
     </g>
     <g id="line2d_7">
      <g>
       <use style="stroke:#000000;stroke-width:0.5;" x="295.2" xlink:href="#m2fe02ca66f" y="43.2"/>
      </g>
     </g>
     <g id="text_3">
      <text style="font-family:Bitstream Vera Sans;font-size:12.0px;font-style:normal;font-weight:400;text-anchor:middle;" transform="rotate(-0.000000, 295.200000, 401.918125)" x="295.2" y="401.918125">0</text>
     </g>
    </g>
    <g id="xtick_4">
     <g id="line2d_8">
      <g>
       <use style="stroke:#000000;stroke-width:0.5;" x="384.48" xlink:href="#me611a3f57b" y="388.8"/>
      </g>
     </g>
     <g id="line2d_9">
      <g>
       <use style="stroke:#000000;stroke-width:0.5;" x="384.48" xlink:href="#m2fe02ca66f" y="43.2"/>
      </g>
     </g>
     <g id="text_4">
      <text style="font-family:Bitstream Vera Sans;font-size:12.0px;font-style:normal;font-weight:400;text-anchor:middle;" transform="rotate(-0.000000, 384.480000, 401.918125)" x="384.48" y="401.918125">20</text>
     </g>
    </g>
    <g id="xtick_5">
     <g id="line2d_10">
      <g>
       <use style="stroke:#000000;stroke-width:0.5;" x="473.76" xlink:href="#me611a3f57b" y="388.8"/>
      </g>
     </g>
     <g id="line2d_11">
      <g>
       <use style="stroke:#000000;stroke-width:0.5;" x="473.76" xlink:href="#m2fe02ca66f" y="43.2"/>
      </g>
     </g>
     <g id="text_5">
      <text style="font-family:Bitstream Vera Sans;font-size:12.0px;font-style:normal;font-weight:400;text-anchor:middle;" transform="rotate(-0.000000, 473.760000, 401.918125)" x="473.76" y="401.918125">40</text>
     </g>
    </g>
   </g>
   <g id="matplotlib.axis_2">
    <g id="ytick_1">
     <g id="line2d_12">
      <defs>
       <path d="M 0 0 
L 4 0 
" id="mbf0db2f373" style="stroke:#000000;stroke-width:0.5;"/>
      </defs>
      <g>
       <use style="stroke:#000000;stroke-width:0.5;" x="72.0" xlink:href="#mbf0db2f373" y="388.8"/>
      </g>
     </g>
     <g id="line2d_13">
      <defs>
       <path d="M 0 0 
L -4 0 
" id="mdcedf0a3ae" style="stroke:#000000;stroke-width:0.5;"/>
      </defs>
      <g>
       <use style="stroke:#000000;stroke-width:0.5;" x="518.4" xlink:href="#mdcedf0a3ae" y="388.8"/>
      </g>
     </g>
     <g id="text_6">
      <text style="font-family:Bitstream Vera Sans;font-size:12.0px;font-style:normal;font-weight:400;text-anchor:end;" transform="rotate(-0.000000, 68.000000, 392.111250)" x="68.0" y="392.11125">−1.5</text>
     </g>
    </g>
    <g id="ytick_2">
     <g id="line2d_14">
      <g>
       <use style="stroke:#000000;stroke-width:0.5;" x="72.0" xlink:href="#mbf0db2f373" y="331.2"/>
      </g>
     </g>
     <g id="line2d_15">
      <g>
       <use style="stroke:#000000;stroke-width:0.5;" x="518.4" xlink:href="#mdcedf0a3ae" y="331.2"/>
      </g>
     </g>
     <g id="text_7">
      <text style="font-family:Bitstream Vera Sans;font-size:12.0px;font-style:normal;font-weight:400;text-anchor:end;" transform="rotate(-0.000000, 68.000000, 334.511250)" x="68.0" y="334.51125">−1.0</text>
     </g>
    </g>
    <g id="ytick_3">
     <g id="line2d_16">
      <g>
       <use style="stroke:#000000;stroke-width:0.5;" x="72.0" xlink:href="#mbf0db2f373" y="273.6"/>
      </g>
     </g>
     <g id="line2d_17">
      <g>
       <use style="stroke:#000000;stroke-width:0.5;" x="518.4" xlink:href="#mdcedf0a3ae" y="273.6"/>
      </g>
     </g>
     <g id="text_8">
      <text style="font-family:Bitstream Vera Sans;font-size:12.0px;font-style:normal;font-weight:400;text-anchor:end;" transform="rotate(-0.000000, 68.000000, 276.911250)" x="68.0" y="276.91125">−0.5</text>
     </g>
    </g>
    <g id="ytick_4">
     <g id="line2d_18">
      <g>
       <use style="stroke:#000000;stroke-width:0.5;" x="72.0" xlink:href="#mbf0db2f373" y="216.0"/>
      </g>
     </g>
     <g id="line2d_19">
      <g>
       <use style="stroke:#000000;stroke-width:0.5;" x="518.4" xlink:href="#mdcedf0a3ae" y="216.0"/>
      </g>
     </g>
     <g id="text_9">
      <text style="font-family:Bitstream Vera Sans;font-size:12.0px;font-style:normal;font-weight:400;text-anchor:end;" transform="rotate(-0.000000, 68.000000, 219.311250)" x="68.0" y="219.31125">0.0</text>
     </g>
    </g>
    <g id="ytick_5">
     <g id="line2d_20">
      <g>
       <use style="stroke:#000000;stroke-width:0.5;" x="72.0" xlink:href="#mbf0db2f373" y="158.4"/>
      </g>
     </g>
     <g id="line2d_21">
      <g>
       <use style="stroke:#000000;stroke-width:0.5;" x="518.4" xlink:href="#mdcedf0a3ae" y="158.4"/>
      </g>
     </g>
     <g id="text_10">
      <text style="font-family:Bitstream Vera Sans;font-size:12.0px;font-style:normal;font-weight:400;text-anchor:end;" transform="rotate(-0.000000, 68.000000, 161.711250)" x="68.0" y="161.71125">0.5</text>
     </g>
    </g>
    <g id="ytick_6">
     <g id="line2d_22">
      <g>
       <use style="stroke:#000000;stroke-width:0.5;" x="72.0" xlink:href="#mbf0db2f373" y="100.8"/>
      </g>
     </g>
     <g id="line2d_23">
      <g>
       <use style="stroke:#000000;stroke-width:0.5;" x="518.4" xlink:href="#mdcedf0a3ae" y="100.8"/>
      </g>
     </g>
     <g id="text_11">
      <text style="font-family:Bitstream Vera Sans;font-size:12.0px;font-style:normal;font-weight:400;text-anchor:end;" transform="rotate(-0.000000, 68.000000, 104.111250)" x="68.0" y="104.11125">1.0</text>
     </g>
    </g>
    <g id="ytick_7">
     <g id="line2d_24">
      <g>
       <use style="stroke:#000000;stroke-width:0.5;" x="72.0" xlink:href="#mbf0db2f373" y="43.2"/>
      </g>
     </g>
     <g id="line2d_25">
      <g>
       <use style="stroke:#000000;stroke-width:0.5;" x="518.4" xlink:href="#mdcedf0a3ae" y="43.2"/>
      </g>
     </g>
     <g id="text_12">
      <text style="font-family:Bitstream Vera Sans;font-size:12.0px;font-style:normal;font-weight:400;text-anchor:end;" transform="rotate(-0.000000, 68.000000, 46.511250)" x="68.0" y="46.51125">1.5</text>
     </g>
    </g>
   </g>
   <g id="text_13">
    <text style="font-family:Bitstream Vera Sans;font-size:14.399999999999999px;font-style:normal;font-weight:400;text-anchor:middle;" transform="rotate(-0.000000, 295.200000, 38.200000)" x="295.2" y="38.2">order2</text>
   </g>
  </g>
  <g id="legend_1">
   <g id="patch_7">
    <path d="M 504.144 74.9295 
L 568.8 74.9295 
L 568.8 7.2 
L 504.144 7.2 
z
" style="fill:#ffffff;stroke:#000000;stroke-linejoin:miter;"/>
   </g>
   <g id="PathCollection_4">
    <path d="M 514.224 22.357818 
C 514.817012 22.357818 515.385816 22.122212 515.805139 21.702889 
C 516.224462 21.283566 516.460068 20.714762 516.460068 20.12175 
C 516.460068 19.528738 516.224462 18.959934 515.805139 18.540611 
C 515.385816 18.121288 514.817012 17.885682 514.224 17.885682 
C 513.630988 17.885682 513.062184 18.121288 512.642861 18.540611 
C 512.223538 18.959934 511.987932 19.528738 511.987932 20.12175 
C 511.987932 20.714762 512.223538 21.283566 512.642861 21.702889 
C 513.062184 22.122212 513.630988 22.357818 514.224 22.357818 
z
" style="fill:#0000ff;stroke:#0000ff;"/>
    <path d="M 524.304 21.097818 
C 524.897012 21.097818 525.465816 20.862212 525.885139 20.442889 
C 526.304462 20.023566 526.540068 19.454762 526.540068 18.86175 
C 526.540068 18.268738 526.304462 17.699934 525.885139 17.280611 
C 525.465816 16.861288 524.897012 16.625682 524.304 16.625682 
C 523.710988 16.625682 523.142184 16.861288 522.722861 17.280611 
C 522.303538 17.699934 522.067932 18.268738 522.067932 18.86175 
C 522.067932 19.454762 522.303538 20.023566 522.722861 20.442889 
C 523.142184 20.862212 523.710988 21.097818 524.304 21.097818 
z
" style="fill:#0000ff;stroke:#0000ff;"/>
    <path d="M 534.384 22.987818 
C 534.977012 22.987818 535.545816 22.752212 535.965139 22.332889 
C 536.384462 21.913566 536.620068 21.344762 536.620068 20.75175 
C 536.620068 20.158738 536.384462 19.589934 535.965139 19.170611 
C 535.545816 18.751288 534.977012 18.515682 534.384 18.515682 
C 533.790988 18.515682 533.222184 18.751288 532.802861 19.170611 
C 532.383538 19.589934 532.147932 20.158738 532.147932 20.75175 
C 532.147932 21.344762 532.383538 21.913566 532.802861 22.332889 
C 533.222184 22.752212 533.790988 22.987818 534.384 22.987818 
z
" style="fill:#0000ff;stroke:#0000ff;"/>
   </g>
   <g id="text_14">
    <!-- $s_1$ -->
    <g transform="translate(550.224 23.90175)">
     <text>
      <tspan style="font-family:cmr10;font-size:10.079999999999998px;font-style:regular;font-weight:regular;" x="6.7315521240234375" y="1.808275">1</tspan>
      <tspan style="font-family:cmmi10;font-size:14.399999999999999px;font-style:regular;font-weight:regular;" x="0.0" y="-0.640625">s</tspan>
     </text>
    </g>
   </g>
   <g id="PathCollection_5">
    <path d="M 514.224 43.494318 
C 514.817012 43.494318 515.385816 43.258712 515.805139 42.839389 
C 516.224462 42.420066 516.460068 41.851262 516.460068 41.25825 
C 516.460068 40.665238 516.224462 40.096434 515.805139 39.677111 
C 515.385816 39.257788 514.817012 39.022182 514.224 39.022182 
C 513.630988 39.022182 513.062184 39.257788 512.642861 39.677111 
C 512.223538 40.096434 511.987932 40.665238 511.987932 41.25825 
C 511.987932 41.851262 512.223538 42.420066 512.642861 42.839389 
C 513.062184 43.258712 513.630988 43.494318 514.224 43.494318 
z
" style="fill:#ffa500;stroke:#ffa500;"/>
    <path d="M 524.304 42.234318 
C 524.897012 42.234318 525.465816 41.998712 525.885139 41.579389 
C 526.304462 41.160066 526.540068 40.591262 526.540068 39.99825 
C 526.540068 39.405238 526.304462 38.836434 525.885139 38.417111 
C 525.465816 37.997788 524.897012 37.762182 524.304 37.762182 
C 523.710988 37.762182 523.142184 37.997788 522.722861 38.417111 
C 522.303538 38.836434 522.067932 39.405238 522.067932 39.99825 
C 522.067932 40.591262 522.303538 41.160066 522.722861 41.579389 
C 523.142184 41.998712 523.710988 42.234318 524.304 42.234318 
z
" style="fill:#ffa500;stroke:#ffa500;"/>
    <path d="M 534.384 44.124318 
C 534.977012 44.124318 535.545816 43.888712 535.965139 43.469389 
C 536.384462 43.050066 536.620068 42.481262 536.620068 41.88825 
C 536.620068 41.295238 536.384462 40.726434 535.965139 40.307111 
C 535.545816 39.887788 534.977012 39.652182 534.384 39.652182 
C 533.790988 39.652182 533.222184 39.887788 532.802861 40.307111 
C 532.383538 40.726434 532.147932 41.295238 532.147932 41.88825 
C 532.147932 42.481262 532.383538 43.050066 532.802861 43.469389 
C 533.222184 43.888712 533.790988 44.124318 534.384 44.124318 
z
" style="fill:#ffa500;stroke:#ffa500;"/>
   </g>
   <g id="text_15">
    <!-- $s_2$ -->
    <g transform="translate(550.224 45.03825)">
     <text>
      <tspan style="font-family:cmr10;font-size:10.079999999999998px;font-style:regular;font-weight:regular;" x="6.7315521240234375" y="1.808275">2</tspan>
      <tspan style="font-family:cmmi10;font-size:14.399999999999999px;font-style:regular;font-weight:regular;" x="0.0" y="-0.640625">s</tspan>
     </text>
    </g>
   </g>
   <g id="PathCollection_6">
    <path d="M 514.224 64.630818 
C 514.817012 64.630818 515.385816 64.395212 515.805139 63.975889 
C 516.224462 63.556566 516.460068 62.987762 516.460068 62.39475 
C 516.460068 61.801738 516.224462 61.232934 515.805139 60.813611 
C 515.385816 60.394288 514.817012 60.158682 514.224 60.158682 
C 513.630988 60.158682 513.062184 60.394288 512.642861 60.813611 
C 512.223538 61.232934 511.987932 61.801738 511.987932 62.39475 
C 511.987932 62.987762 512.223538 63.556566 512.642861 63.975889 
C 513.062184 64.395212 513.630988 64.630818 514.224 64.630818 
z
" style="fill:#008000;stroke:#008000;"/>
    <path d="M 524.304 63.370818 
C 524.897012 63.370818 525.465816 63.135212 525.885139 62.715889 
C 526.304462 62.296566 526.540068 61.727762 526.540068 61.13475 
C 526.540068 60.541738 526.304462 59.972934 525.885139 59.553611 
C 525.465816 59.134288 524.897012 58.898682 524.304 58.898682 
C 523.710988 58.898682 523.142184 59.134288 522.722861 59.553611 
C 522.303538 59.972934 522.067932 60.541738 522.067932 61.13475 
C 522.067932 61.727762 522.303538 62.296566 522.722861 62.715889 
C 523.142184 63.135212 523.710988 63.370818 524.304 63.370818 
z
" style="fill:#008000;stroke:#008000;"/>
    <path d="M 534.384 65.260818 
C 534.977012 65.260818 535.545816 65.025212 535.965139 64.605889 
C 536.384462 64.186566 536.620068 63.617762 536.620068 63.02475 
C 536.620068 62.431738 536.384462 61.862934 535.965139 61.443611 
C 535.545816 61.024288 534.977012 60.788682 534.384 60.788682 
C 533.790988 60.788682 533.222184 61.024288 532.802861 61.443611 
C 532.383538 61.862934 532.147932 62.431738 532.147932 63.02475 
C 532.147932 63.617762 532.383538 64.186566 532.802861 64.605889 
C 533.222184 65.025212 533.790988 65.260818 534.384 65.260818 
z
" style="fill:#008000;stroke:#008000;"/>
   </g>
   <g id="text_16">
    <!-- $s_3$ -->
    <g transform="translate(550.224 66.17475)">
     <text>
      <tspan style="font-family:cmr10;font-size:10.079999999999998px;font-style:regular;font-weight:regular;" x="6.7315521240234375" y="1.808275">3</tspan>
      <tspan style="font-family:cmmi10;font-size:14.399999999999999px;font-style:regular;font-weight:regular;" x="0.0" y="-0.640625">s</tspan>
     </text>
    </g>
   </g>
  </g>
 </g>
 <defs>
  <clipPath id="p514e6a559e">
   <rect height="345.6" width="446.4" x="72.0" y="43.2"/>
  </clipPath>
 </defs>
</svg>
