<?xml version="1.0" encoding="UTF-8"?>
<svg xmlns="http://www.w3.org/2000/svg" xmlns:xlink="http://www.w3.org/1999/xlink" width="359pt" height="359pt" viewBox="0 0 359 359" version="1.1">
<g id="surface7">
<path style="fill:none;stroke-width:5.358209;stroke-linecap:butt;stroke-linejoin:miter;stroke:rgb(0%,0%,99.998474%);stroke-opacity:1;stroke-miterlimit:3.25;" d="M 425.648438 364.648438 L 127.207031 66.207031 L 333.9375 272.9375 " transform="matrix(1,0,0,1,-74,-13)"/>
<path style="fill-rule:nonzero;fill:rgb(0%,0%,99.998474%);fill-opacity:1;stroke-width:0.03;stroke-linecap:square;stroke-linejoin:miter;stroke:rgb(0%,0%,99.998474%);stroke-opacity:1;stroke-miterlimit:3.25;" d="M 417.019531 382.605469 L 417.789063 380.355469 L 419.796875 375.105469 L 421.117188 372.0625 L 422.570313 369.117188 L 424.101563 366.550781 L 425.648438 364.648438 L 427.390625 363.265625 L 429.925781 361.761719 L 432.945313 360.234375 L 436.128906 358.773438 L 441.710938 356.429688 L 444.136719 355.484375 L 379.792969 318.792969 Z M 417.019531 382.605469 " transform="matrix(1,0,0,1,-74,-13)"/>
<path style="fill-rule:nonzero;fill:rgb(0%,0%,99.998474%);fill-opacity:1;stroke-width:0.03;stroke-linecap:square;stroke-linejoin:miter;stroke:rgb(0%,0%,99.998474%);stroke-opacity:1;stroke-miterlimit:3.25;" d="M 342.570313 254.980469 L 341.800781 257.234375 L 339.792969 262.484375 L 338.472656 265.523438 L 337.015625 268.46875 L 335.488281 271.035156 L 333.9375 272.9375 L 332.199219 274.324219 L 329.660156 275.828125 L 326.640625 277.355469 L 323.460938 278.816406 L 317.878906 281.15625 L 315.449219 282.101563 L 379.792969 318.792969 Z M 342.570313 254.980469 " transform="matrix(1,0,0,1,-74,-13)"/>
<path style="fill:none;stroke-width:1.78607;stroke-linecap:butt;stroke-linejoin:miter;stroke:rgb(0%,0%,0%);stroke-opacity:1;stroke-miterlimit:3.25;" d="M 74.894531 192.5 L 432.105469 192.5 " transform="matrix(1,0,0,1,-74,-13)"/>
<path style="fill:none;stroke-width:1.78607;stroke-linecap:butt;stroke-linejoin:miter;stroke:rgb(0%,0%,0%);stroke-opacity:1;stroke-miterlimit:3.25;" d="M 253.5 371.105469 L 253.5 13.894531 " transform="matrix(1,0,0,1,-74,-13)"/>
</g>
</svg>
