<?xml version="1.0" encoding="UTF-8"?>
<svg xmlns="http://www.w3.org/2000/svg" xmlns:xlink="http://www.w3.org/1999/xlink" width="359pt" height="359pt" viewBox="0 0 359 359" version="1.1">
<g id="surface21">
<path style="fill:none;stroke-width:5.358209;stroke-linecap:butt;stroke-linejoin:miter;stroke:rgb(99.998474%,0%,0%);stroke-opacity:1;stroke-miterlimit:3.25;" d="M 342.804688 269.839844 L 342.804688 269.320313 L 342.800781 269.0625 L 342.800781 268.542969 L 342.796875 268.285156 L 342.796875 268.023438 L 342.792969 267.765625 L 342.785156 267.242188 L 342.785156 266.980469 L 342.78125 266.722656 L 342.777344 266.460938 L 342.769531 266.199219 L 342.761719 265.671875 L 342.753906 265.410156 L 342.75 265.148438 L 342.738281 264.621094 L 342.730469 264.355469 L 342.722656 264.09375 L 342.699219 263.296875 L 342.691406 263.035156 L 342.671875 262.503906 L 342.632813 261.4375 L 342.621094 261.171875 L 342.613281 260.902344 L 342.589844 260.367188 L 342.539063 259.292969 L 342.523438 259.023438 L 342.511719 258.757813 L 342.484375 258.21875 L 342.421875 257.136719 L 342.40625 256.863281 L 342.390625 256.59375 L 342.355469 256.050781 L 342.285156 254.960938 L 342.125 252.773438 L 342.101563 252.476563 L 342.078125 252.175781 L 342.03125 251.582031 L 341.929688 250.382813 L 341.707031 247.976563 L 341.679688 247.675781 L 341.648438 247.375 L 341.589844 246.769531 L 341.464844 245.558594 L 341.191406 243.121094 L 341.121094 242.511719 L 341.050781 241.898438 L 340.898438 240.671875 L 340.582031 238.210938 L 339.871094 233.246094 L 339.824219 232.953125 L 339.78125 232.664063 L 339.691406 232.078125 L 339.503906 230.910156 L 339.121094 228.570313 L 338.285156 223.859375 L 338.175781 223.265625 L 338.0625 222.675781 L 337.835938 221.488281 L 337.367188 219.117188 L 336.371094 214.347656 L 336.308594 214.054688 L 336.242188 213.761719 L 336.113281 213.175781 L 335.851563 212.003906 L 335.3125 209.652344 L 334.179688 204.941406 L 331.6875 195.488281 L 331.328125 194.207031 L 330.960938 192.921875 L 330.210938 190.355469 L 328.652344 185.222656 L 325.289063 174.992188 L 325.183594 174.691406 L 325.082031 174.394531 L 324.875 173.800781 L 324.457031 172.613281 L 323.609375 170.238281 L 321.859375 165.507813 L 318.171875 156.128906 L 309.34375 136.332031 L 299.699219 117.871094 L 289.976563 101.816406 L 278.816406 85.960938 L 267.984375 72.863281 L 267.816406 72.675781 L 267.648438 72.492188 L 267.3125 72.117188 L 266.640625 71.382813 L 265.289063 69.929688 L 262.585938 67.105469 L 257.148438 61.816406 L 256.964844 61.648438 L 256.78125 61.476563 L 256.410156 61.136719 L 255.671875 60.464844 L 254.195313 59.152344 L 251.238281 56.628906 L 250.871094 56.324219 L 250.5 56.023438 L 249.761719 55.425781 L 248.285156 54.257813 L 245.335938 52.035156 L 245.167969 51.910156 L 244.996094 51.789063 L 244.652344 51.539063 L 243.964844 51.054688 L 242.59375 50.101563 L 239.863281 48.304688 L 239.691406 48.199219 L 239.523438 48.089844 L 239.183594 47.878906 L 238.5 47.457031 L 237.144531 46.644531 L 234.441406 45.125 L 234.074219 44.929688 L 233.710938 44.738281 L 232.984375 44.359375 L 231.53125 43.636719 L 231.347656 43.546875 L 230.808594 43.289063 L 230.085938 42.953125 L 228.644531 42.3125 L 228.464844 42.234375 L 228.285156 42.160156 L 227.929688 42.007813 L 227.214844 41.714844 L 225.789063 41.160156 L 222.960938 40.171875 L 222.617188 40.0625 L 222.273438 39.957031 L 221.585938 39.753906 L 220.21875 39.371094 L 220.050781 39.328125 L 219.878906 39.285156 L 219.539063 39.199219 L 218.863281 39.035156 L 217.515625 38.738281 L 217.179688 38.667969 L 216.84375 38.605469 L 216.175781 38.480469 L 216.011719 38.453125 L 215.84375 38.425781 L 215.511719 38.371094 L 214.847656 38.269531 L 214.519531 38.222656 L 214.1875 38.175781 L 213.203125 38.058594 L 212.875 38.027344 L 212.710938 38.007813 L 212.550781 37.996094 L 212.222656 37.964844 L 212.070313 37.953125 L 211.921875 37.941406 L 211.617188 37.917969 L 211.46875 37.910156 L 211.316406 37.898438 L 211.015625 37.882813 L 210.863281 37.875 L 210.714844 37.867188 L 210.5625 37.859375 L 210.414063 37.851563 L 210.265625 37.847656 L 210.113281 37.84375 L 209.964844 37.835938 L 209.816406 37.832031 L 209.667969 37.832031 L 209.519531 37.828125 L 209.367188 37.824219 L 209.070313 37.824219 L 208.921875 37.820313 L 208.773438 37.820313 L 208.628906 37.824219 L 208.332031 37.824219 L 208.035156 37.832031 L 207.890625 37.832031 L 207.742188 37.835938 L 207.597656 37.84375 L 207.300781 37.851563 L 207.011719 37.867188 L 206.863281 37.875 L 206.574219 37.890625 L 206.28125 37.910156 L 206.136719 37.917969 L 205.414063 37.976563 L 205.125 38.007813 L 204.980469 38.019531 L 204.839844 38.035156 L 204.550781 38.070313 L 204.410156 38.085938 L 204.265625 38.101563 L 203.980469 38.140625 L 203.839844 38.160156 L 203.695313 38.179688 L 203.414063 38.222656 L 202.847656 38.308594 L 202.238281 38.417969 L 201.632813 38.535156 L 201.480469 38.566406 L 201.332031 38.597656 L 201.03125 38.664063 L 200.429688 38.804688 L 200.28125 38.839844 L 200.132813 38.878906 L 199.835938 38.953125 L 199.246094 39.113281 L 198.074219 39.46875 L 197.925781 39.515625 L 197.78125 39.5625 L 197.492188 39.660156 L 196.917969 39.863281 L 195.777344 40.300781 L 195.632813 40.359375 L 195.492188 40.414063 L 195.210938 40.535156 L 194.652344 40.777344 L 193.542969 41.300781 L 193.414063 41.363281 L 193.285156 41.429688 L 193.03125 41.558594 L 192.523438 41.824219 L 191.519531 42.386719 L 191.394531 42.457031 L 191.019531 42.679688 L 190.527344 42.980469 L 189.554688 43.613281 L 189.3125 43.777344 L 189.070313 43.945313 L 188.59375 44.285156 L 187.648438 44.988281 L 185.808594 46.503906 L 185.6875 46.609375 L 185.324219 46.9375 L 184.839844 47.382813 L 183.890625 48.304688 L 183.65625 48.539063 L 183.421875 48.777344 L 182.957031 49.265625 L 182.046875 50.265625 L 181.9375 50.394531 L 181.824219 50.523438 L 181.601563 50.78125 L 181.15625 51.308594 L 180.289063 52.390625 L 178.609375 54.671875 L 178.507813 54.816406 L 178.410156 54.964844 L 178.210938 55.257813 L 177.816406 55.851563 L 177.042969 57.066406 L 175.5625 59.605469 L 175.382813 59.933594 L 175.207031 60.261719 L 174.855469 60.929688 L 174.167969 62.289063 L 172.855469 65.117188 L 172.78125 65.285156 L 172.710938 65.453125 L 172.5625 65.796875 L 172.273438 66.484375 L 171.714844 67.878906 L 170.648438 70.757813 L 170.582031 70.941406 L 170.519531 71.128906 L 170.394531 71.496094 L 170.144531 72.242188 L 169.660156 73.753906 L 168.753906 76.863281 L 168.636719 77.292969 L 168.519531 77.726563 L 168.296875 78.59375 L 167.859375 80.359375 L 167.808594 80.582031 L 167.753906 80.804688 L 167.652344 81.25 L 167.449219 82.152344 L 167.0625 83.976563 L 166.96875 84.4375 L 166.699219 85.832031 L 166.363281 87.71875 L 166.320313 87.953125 L 166.28125 88.191406 L 166.046875 89.632813 L 165.757813 91.574219 L 165.726563 91.804688 L 165.695313 92.03125 L 165.507813 93.414063 L 165.28125 95.277344 L 165.253906 95.511719 L 165.230469 95.746094 L 165.175781 96.21875 L 165.078125 97.164063 L 164.890625 99.074219 L 164.871094 99.316406 L 164.847656 99.554688 L 164.710938 101.25 L 164.691406 101.496094 L 164.65625 101.984375 L 164.589844 102.960938 L 164.574219 103.207031 L 164.554688 103.453125 L 164.527344 103.949219 L 164.46875 104.941406 L 164.457031 105.1875 L 164.441406 105.4375 L 164.371094 106.9375 L 164.359375 107.183594 L 164.351563 107.429688 L 164.332031 107.925781 L 164.320313 108.171875 L 164.3125 108.421875 L 164.296875 108.917969 L 164.289063 109.164063 L 164.265625 109.914063 L 164.261719 110.164063 L 164.253906 110.414063 L 164.242188 110.914063 L 164.238281 111.167969 L 164.230469 111.417969 L 164.226563 111.671875 L 164.222656 111.921875 L 164.21875 112.175781 L 164.214844 112.425781 L 164.207031 112.933594 L 164.207031 113.1875 L 164.203125 113.441406 L 164.203125 113.695313 L 164.199219 113.949219 L 164.199219 114.460938 L 164.195313 114.714844 L 164.195313 115.480469 L 164.199219 115.738281 L 164.199219 116.507813 L 164.207031 117.023438 L 164.207031 117.28125 L 164.210938 117.539063 L 164.214844 117.800781 L 164.222656 118.316406 L 164.226563 118.578125 L 164.234375 119.097656 L 164.238281 119.355469 L 164.246094 119.617188 L 164.257813 120.140625 L 164.261719 120.398438 L 164.269531 120.660156 L 164.285156 121.1875 L 164.300781 121.710938 L 164.316406 122.238281 L 164.355469 123.292969 L 164.367188 123.578125 L 164.378906 123.867188 L 164.402344 124.441406 L 164.457031 125.59375 L 164.46875 125.882813 L 164.484375 126.171875 L 164.515625 126.753906 L 164.582031 127.914063 L 164.597656 128.207031 L 164.617188 128.5 L 164.652344 129.082031 L 164.730469 130.253906 L 164.90625 132.609375 L 164.953125 133.203125 L 165 133.792969 L 165.101563 134.984375 L 165.324219 137.371094 L 165.386719 137.972656 L 165.445313 138.570313 L 165.574219 139.773438 L 165.84375 142.191406 L 165.875 142.476563 L 165.910156 142.757813 L 165.976563 143.324219 L 166.117188 144.460938 L 166.414063 146.742188 L 167.066406 151.335938 L 167.152344 151.914063 L 167.242188 152.488281 L 167.425781 153.648438 L 167.804688 155.96875 L 168.621094 160.636719 L 168.738281 161.269531 L 168.855469 161.90625 L 169.097656 163.175781 L 169.601563 165.726563 L 170.671875 170.851563 L 170.8125 171.492188 L 170.957031 172.136719 L 171.246094 173.421875 L 171.839844 176 L 173.097656 181.164063 L 173.175781 181.484375 L 173.257813 181.800781 L 173.417969 182.433594 L 173.746094 183.707031 L 174.417969 186.25 L 175.828125 191.339844 L 178.898438 201.519531 L 179.085938 202.113281 L 179.277344 202.707031 L 179.660156 203.890625 L 180.4375 206.257813 L 182.050781 210.980469 L 185.472656 220.371094 L 193.761719 240.332031 L 202.453125 258.207031 L 211.742188 274.746094 L 222.519531 291.308594 L 233.066406 305.207031 L 233.246094 305.425781 L 233.429688 305.648438 L 233.792969 306.085938 L 234.523438 306.960938 L 235.984375 308.683594 L 238.921875 312.035156 L 244.84375 318.328125 L 245.019531 318.503906 L 245.191406 318.679688 L 245.539063 319.027344 L 246.234375 319.71875 L 247.625 321.078125 L 250.410156 323.699219 L 255.988281 328.558594 L 256.160156 328.699219 L 256.328125 328.839844 L 256.671875 329.117188 L 257.355469 329.667969 L 258.71875 330.746094 L 261.445313 332.804688 L 261.617188 332.929688 L 261.785156 333.054688 L 262.125 333.300781 L 262.808594 333.785156 L 264.164063 334.734375 L 266.875 336.527344 L 267.242188 336.761719 L 267.609375 336.992188 L 268.339844 337.445313 L 269.800781 338.320313 L 272.707031 339.953125 L 272.886719 340.050781 L 273.070313 340.148438 L 273.429688 340.335938 L 274.152344 340.710938 L 275.59375 341.425781 L 278.453125 342.730469 L 278.621094 342.800781 L 278.785156 342.871094 L 279.117188 343.011719 L 279.777344 343.28125 L 281.097656 343.800781 L 281.261719 343.859375 L 281.425781 343.921875 L 281.757813 344.042969 L 282.410156 344.277344 L 283.71875 344.722656 L 283.878906 344.777344 L 284.042969 344.828125 L 284.367188 344.929688 L 285.015625 345.128906 L 286.308594 345.5 L 286.949219 345.671875 L 287.589844 345.835938 L 288.867188 346.132813 L 289.039063 346.167969 L 289.210938 346.207031 L 289.554688 346.277344 L 290.238281 346.410156 L 290.582031 346.472656 L 290.921875 346.535156 L 291.601563 346.648438 L 291.769531 346.675781 L 291.9375 346.699219 L 292.277344 346.75 L 292.613281 346.796875 L 292.953125 346.839844 L 293.121094 346.863281 L 293.625 346.921875 L 294.292969 346.992188 L 294.457031 347.007813 L 294.625 347.019531 L 294.957031 347.050781 L 295.125 347.0625 L 295.289063 347.074219 L 295.621094 347.097656 L 295.785156 347.105469 L 295.949219 347.117188 L 296.117188 347.125 L 296.609375 347.148438 L 296.773438 347.152344 L 296.9375 347.160156 L 297.265625 347.167969 L 297.425781 347.171875 L 297.589844 347.175781 L 297.917969 347.175781 L 298.078125 347.179688 L 298.242188 347.179688 L 298.402344 347.175781 L 298.726563 347.175781 L 298.886719 347.171875 L 299.050781 347.167969 L 299.371094 347.160156 L 299.53125 347.152344 L 299.691406 347.148438 L 300.003906 347.132813 L 300.164063 347.125 L 300.320313 347.117188 L 300.476563 347.105469 L 300.789063 347.085938 L 301.101563 347.0625 L 301.410156 347.039063 L 301.722656 347.007813 L 302.03125 346.976563 L 302.183594 346.960938 L 302.339844 346.945313 L 302.648438 346.90625 L 302.953125 346.867188 L 303.261719 346.828125 L 303.871094 346.734375 L 304.476563 346.632813 L 304.628906 346.605469 L 304.777344 346.578125 L 305.078125 346.523438 L 305.679688 346.398438 L 305.976563 346.335938 L 306.273438 346.265625 L 306.867188 346.121094 L 307.015625 346.085938 L 307.160156 346.046875 L 307.457031 345.96875 L 308.039063 345.804688 L 309.199219 345.445313 L 309.332031 345.398438 L 309.464844 345.355469 L 309.734375 345.261719 L 310.265625 345.070313 L 311.320313 344.660156 L 311.449219 344.609375 L 311.582031 344.554688 L 311.839844 344.441406 L 312.359375 344.214844 L 313.386719 343.734375 L 313.511719 343.671875 L 313.640625 343.609375 L 313.894531 343.480469 L 314.398438 343.21875 L 315.394531 342.664063 L 317.347656 341.453125 L 317.476563 341.367188 L 317.605469 341.277344 L 317.863281 341.101563 L 318.378906 340.738281 L 319.394531 339.980469 L 319.644531 339.785156 L 319.894531 339.585938 L 320.390625 339.179688 L 321.367188 338.34375 L 321.609375 338.125 L 321.847656 337.90625 L 322.324219 337.460938 L 323.265625 336.542969 L 325.085938 334.582031 L 325.1875 334.460938 L 325.292969 334.34375 L 325.5 334.101563 L 325.90625 333.613281 L 326.714844 332.609375 L 328.269531 330.5 L 328.363281 330.363281 L 328.460938 330.226563 L 328.648438 329.953125 L 329.019531 329.394531 L 329.753906 328.257813 L 331.164063 325.882813 L 331.25 325.734375 L 331.332031 325.585938 L 331.5 325.28125 L 331.828125 324.671875 L 332.472656 323.433594 L 333.710938 320.855469 L 333.859375 320.527344 L 334.007813 320.195313 L 334.300781 319.523438 L 334.871094 318.164063 L 335.957031 315.351563 L 336.097656 314.960938 L 336.238281 314.566406 L 336.511719 313.777344 L 337.046875 312.171875 L 337.113281 311.96875 L 337.175781 311.765625 L 337.304688 311.355469 L 337.558594 310.53125 L 338.046875 308.859375 L 338.164063 308.4375 L 338.28125 308.011719 L 338.511719 307.15625 L 338.953125 305.421875 L 339.765625 301.859375 L 339.808594 301.644531 L 339.851563 301.433594 L 339.941406 301.007813 L 340.109375 300.152344 L 340.4375 298.425781 L 340.59375 297.550781 L 340.742188 296.671875 L 341.027344 294.890625 L 341.058594 294.667969 L 341.09375 294.441406 L 341.160156 293.992188 L 341.289063 293.085938 L 341.53125 291.257813 L 341.5625 291.027344 L 341.644531 290.335938 L 341.753906 289.40625 L 341.953125 287.53125 L 341.980469 287.269531 L 342.007813 287.003906 L 342.058594 286.476563 L 342.152344 285.414063 L 342.175781 285.144531 L 342.199219 284.878906 L 342.242188 284.34375 L 342.324219 283.265625 L 342.363281 282.726563 L 342.402344 282.183594 L 342.472656 281.09375 L 342.488281 280.820313 L 342.503906 280.542969 L 342.535156 279.996094 L 342.589844 278.890625 L 342.605469 278.613281 L 342.652344 277.503906 L 342.664063 277.222656 L 342.683594 276.664063 L 342.695313 276.386719 L 342.71875 275.542969 L 342.730469 275.261719 L 342.734375 274.980469 L 342.75 274.414063 L 342.757813 274.132813 L 342.761719 273.847656 L 342.769531 273.5625 L 342.773438 273.277344 L 342.777344 272.996094 L 342.785156 272.425781 L 342.789063 272.136719 L 342.796875 271.566406 L 342.796875 271.277344 L 342.800781 270.992188 L 342.800781 270.417969 L 342.804688 270.128906 L 342.804688 269.839844 " transform="matrix(1,0,0,1,-74,-13)"/>
<path style="fill:none;stroke-width:0.03;stroke-linecap:square;stroke-linejoin:miter;stroke:rgb(99.998474%,0%,0%);stroke-opacity:1;stroke-miterlimit:3.25;" d="M 342.804688 269.582031 Z M 342.804688 269.582031 " transform="matrix(1,0,0,1,-74,-13)"/>
<path style="fill:none;stroke-width:0.03;stroke-linecap:square;stroke-linejoin:miter;stroke:rgb(99.998474%,0%,0%);stroke-opacity:1;stroke-miterlimit:3.25;" d="M 309.34375 136.332031 Z M 309.34375 136.332031 " transform="matrix(1,0,0,1,-74,-13)"/>
<path style="fill-rule:nonzero;fill:rgb(99.998474%,0%,0%);fill-opacity:1;stroke-width:0.03;stroke-linecap:square;stroke-linejoin:miter;stroke:rgb(99.998474%,0%,0%);stroke-opacity:1;stroke-miterlimit:3.25;" d="M 274.492188 109.378906 L 275.230469 107.113281 L 277.15625 101.835938 L 278.425781 98.773438 L 279.835938 95.804688 L 281.324219 93.214844 L 282.84375 91.289063 L 284.5625 89.878906 L 287.074219 88.335938 L 290.070313 86.761719 L 293.226563 85.25 L 298.773438 82.820313 L 301.1875 81.835938 L 236.277344 46.15625 Z M 274.492188 109.378906 " transform="matrix(1,0,0,1,-74,-13)"/>
<path style="fill:none;stroke-width:0.03;stroke-linecap:square;stroke-linejoin:miter;stroke:rgb(99.998474%,0%,0%);stroke-opacity:1;stroke-miterlimit:3.25;" d="M 164.195313 115.160156 Z M 164.195313 115.160156 " transform="matrix(1,0,0,1,-74,-13)"/>
<path style="fill:none;stroke-width:0.03;stroke-linecap:square;stroke-linejoin:miter;stroke:rgb(99.998474%,0%,0%);stroke-opacity:1;stroke-miterlimit:3.25;" d="M 193.761719 240.332031 Z M 193.761719 240.332031 " transform="matrix(1,0,0,1,-74,-13)"/>
<path style="fill-rule:nonzero;fill:rgb(99.998474%,0%,0%);fill-opacity:1;stroke-width:0.03;stroke-linecap:square;stroke-linejoin:miter;stroke:rgb(99.998474%,0%,0%);stroke-opacity:1;stroke-miterlimit:3.25;" d="M 232.46875 275.644531 L 231.730469 277.90625 L 229.8125 283.1875 L 228.539063 286.25 L 227.132813 289.21875 L 225.644531 291.808594 L 224.128906 293.738281 L 222.414063 295.148438 L 219.898438 296.695313 L 216.90625 298.273438 L 213.746094 299.78125 L 208.203125 302.214844 L 205.792969 303.199219 L 270.722656 338.839844 Z M 232.46875 275.644531 " transform="matrix(1,0,0,1,-74,-13)"/>
<path style="fill:none;stroke-width:0.03;stroke-linecap:square;stroke-linejoin:miter;stroke:rgb(99.998474%,0%,0%);stroke-opacity:1;stroke-miterlimit:3.25;" d="M 342.804688 269.839844 Z M 342.804688 269.839844 " transform="matrix(1,0,0,1,-74,-13)"/>
<path style="fill:none;stroke-width:1.78607;stroke-linecap:butt;stroke-linejoin:miter;stroke:rgb(0%,0%,0%);stroke-opacity:1;stroke-miterlimit:3.25;" d="M 74.894531 192.5 L 432.105469 192.5 " transform="matrix(1,0,0,1,-74,-13)"/>
<path style="fill:none;stroke-width:1.78607;stroke-linecap:butt;stroke-linejoin:miter;stroke:rgb(0%,0%,0%);stroke-opacity:1;stroke-miterlimit:3.25;" d="M 253.5 371.105469 L 253.5 13.894531 " transform="matrix(1,0,0,1,-74,-13)"/>
</g>
</svg>
