<?xml version="1.0" encoding="UTF-8"?>
<svg xmlns="http://www.w3.org/2000/svg" xmlns:xlink="http://www.w3.org/1999/xlink" width="359pt" height="359pt" viewBox="0 0 359 359" version="1.1">
<g id="surface35">
<path style="fill:none;stroke-width:5.358209;stroke-linecap:butt;stroke-linejoin:miter;stroke:rgb(0%,0%,99.998474%);stroke-opacity:1;stroke-miterlimit:3.25;" d="M 375.226563 -18.339844 L 342.804688 37.820313 L 342.804688 37.824219 L 342.800781 37.828125 L 342.792969 37.839844 L 342.761719 37.894531 L 342.632813 38.117188 L 342.125 38.996094 L 339.871094 42.902344 L 336.371094 48.964844 L 331.6875 57.074219 L 325.289063 68.160156 L 318.171875 80.484375 L 309.34375 95.773438 L 299.699219 112.480469 L 289.976563 129.320313 L 278.816406 148.652344 L 267.984375 167.410156 L 257.148438 186.175781 L 245.335938 206.636719 L 234.441406 225.511719 L 222.960938 245.394531 L 212.222656 263.992188 L 202.847656 280.234375 L 193.542969 296.347656 L 185.808594 309.742188 L 178.609375 322.214844 L 172.855469 332.179688 L 168.753906 339.285156 L 165.757813 344.472656 L 164.371094 346.875 L 164.359375 346.894531 L 164.351563 346.910156 L 164.332031 346.945313 L 164.296875 347.003906 L 164.242188 347.097656 L 164.238281 347.109375 L 164.230469 347.117188 L 164.222656 347.132813 L 164.207031 347.15625 L 164.207031 347.160156 L 164.203125 347.164063 L 164.199219 347.171875 L 164.199219 347.175781 L 164.195313 347.175781 L 164.195313 347.179688 L 164.195313 347.175781 L 164.199219 347.175781 L 164.207031 347.164063 L 164.234375 347.113281 L 164.355469 346.902344 L 164.378906 346.863281 L 164.402344 346.820313 L 164.457031 346.726563 L 164.582031 346.511719 L 164.90625 345.953125 L 165.84375 344.324219 L 168.621094 339.515625 L 173.097656 331.761719 L 178.898438 321.71875 L 185.472656 310.324219 L 193.761719 295.972656 L 202.453125 280.914063 L 211.742188 264.824219 L 222.519531 246.160156 L 233.066406 227.890625 L 244.84375 207.492188 L 255.988281 188.191406 L 266.875 169.332031 L 278.453125 149.28125 L 288.867188 131.242188 L 299.53125 112.769531 L 309.199219 96.027344 L 310.378906 93.980469 " transform="matrix(1,0,0,1,-74,-13)"/>
<path style="fill-rule:nonzero;fill:rgb(0%,0%,99.998474%);fill-opacity:1;stroke-width:0.03;stroke-linecap:square;stroke-linejoin:miter;stroke:rgb(0%,0%,99.998474%);stroke-opacity:1;stroke-miterlimit:3.25;" d="M 394.808594 -14.648438 L 392.429688 -14.8125 L 386.84375 -15.390625 L 383.5625 -15.878906 L 380.339844 -16.523438 L 377.46875 -17.335938 L 375.226563 -18.339844 L 373.441406 -19.660156 L 371.332031 -21.722656 L 369.074219 -24.242188 L 366.839844 -26.9375 L 363.132813 -31.726563 L 361.59375 -33.824219 L 342.804688 37.820313 Z M 394.808594 -14.648438 " transform="matrix(1,0,0,1,-74,-13)"/>
<path style="fill-rule:nonzero;fill:rgb(0%,0%,99.998474%);fill-opacity:1;stroke-width:0.03;stroke-linecap:square;stroke-linejoin:miter;stroke:rgb(0%,0%,99.998474%);stroke-opacity:1;stroke-miterlimit:3.25;" d="M 290.800781 90.292969 L 293.175781 90.453125 L 298.765625 91.035156 L 302.042969 91.523438 L 305.265625 92.167969 L 308.140625 92.980469 L 310.378906 93.980469 L 312.167969 95.304688 L 314.273438 97.367188 L 316.53125 99.886719 L 318.765625 102.582031 L 322.472656 107.371094 L 324.015625 109.46875 L 342.804688 37.820313 Z M 290.800781 90.292969 " transform="matrix(1,0,0,1,-74,-13)"/>
<path style="fill:none;stroke-width:1.78607;stroke-linecap:butt;stroke-linejoin:miter;stroke:rgb(0%,0%,0%);stroke-opacity:1;stroke-miterlimit:3.25;" d="M 74.894531 192.5 L 432.105469 192.5 " transform="matrix(1,0,0,1,-74,-13)"/>
<path style="fill:none;stroke-width:1.78607;stroke-linecap:butt;stroke-linejoin:miter;stroke:rgb(0%,0%,0%);stroke-opacity:1;stroke-miterlimit:3.25;" d="M 253.5 371.105469 L 253.5 13.894531 " transform="matrix(1,0,0,1,-74,-13)"/>
</g>
</svg>
